%TF.GenerationSoftware,KiCad,Pcbnew,9.0.5*%
%TF.CreationDate,2025-12-05T18:53:18-06:00*%
%TF.ProjectId,JollyDevboard,4a6f6c6c-7944-4657-9662-6f6172642e6b,rev?*%
%TF.SameCoordinates,Original*%
%TF.FileFunction,Copper,L1,Top*%
%TF.FilePolarity,Positive*%
%FSLAX46Y46*%
G04 Gerber Fmt 4.6, Leading zero omitted, Abs format (unit mm)*
G04 Created by KiCad (PCBNEW 9.0.5) date 2025-12-05 18:53:18*
%MOMM*%
%LPD*%
G01*
G04 APERTURE LIST*
G04 Aperture macros list*
%AMRoundRect*
0 Rectangle with rounded corners*
0 $1 Rounding radius*
0 $2 $3 $4 $5 $6 $7 $8 $9 X,Y pos of 4 corners*
0 Add a 4 corners polygon primitive as box body*
4,1,4,$2,$3,$4,$5,$6,$7,$8,$9,$2,$3,0*
0 Add four circle primitives for the rounded corners*
1,1,$1+$1,$2,$3*
1,1,$1+$1,$4,$5*
1,1,$1+$1,$6,$7*
1,1,$1+$1,$8,$9*
0 Add four rect primitives between the rounded corners*
20,1,$1+$1,$2,$3,$4,$5,0*
20,1,$1+$1,$4,$5,$6,$7,0*
20,1,$1+$1,$6,$7,$8,$9,0*
20,1,$1+$1,$8,$9,$2,$3,0*%
G04 Aperture macros list end*
%TA.AperFunction,SMDPad,CuDef*%
%ADD10RoundRect,0.140000X-0.140000X-0.170000X0.140000X-0.170000X0.140000X0.170000X-0.140000X0.170000X0*%
%TD*%
%TA.AperFunction,SMDPad,CuDef*%
%ADD11RoundRect,0.135000X0.135000X0.185000X-0.135000X0.185000X-0.135000X-0.185000X0.135000X-0.185000X0*%
%TD*%
%TA.AperFunction,SMDPad,CuDef*%
%ADD12RoundRect,0.150000X0.150000X-0.587500X0.150000X0.587500X-0.150000X0.587500X-0.150000X-0.587500X0*%
%TD*%
%TA.AperFunction,ComponentPad*%
%ADD13R,1.700000X1.700000*%
%TD*%
%TA.AperFunction,ComponentPad*%
%ADD14C,1.700000*%
%TD*%
%TA.AperFunction,SMDPad,CuDef*%
%ADD15RoundRect,0.147500X-0.147500X-0.172500X0.147500X-0.172500X0.147500X0.172500X-0.147500X0.172500X0*%
%TD*%
%TA.AperFunction,SMDPad,CuDef*%
%ADD16RoundRect,0.135000X-0.135000X-0.185000X0.135000X-0.185000X0.135000X0.185000X-0.135000X0.185000X0*%
%TD*%
%TA.AperFunction,SMDPad,CuDef*%
%ADD17RoundRect,0.162500X-0.650000X-0.162500X0.650000X-0.162500X0.650000X0.162500X-0.650000X0.162500X0*%
%TD*%
%TA.AperFunction,SMDPad,CuDef*%
%ADD18RoundRect,0.140000X0.140000X0.170000X-0.140000X0.170000X-0.140000X-0.170000X0.140000X-0.170000X0*%
%TD*%
%TA.AperFunction,SMDPad,CuDef*%
%ADD19RoundRect,0.135000X-0.185000X0.135000X-0.185000X-0.135000X0.185000X-0.135000X0.185000X0.135000X0*%
%TD*%
%TA.AperFunction,SMDPad,CuDef*%
%ADD20RoundRect,0.050000X-0.387500X-0.050000X0.387500X-0.050000X0.387500X0.050000X-0.387500X0.050000X0*%
%TD*%
%TA.AperFunction,SMDPad,CuDef*%
%ADD21RoundRect,0.050000X-0.050000X-0.387500X0.050000X-0.387500X0.050000X0.387500X-0.050000X0.387500X0*%
%TD*%
%TA.AperFunction,HeatsinkPad*%
%ADD22R,3.200000X3.200000*%
%TD*%
%TA.AperFunction,SMDPad,CuDef*%
%ADD23RoundRect,0.200000X-0.200000X-0.800000X0.200000X-0.800000X0.200000X0.800000X-0.200000X0.800000X0*%
%TD*%
%TA.AperFunction,SMDPad,CuDef*%
%ADD24RoundRect,0.250000X-0.450000X-0.350000X0.450000X-0.350000X0.450000X0.350000X-0.450000X0.350000X0*%
%TD*%
%TA.AperFunction,SMDPad,CuDef*%
%ADD25RoundRect,0.135000X0.185000X-0.135000X0.185000X0.135000X-0.185000X0.135000X-0.185000X-0.135000X0*%
%TD*%
%TA.AperFunction,SMDPad,CuDef*%
%ADD26R,0.600000X1.450000*%
%TD*%
%TA.AperFunction,SMDPad,CuDef*%
%ADD27R,0.300000X1.450000*%
%TD*%
%TA.AperFunction,HeatsinkPad*%
%ADD28O,1.000000X2.100000*%
%TD*%
%TA.AperFunction,HeatsinkPad*%
%ADD29O,1.000000X1.600000*%
%TD*%
%TA.AperFunction,ViaPad*%
%ADD30C,0.600000*%
%TD*%
%TA.AperFunction,Conductor*%
%ADD31C,0.200000*%
%TD*%
G04 APERTURE END LIST*
D10*
%TO.P,C7,1*%
%TO.N,+3V3*%
X160540000Y-84000000D03*
%TO.P,C7,2*%
%TO.N,GND*%
X161500000Y-84000000D03*
%TD*%
%TO.P,C10,1*%
%TO.N,+1V1*%
X160540000Y-89970000D03*
%TO.P,C10,2*%
%TO.N,Net-(C10-Pad2)*%
X161500000Y-89970000D03*
%TD*%
D11*
%TO.P,R5,1*%
%TO.N,Net-(C16-Pad2)*%
X157510000Y-80000000D03*
%TO.P,R5,2*%
%TO.N,XOUT*%
X156490000Y-80000000D03*
%TD*%
D10*
%TO.P,C9,1*%
%TO.N,+3V3*%
X160540000Y-88000000D03*
%TO.P,C9,2*%
%TO.N,GND*%
X161500000Y-88000000D03*
%TD*%
D12*
%TO.P,U2,1,GND*%
%TO.N,GND*%
X156850000Y-58175000D03*
%TO.P,U2,2,VO*%
%TO.N,+3V3*%
X158750000Y-58175000D03*
%TO.P,U2,3,VI*%
%TO.N,VBUS*%
X157800000Y-56300000D03*
%TD*%
D10*
%TO.P,C11,1*%
%TO.N,+1V1*%
X160540000Y-91940000D03*
%TO.P,C11,2*%
%TO.N,Net-(C10-Pad2)*%
X161500000Y-91940000D03*
%TD*%
%TO.P,C5,1*%
%TO.N,+3V3*%
X158630000Y-91940000D03*
%TO.P,C5,2*%
%TO.N,GND*%
X159590000Y-91940000D03*
%TD*%
D13*
%TO.P,J3,1,Pin_1*%
%TO.N,VBUS*%
X169700000Y-48600000D03*
D14*
%TO.P,J3,2,Pin_2*%
%TO.N,GPIO29_ADC3*%
X169700000Y-51140000D03*
%TO.P,J3,3,Pin_3*%
%TO.N,GND*%
X169700000Y-53680000D03*
%TO.P,J3,4,Pin_4*%
%TO.N,GPIO28_ADC2*%
X169700000Y-56220000D03*
%TO.P,J3,5,Pin_5*%
%TO.N,+3V3*%
X169700000Y-58760000D03*
%TO.P,J3,6,Pin_6*%
%TO.N,GPIO27_ADC1*%
X169700000Y-61300000D03*
%TO.P,J3,7,Pin_7*%
%TO.N,GPIO26_ADC0*%
X169700000Y-63840000D03*
%TO.P,J3,8,Pin_8*%
%TO.N,GND*%
X169700000Y-66380000D03*
%TO.P,J3,9,Pin_9*%
%TO.N,GPIO24*%
X169700000Y-68920000D03*
%TO.P,J3,10,Pin_10*%
%TO.N,GPIO23*%
X169700000Y-71460000D03*
%TO.P,J3,11,Pin_11*%
%TO.N,RUN*%
X169700000Y-74000000D03*
%TO.P,J3,12,Pin_12*%
%TO.N,GPIO22*%
X169700000Y-76540000D03*
%TO.P,J3,13,Pin_13*%
%TO.N,GND*%
X169700000Y-79080000D03*
%TO.P,J3,14,Pin_14*%
%TO.N,GPIO21*%
X169700000Y-81620000D03*
%TO.P,J3,15,Pin_15*%
%TO.N,GPIO20*%
X169700000Y-84160000D03*
%TO.P,J3,16,Pin_16*%
%TO.N,GPIO19*%
X169700000Y-86700000D03*
%TO.P,J3,17,Pin_17*%
%TO.N,GPIO18*%
X169700000Y-89240000D03*
%TO.P,J3,18,Pin_18*%
%TO.N,GND*%
X169700000Y-91780000D03*
%TO.P,J3,19,Pin_19*%
%TO.N,GPIO17*%
X169700000Y-94320000D03*
%TO.P,J3,20,Pin_20*%
%TO.N,GPIO16*%
X169700000Y-96860000D03*
%TD*%
D15*
%TO.P,D3,1,K*%
%TO.N,GND*%
X164515000Y-90990000D03*
%TO.P,D3,2,A*%
%TO.N,Net-(D2-K)*%
X165485000Y-90990000D03*
%TD*%
%TO.P,D1,1,K*%
%TO.N,Net-(D1-K)*%
X164515000Y-87010000D03*
%TO.P,D1,2,A*%
%TO.N,LED_DECORATION*%
X165485000Y-87010000D03*
%TD*%
D10*
%TO.P,C1,1*%
%TO.N,+3V3*%
X158630000Y-84060000D03*
%TO.P,C1,2*%
%TO.N,GND*%
X159590000Y-84060000D03*
%TD*%
D16*
%TO.P,R7,1*%
%TO.N,+3V3*%
X154990000Y-66000000D03*
%TO.P,R7,2*%
%TO.N,QSPI_SS*%
X156010000Y-66000000D03*
%TD*%
D13*
%TO.P,J4,1,Pin_1*%
%TO.N,SWD*%
X157500000Y-96500000D03*
D14*
%TO.P,J4,2,Pin_2*%
%TO.N,GND*%
X160040000Y-96500000D03*
%TO.P,J4,3,Pin_3*%
%TO.N,SWCLK*%
X162580000Y-96500000D03*
%TD*%
D15*
%TO.P,D2,1,K*%
%TO.N,Net-(D2-K)*%
X164515000Y-89000000D03*
%TO.P,D2,2,A*%
%TO.N,Net-(D1-K)*%
X165485000Y-89000000D03*
%TD*%
D10*
%TO.P,C14,1*%
%TO.N,+3V3*%
X154520000Y-56000000D03*
%TO.P,C14,2*%
%TO.N,GND*%
X155480000Y-56000000D03*
%TD*%
D17*
%TO.P,U3,1,~{CS}*%
%TO.N,QSPI_SS*%
X156912500Y-61095000D03*
%TO.P,U3,2,DO/IO_{1}*%
%TO.N,QSPI_SD1*%
X156912500Y-62365000D03*
%TO.P,U3,3,~{WP}/IO_{2}*%
%TO.N,QSPI_SD2*%
X156912500Y-63635000D03*
%TO.P,U3,4,GND*%
%TO.N,GND*%
X156912500Y-64905000D03*
%TO.P,U3,5,DI/IO_{0}*%
%TO.N,QSPI_SD0*%
X164087500Y-64905000D03*
%TO.P,U3,6,CLK*%
%TO.N,QSPI_SCLK*%
X164087500Y-63635000D03*
%TO.P,U3,7,~{HOLD}/~{RESET}/IO_{3}*%
%TO.N,QSPI_SD3*%
X164087500Y-62365000D03*
%TO.P,U3,8,VCC*%
%TO.N,+3V3*%
X164087500Y-61095000D03*
%TD*%
D10*
%TO.P,C3,1*%
%TO.N,+3V3*%
X158630000Y-88000000D03*
%TO.P,C3,2*%
%TO.N,GND*%
X159590000Y-88000000D03*
%TD*%
D18*
%TO.P,C15,1*%
%TO.N,GND*%
X164000000Y-80500000D03*
%TO.P,C15,2*%
%TO.N,XIN*%
X163040000Y-80500000D03*
%TD*%
D19*
%TO.P,R2,1*%
%TO.N,Net-(J1-CC2)*%
X166500000Y-53490000D03*
%TO.P,R2,2*%
%TO.N,GND*%
X166500000Y-54510000D03*
%TD*%
D10*
%TO.P,C6,1*%
%TO.N,+3V3*%
X158630000Y-93910000D03*
%TO.P,C6,2*%
%TO.N,GND*%
X159590000Y-93910000D03*
%TD*%
D20*
%TO.P,U1,1,IOVDD*%
%TO.N,+3V3*%
X157062500Y-68900000D03*
%TO.P,U1,2,GPIO0*%
%TO.N,GPIO0*%
X157062500Y-69300000D03*
%TO.P,U1,3,GPIO1*%
%TO.N,GPIO1*%
X157062500Y-69700000D03*
%TO.P,U1,4,GPIO2*%
%TO.N,GPIO2*%
X157062500Y-70100000D03*
%TO.P,U1,5,GPIO3*%
%TO.N,GPIO3*%
X157062500Y-70500000D03*
%TO.P,U1,6,GPIO4*%
%TO.N,GPIO4*%
X157062500Y-70900000D03*
%TO.P,U1,7,GPIO5*%
%TO.N,GPIO5*%
X157062500Y-71300000D03*
%TO.P,U1,8,GPIO6*%
%TO.N,GPIO6*%
X157062500Y-71700000D03*
%TO.P,U1,9,GPIO7*%
%TO.N,GPIO7*%
X157062500Y-72100000D03*
%TO.P,U1,10,IOVDD*%
%TO.N,+3V3*%
X157062500Y-72500000D03*
%TO.P,U1,11,GPIO8*%
%TO.N,GPIO8*%
X157062500Y-72900000D03*
%TO.P,U1,12,GPIO9*%
%TO.N,GPIO9*%
X157062500Y-73300000D03*
%TO.P,U1,13,GPIO10*%
%TO.N,GPIO10*%
X157062500Y-73700000D03*
%TO.P,U1,14,GPIO11*%
%TO.N,GPIO11*%
X157062500Y-74100000D03*
D21*
%TO.P,U1,15,GPIO12*%
%TO.N,GPIO12*%
X157900000Y-74937500D03*
%TO.P,U1,16,GPIO13*%
%TO.N,GPIO13*%
X158300000Y-74937500D03*
%TO.P,U1,17,GPIO14*%
%TO.N,GPIO14*%
X158700000Y-74937500D03*
%TO.P,U1,18,GPIO15*%
%TO.N,GPIO15*%
X159100000Y-74937500D03*
%TO.P,U1,19,TESTEN*%
%TO.N,GND*%
X159500000Y-74937500D03*
%TO.P,U1,20,XIN*%
%TO.N,XIN*%
X159900000Y-74937500D03*
%TO.P,U1,21,XOUT*%
%TO.N,XOUT*%
X160300000Y-74937500D03*
%TO.P,U1,22,IOVDD*%
%TO.N,+3V3*%
X160700000Y-74937500D03*
%TO.P,U1,23,DVDD*%
%TO.N,+1V1*%
X161100000Y-74937500D03*
%TO.P,U1,24,SWCLK*%
%TO.N,SWCLK*%
X161500000Y-74937500D03*
%TO.P,U1,25,SWD*%
%TO.N,SWD*%
X161900000Y-74937500D03*
%TO.P,U1,26,RUN*%
%TO.N,unconnected-(U1-RUN-Pad26)*%
X162300000Y-74937500D03*
%TO.P,U1,27,GPIO16*%
%TO.N,GPIO16*%
X162700000Y-74937500D03*
%TO.P,U1,28,GPIO17*%
%TO.N,GPIO17*%
X163100000Y-74937500D03*
D20*
%TO.P,U1,29,GPIO18*%
%TO.N,GPIO18*%
X163937500Y-74100000D03*
%TO.P,U1,30,GPIO19*%
%TO.N,GPIO19*%
X163937500Y-73700000D03*
%TO.P,U1,31,GPIO20*%
%TO.N,GPIO20*%
X163937500Y-73300000D03*
%TO.P,U1,32,GPIO21*%
%TO.N,GPIO21*%
X163937500Y-72900000D03*
%TO.P,U1,33,IOVDD*%
%TO.N,+3V3*%
X163937500Y-72500000D03*
%TO.P,U1,34,GPIO22*%
%TO.N,GPIO22*%
X163937500Y-72100000D03*
%TO.P,U1,35,GPIO23*%
%TO.N,GPIO23*%
X163937500Y-71700000D03*
%TO.P,U1,36,GPIO24*%
%TO.N,GPIO24*%
X163937500Y-71300000D03*
%TO.P,U1,37,GPIO25*%
%TO.N,LED_DECORATION*%
X163937500Y-70900000D03*
%TO.P,U1,38,GPIO26_ADC0*%
%TO.N,GPIO26_ADC0*%
X163937500Y-70500000D03*
%TO.P,U1,39,GPIO27_ADC1*%
%TO.N,GPIO27_ADC1*%
X163937500Y-70100000D03*
%TO.P,U1,40,GPIO28_ADC2*%
%TO.N,GPIO28_ADC2*%
X163937500Y-69700000D03*
%TO.P,U1,41,GPIO29_ADC3*%
%TO.N,GPIO29_ADC3*%
X163937500Y-69300000D03*
%TO.P,U1,42,IOVDD*%
%TO.N,+3V3*%
X163937500Y-68900000D03*
D21*
%TO.P,U1,43,ADC_AVDD*%
X163100000Y-68062500D03*
%TO.P,U1,44,VREG_IN*%
X162700000Y-68062500D03*
%TO.P,U1,45,VREG_VOUT*%
%TO.N,+1V1*%
X162300000Y-68062500D03*
%TO.P,U1,46,USB_DM*%
%TO.N,Net-(U1-USB_DM)*%
X161900000Y-68062500D03*
%TO.P,U1,47,USB_DP*%
%TO.N,Net-(U1-USB_DP)*%
X161500000Y-68062500D03*
%TO.P,U1,48,USB_VDD*%
%TO.N,+3V3*%
X161100000Y-68062500D03*
%TO.P,U1,49,IOVDD*%
X160700000Y-68062500D03*
%TO.P,U1,50,DVDD*%
%TO.N,+1V1*%
X160300000Y-68062500D03*
%TO.P,U1,51,QSPI_SD3*%
%TO.N,QSPI_SD3*%
X159900000Y-68062500D03*
%TO.P,U1,52,QSPI_SCLK*%
%TO.N,QSPI_SCLK*%
X159500000Y-68062500D03*
%TO.P,U1,53,QSPI_SD0*%
%TO.N,QSPI_SD0*%
X159100000Y-68062500D03*
%TO.P,U1,54,QSPI_SD2*%
%TO.N,QSPI_SD2*%
X158700000Y-68062500D03*
%TO.P,U1,55,QSPI_SD1*%
%TO.N,QSPI_SD1*%
X158300000Y-68062500D03*
%TO.P,U1,56,QSPI_SS*%
%TO.N,QSPI_SS*%
X157900000Y-68062500D03*
D22*
%TO.P,U1,57,GND*%
%TO.N,GND*%
X160500000Y-71500000D03*
%TD*%
D10*
%TO.P,C2,1*%
%TO.N,+3V3*%
X158630000Y-86030000D03*
%TO.P,C2,2*%
%TO.N,GND*%
X159590000Y-86030000D03*
%TD*%
%TO.P,C16,1*%
%TO.N,GND*%
X156520000Y-82000000D03*
%TO.P,C16,2*%
%TO.N,Net-(C16-Pad2)*%
X157480000Y-82000000D03*
%TD*%
%TO.P,C17,1*%
%TO.N,+3V3*%
X166020000Y-61000000D03*
%TO.P,C17,2*%
%TO.N,GND*%
X166980000Y-61000000D03*
%TD*%
D11*
%TO.P,R6,1*%
%TO.N,Net-(R6-Pad1)*%
X156020000Y-67000000D03*
%TO.P,R6,2*%
%TO.N,QSPI_SS*%
X155000000Y-67000000D03*
%TD*%
D16*
%TO.P,R4,1*%
%TO.N,USB_D-*%
X162000000Y-66400000D03*
%TO.P,R4,2*%
%TO.N,Net-(U1-USB_DM)*%
X163020000Y-66400000D03*
%TD*%
D23*
%TO.P,SW1,1,1*%
%TO.N,GND*%
X162000000Y-57500000D03*
%TO.P,SW1,2,2*%
%TO.N,Net-(R6-Pad1)*%
X166200000Y-57500000D03*
%TD*%
D10*
%TO.P,C13,1*%
%TO.N,VBUS*%
X154520000Y-57000000D03*
%TO.P,C13,2*%
%TO.N,GND*%
X155480000Y-57000000D03*
%TD*%
D24*
%TO.P,Y1,1,1*%
%TO.N,Net-(C16-Pad2)*%
X159300000Y-82200000D03*
%TO.P,Y1,2,2*%
%TO.N,GND*%
X161500000Y-82200000D03*
%TO.P,Y1,3,3*%
%TO.N,XIN*%
X161500000Y-80500000D03*
%TO.P,Y1,4,4*%
%TO.N,GND*%
X159300000Y-80500000D03*
%TD*%
D25*
%TO.P,R1,1*%
%TO.N,Net-(J1-CC1)*%
X166500000Y-52510000D03*
%TO.P,R1,2*%
%TO.N,GND*%
X166500000Y-51490000D03*
%TD*%
D10*
%TO.P,C8,1*%
%TO.N,+3V3*%
X160540000Y-86030000D03*
%TO.P,C8,2*%
%TO.N,GND*%
X161500000Y-86030000D03*
%TD*%
D13*
%TO.P,J2,1,Pin_1*%
%TO.N,GPIO0*%
X151600000Y-48600000D03*
D14*
%TO.P,J2,2,Pin_2*%
%TO.N,GPIO1*%
X151600000Y-51140000D03*
%TO.P,J2,3,Pin_3*%
%TO.N,GND*%
X151600000Y-53680000D03*
%TO.P,J2,4,Pin_4*%
%TO.N,GPIO2*%
X151600000Y-56220000D03*
%TO.P,J2,5,Pin_5*%
%TO.N,GPIO3*%
X151600000Y-58760000D03*
%TO.P,J2,6,Pin_6*%
%TO.N,GPIO4*%
X151600000Y-61300000D03*
%TO.P,J2,7,Pin_7*%
%TO.N,GPIO5*%
X151600000Y-63840000D03*
%TO.P,J2,8,Pin_8*%
%TO.N,GND*%
X151600000Y-66380000D03*
%TO.P,J2,9,Pin_9*%
%TO.N,GPIO6*%
X151600000Y-68920000D03*
%TO.P,J2,10,Pin_10*%
%TO.N,GPIO7*%
X151600000Y-71460000D03*
%TO.P,J2,11,Pin_11*%
%TO.N,GPIO8*%
X151600000Y-74000000D03*
%TO.P,J2,12,Pin_12*%
%TO.N,GPIO9*%
X151600000Y-76540000D03*
%TO.P,J2,13,Pin_13*%
%TO.N,GND*%
X151600000Y-79080000D03*
%TO.P,J2,14,Pin_14*%
%TO.N,GPIO10*%
X151600000Y-81620000D03*
%TO.P,J2,15,Pin_15*%
%TO.N,GPIO11*%
X151600000Y-84160000D03*
%TO.P,J2,16,Pin_16*%
%TO.N,GPIO12*%
X151600000Y-86700000D03*
%TO.P,J2,17,Pin_17*%
%TO.N,GPIO13*%
X151600000Y-89240000D03*
%TO.P,J2,18,Pin_18*%
%TO.N,GND*%
X151600000Y-91780000D03*
%TO.P,J2,19,Pin_19*%
%TO.N,GPIO14*%
X151600000Y-94320000D03*
%TO.P,J2,20,Pin_20*%
%TO.N,GPIO15*%
X151600000Y-96860000D03*
%TD*%
D10*
%TO.P,C12,1*%
%TO.N,+1V1*%
X160540000Y-93910000D03*
%TO.P,C12,2*%
%TO.N,Net-(C10-Pad2)*%
X161500000Y-93910000D03*
%TD*%
D16*
%TO.P,R3,1*%
%TO.N,USB_D+*%
X159890000Y-59600000D03*
%TO.P,R3,2*%
%TO.N,Net-(U1-USB_DP)*%
X160910000Y-59600000D03*
%TD*%
D10*
%TO.P,C4,1*%
%TO.N,+3V3*%
X158630000Y-89970000D03*
%TO.P,C4,2*%
%TO.N,GND*%
X159590000Y-89970000D03*
%TD*%
D26*
%TO.P,J1,A1,GND*%
%TO.N,GND*%
X163750000Y-54000000D03*
%TO.P,J1,A4,VBUS*%
%TO.N,VBUS*%
X162950000Y-54000000D03*
D27*
%TO.P,J1,A5,CC1*%
%TO.N,Net-(J1-CC1)*%
X161750000Y-54000000D03*
%TO.P,J1,A6,D+*%
%TO.N,USB_D+*%
X160750000Y-54000000D03*
%TO.P,J1,A7,D-*%
%TO.N,USB_D-*%
X160250000Y-54000000D03*
%TO.P,J1,A8*%
%TO.N,N/C*%
X159250000Y-54000000D03*
D26*
%TO.P,J1,A9,VBUS*%
%TO.N,VBUS*%
X158050000Y-54000000D03*
%TO.P,J1,A12,GND*%
%TO.N,GND*%
X157250000Y-54000000D03*
%TO.P,J1,B1,GND*%
X157250000Y-54000000D03*
%TO.P,J1,B4,VBUS*%
%TO.N,VBUS*%
X158050000Y-54000000D03*
D27*
%TO.P,J1,B5,CC2*%
%TO.N,Net-(J1-CC2)*%
X158750000Y-54000000D03*
%TO.P,J1,B6,D+*%
%TO.N,USB_D+*%
X159750000Y-54000000D03*
%TO.P,J1,B7,D-*%
%TO.N,USB_D-*%
X161250000Y-54000000D03*
%TO.P,J1,B8*%
%TO.N,N/C*%
X162250000Y-54000000D03*
D26*
%TO.P,J1,B9,VBUS*%
%TO.N,VBUS*%
X162950000Y-54000000D03*
%TO.P,J1,B12,GND*%
%TO.N,GND*%
X163750000Y-54000000D03*
D28*
%TO.P,J1,S1,SHIELD*%
X164820000Y-53085000D03*
D29*
X164820000Y-48905000D03*
D28*
X156180000Y-53085000D03*
D29*
X156180000Y-48905000D03*
%TD*%
D30*
%TO.N,GND*%
X157000000Y-94500000D03*
X159500000Y-85500000D03*
X167500000Y-52000000D03*
X167300000Y-69100000D03*
X160500000Y-71500000D03*
X158700000Y-79300000D03*
X166900000Y-55500000D03*
X156500000Y-59800000D03*
X167400000Y-57700000D03*
X159500000Y-83500000D03*
X158000000Y-66500000D03*
X169000000Y-90500000D03*
X162500000Y-84500000D03*
X153400000Y-90200000D03*
X153700000Y-73800000D03*
X163700000Y-57800000D03*
X166600000Y-59800000D03*
X154000000Y-51000000D03*
X156500000Y-56000000D03*
X166000000Y-76000000D03*
%TO.N,+3V3*%
X158200000Y-59600000D03*
X160500000Y-78500000D03*
X155500000Y-55000000D03*
X154300000Y-72800000D03*
X167174501Y-64044758D03*
X167400000Y-72400000D03*
X156000000Y-68500000D03*
X160512478Y-66704284D03*
X155500000Y-59000000D03*
X160500000Y-89000000D03*
X166500000Y-62000000D03*
X165500000Y-68500000D03*
X165800000Y-67600000D03*
%TO.N,+1V1*%
X160200000Y-69000000D03*
X164900000Y-66500000D03*
X161500000Y-76500000D03*
X161500000Y-76500000D03*
X161500000Y-89000000D03*
%TO.N,VBUS*%
X165500000Y-55500000D03*
%TO.N,LED_DECORATION*%
X165000000Y-84500000D03*
X163000000Y-71000000D03*
%TO.N,USB_D-*%
X162000000Y-65500000D03*
X161000000Y-56000000D03*
%TO.N,Net-(J1-CC1)*%
X167500000Y-56500000D03*
X163000000Y-56500000D03*
%TO.N,GPIO0*%
X158000000Y-70500000D03*
%TO.N,GPIO13*%
X158000000Y-76000000D03*
%TO.N,GPIO15*%
X159500000Y-74000000D03*
%TO.N,GPIO5*%
X154100000Y-70400000D03*
%TO.N,GPIO12*%
X158000000Y-74000000D03*
%TO.N,GPIO14*%
X158000000Y-73000000D03*
%TO.N,GPIO21*%
X163000000Y-73000000D03*
%TO.N,GPIO29_ADC3*%
X163000000Y-69500000D03*
%TO.N,GPIO22*%
X163100000Y-72100000D03*
%TO.N,SWD*%
X161500000Y-74000000D03*
%TO.N,Net-(U1-USB_DP)*%
X161600000Y-62900000D03*
X161297992Y-68980310D03*
%TO.N,Net-(U1-USB_DM)*%
X162097677Y-69002809D03*
X164000000Y-66000000D03*
%TO.N,XOUT*%
X160500000Y-74000000D03*
X156500000Y-79000000D03*
%TO.N,Net-(R6-Pad1)*%
X162500000Y-61500000D03*
X156887712Y-65730000D03*
%TO.N,QSPI_SD2*%
X156900000Y-67100000D03*
X158200000Y-64200000D03*
%TO.N,QSPI_SD3*%
X165500000Y-63000000D03*
X165500000Y-65500000D03*
X167400000Y-67200000D03*
X167300000Y-65400000D03*
X160100000Y-64800000D03*
%TO.N,QSPI_SD0*%
X159700000Y-63000000D03*
X162000000Y-64300000D03*
%TO.N,QSPI_SD1*%
X158500000Y-62500000D03*
X158500000Y-69000000D03*
%TD*%
D31*
%TO.N,*%
X159250000Y-54000000D02*
X159299000Y-53951000D01*
%TO.N,GND*%
X159000000Y-80200000D02*
X159300000Y-80500000D01*
X156520000Y-82000000D02*
X157969000Y-83449000D01*
X155480000Y-56000000D02*
X156500000Y-56000000D01*
X164515000Y-90990000D02*
X162500000Y-88975000D01*
X168101000Y-56748943D02*
X168101000Y-56999000D01*
X159590000Y-88000000D02*
X159590000Y-86030000D01*
X163905000Y-54000000D02*
X164820000Y-53085000D01*
X159590000Y-89970000D02*
X159590000Y-91940000D01*
X155480000Y-56000000D02*
X155480000Y-57000000D01*
X161500000Y-82200000D02*
X161500000Y-83500000D01*
X153400000Y-90200000D02*
X153400000Y-90900000D01*
X161500000Y-83500000D02*
X162500000Y-84500000D01*
X161200000Y-72200000D02*
X161600000Y-72200000D01*
X159590000Y-89970000D02*
X159590000Y-88000000D01*
X165075000Y-53085000D02*
X166500000Y-54510000D01*
X161500000Y-86030000D02*
X161500000Y-84000000D01*
X161500000Y-88000000D02*
X161500000Y-86030000D01*
X157969000Y-83449000D02*
X159449000Y-83449000D01*
X166500000Y-54510000D02*
X166500000Y-55200000D01*
X159500000Y-74937500D02*
X159500000Y-78500000D01*
X162500000Y-88975000D02*
X162500000Y-84500000D01*
X159590000Y-86030000D02*
X159590000Y-85590000D01*
X166500000Y-55200000D02*
X166800000Y-55500000D01*
X166980000Y-60180000D02*
X166600000Y-59800000D01*
X164820000Y-53085000D02*
X165075000Y-53085000D01*
X159800000Y-80500000D02*
X161500000Y-82200000D01*
X166990000Y-51490000D02*
X167500000Y-52000000D01*
X166980000Y-61000000D02*
X166980000Y-60180000D01*
X161500000Y-84000000D02*
X162000000Y-84000000D01*
X159590000Y-85590000D02*
X159500000Y-85500000D01*
X164000000Y-83000000D02*
X162500000Y-84500000D01*
X168101000Y-56999000D02*
X167400000Y-57700000D01*
X156095000Y-48905000D02*
X154000000Y-51000000D01*
X162000000Y-57500000D02*
X163400000Y-57500000D01*
X159590000Y-83590000D02*
X159500000Y-83500000D01*
X157000000Y-94500000D02*
X158040000Y-94500000D01*
X159590000Y-84060000D02*
X159590000Y-83590000D01*
X158700000Y-79300000D02*
X159500000Y-78500000D01*
X159300000Y-80500000D02*
X159800000Y-80500000D01*
X164000000Y-80500000D02*
X164000000Y-83000000D01*
X163750000Y-54000000D02*
X163905000Y-54000000D01*
X170000000Y-53580000D02*
X168101000Y-55479000D01*
X156850000Y-58175000D02*
X156850000Y-59450000D01*
X157250000Y-54000000D02*
X157095000Y-54000000D01*
X158040000Y-94500000D02*
X160040000Y-96500000D01*
X158000000Y-65992500D02*
X158000000Y-66500000D01*
X168101000Y-55479000D02*
X168101000Y-56748943D01*
X159590000Y-93910000D02*
X159590000Y-91940000D01*
X156850000Y-59450000D02*
X156500000Y-59800000D01*
X156912500Y-64905000D02*
X158000000Y-65992500D01*
X166500000Y-51490000D02*
X166990000Y-51490000D01*
X159449000Y-83449000D02*
X159500000Y-83500000D01*
X157095000Y-54000000D02*
X156180000Y-53085000D01*
X163400000Y-57500000D02*
X163700000Y-57800000D01*
X162000000Y-84000000D02*
X162500000Y-84500000D01*
X156180000Y-48905000D02*
X156095000Y-48905000D01*
X153400000Y-90900000D02*
X157000000Y-94500000D01*
%TO.N,+3V3*%
X160700000Y-68062500D02*
X161100000Y-68062500D01*
X158630000Y-86030000D02*
X158630000Y-88000000D01*
X165945000Y-61095000D02*
X166040000Y-61000000D01*
X165100000Y-68900000D02*
X165500000Y-68500000D01*
X166020000Y-61520000D02*
X166500000Y-62000000D01*
X163100000Y-68062500D02*
X163937500Y-68900000D01*
X158750000Y-58175000D02*
X158750000Y-59050000D01*
X158630000Y-88000000D02*
X158630000Y-89970000D01*
X167601000Y-63599000D02*
X167200000Y-64000000D01*
X162700000Y-68062500D02*
X163100000Y-68062500D01*
X154990000Y-66000000D02*
X154899000Y-65909000D01*
X163937500Y-72500000D02*
X167300000Y-72500000D01*
X160500000Y-78500000D02*
X160500000Y-76400000D01*
X168099000Y-60301000D02*
X168099000Y-62533900D01*
X158630000Y-84060000D02*
X159241000Y-84671000D01*
X163937500Y-68900000D02*
X165100000Y-68900000D01*
X156400000Y-68900000D02*
X156000000Y-68500000D01*
X167300000Y-72500000D02*
X167400000Y-72400000D01*
X160369000Y-84671000D02*
X160540000Y-84500000D01*
X158630000Y-84060000D02*
X158630000Y-86030000D01*
X158630000Y-89970000D02*
X158630000Y-93910000D01*
X160540000Y-84500000D02*
X160540000Y-86030000D01*
X160700000Y-66900000D02*
X160500000Y-66700000D01*
X157062500Y-68900000D02*
X156400000Y-68900000D01*
X168099000Y-62533900D02*
X167601000Y-63031900D01*
X160500000Y-76400000D02*
X160700000Y-76200000D01*
X154520000Y-55980000D02*
X155500000Y-55000000D01*
X160540000Y-88000000D02*
X160540000Y-88960000D01*
X154899000Y-59601000D02*
X155500000Y-59000000D01*
X164087500Y-61095000D02*
X165945000Y-61095000D01*
X160540000Y-84000000D02*
X160540000Y-84500000D01*
X160700000Y-68062500D02*
X160700000Y-66900000D01*
X160700000Y-76200000D02*
X160700000Y-74937500D01*
X158630000Y-89970000D02*
X158630000Y-91940000D01*
X154899000Y-65909000D02*
X154899000Y-59601000D01*
X160700000Y-68062500D02*
X160700000Y-67800000D01*
X158750000Y-59050000D02*
X158200000Y-59600000D01*
X163562500Y-67600000D02*
X165800000Y-67600000D01*
X163100000Y-68062500D02*
X163562500Y-67600000D01*
X169500000Y-58660000D02*
X169500000Y-58500000D01*
X157062500Y-72500000D02*
X154600000Y-72500000D01*
X166020000Y-61000000D02*
X166020000Y-61520000D01*
X167601000Y-63031900D02*
X167601000Y-63599000D01*
X159241000Y-84671000D02*
X160369000Y-84671000D01*
X154600000Y-72500000D02*
X154300000Y-72800000D01*
X169700000Y-58700000D02*
X168099000Y-60301000D01*
X154520000Y-56000000D02*
X154520000Y-55980000D01*
X160540000Y-86030000D02*
X160540000Y-88000000D01*
X158950000Y-58437500D02*
X159062500Y-58437500D01*
%TO.N,+1V1*%
X162300000Y-67500000D02*
X162600000Y-67200000D01*
X160540000Y-89970000D02*
X160540000Y-91940000D01*
X160540000Y-91940000D02*
X160540000Y-93910000D01*
X162600000Y-67200000D02*
X164300000Y-67200000D01*
X162300000Y-68062500D02*
X162300000Y-67500000D01*
X161100000Y-74937500D02*
X161100000Y-76100000D01*
X161100000Y-76100000D02*
X161500000Y-76500000D01*
X164900000Y-66600000D02*
X164900000Y-66500000D01*
X160540000Y-89960000D02*
X161500000Y-89000000D01*
X160300000Y-68900000D02*
X160200000Y-69000000D01*
X164300000Y-67200000D02*
X164900000Y-66600000D01*
X160300000Y-68062500D02*
X160300000Y-68900000D01*
X160540000Y-89970000D02*
X160540000Y-89960000D01*
%TO.N,Net-(C10-Pad2)*%
X161500000Y-89970000D02*
X161500000Y-91940000D01*
X161500000Y-91940000D02*
X161500000Y-93910000D01*
%TO.N,VBUS*%
X158000000Y-54050000D02*
X158050000Y-54000000D01*
X156034532Y-57611000D02*
X157345532Y-56300000D01*
X167581000Y-50919000D02*
X170000000Y-48500000D01*
X157345532Y-56300000D02*
X157800000Y-56300000D01*
X162950000Y-54925000D02*
X163525000Y-55500000D01*
X163525000Y-55500000D02*
X165500000Y-55500000D01*
X158050000Y-56050000D02*
X158050000Y-54000000D01*
X157800000Y-56300000D02*
X158050000Y-56050000D01*
X154520000Y-57000000D02*
X155131000Y-57611000D01*
X162950000Y-54000000D02*
X162950000Y-54925000D01*
X158050000Y-54000000D02*
X158050000Y-53155900D01*
X160286900Y-50919000D02*
X167581000Y-50919000D01*
X158050000Y-53155900D02*
X160286900Y-50919000D01*
X155131000Y-57611000D02*
X156034532Y-57611000D01*
%TO.N,XIN*%
X161500000Y-80500000D02*
X163040000Y-80500000D01*
X159900000Y-78900000D02*
X161500000Y-80500000D01*
X159900000Y-74937500D02*
X159900000Y-78900000D01*
%TO.N,Net-(C16-Pad2)*%
X157480000Y-80030000D02*
X157510000Y-80000000D01*
X159300000Y-82200000D02*
X157680000Y-82200000D01*
X157480000Y-82000000D02*
X157480000Y-80030000D01*
X157680000Y-82200000D02*
X157480000Y-82000000D01*
%TO.N,LED_DECORATION*%
X163000000Y-71000000D02*
X163302226Y-71000000D01*
X165485000Y-87010000D02*
X165485000Y-84985000D01*
X163402226Y-70900000D02*
X163937500Y-70900000D01*
X165485000Y-84985000D02*
X165000000Y-84500000D01*
X163302226Y-71000000D02*
X163402226Y-70900000D01*
%TO.N,Net-(D1-K)*%
X164515000Y-87010000D02*
X164515000Y-88030000D01*
X164515000Y-88030000D02*
X165485000Y-89000000D01*
%TO.N,Net-(D2-K)*%
X164515000Y-90020000D02*
X165485000Y-90990000D01*
X164515000Y-89000000D02*
X164515000Y-90020000D01*
%TO.N,USB_D+*%
X159750000Y-59460000D02*
X159890000Y-59600000D01*
X160500000Y-52536000D02*
X160750000Y-52786000D01*
X159750000Y-54000000D02*
X159750000Y-59460000D01*
X160750000Y-52786000D02*
X160750000Y-54000000D01*
X159750000Y-53157200D02*
X160371200Y-52536000D01*
X159750000Y-54000000D02*
X159750000Y-53157200D01*
X160371200Y-52536000D02*
X160500000Y-52536000D01*
%TO.N,Net-(J1-CC2)*%
X165621000Y-52611000D02*
X165621000Y-51721000D01*
X166500000Y-53490000D02*
X165621000Y-52611000D01*
X158750000Y-53023000D02*
X158750000Y-54000000D01*
X165621000Y-51721000D02*
X165500000Y-51600000D01*
X160173000Y-51600000D02*
X158750000Y-53023000D01*
X165500000Y-51600000D02*
X160173000Y-51600000D01*
%TO.N,USB_D-*%
X160250000Y-54000000D02*
X160250000Y-55250000D01*
X162000000Y-65500000D02*
X162000000Y-66480000D01*
X161250000Y-54977000D02*
X161250000Y-54000000D01*
X161250000Y-54000000D02*
X161250000Y-55750000D01*
X162000000Y-66480000D02*
X161980000Y-66500000D01*
X160500000Y-55500000D02*
X160727000Y-55500000D01*
X160250000Y-55250000D02*
X160500000Y-55500000D01*
X161250000Y-55750000D02*
X161000000Y-56000000D01*
X160727000Y-55500000D02*
X161250000Y-54977000D01*
%TO.N,Net-(J1-CC1)*%
X161750000Y-55250000D02*
X163000000Y-56500000D01*
X167500000Y-53510000D02*
X166500000Y-52510000D01*
X167500000Y-56500000D02*
X167500000Y-53510000D01*
X161750000Y-54000000D02*
X161750000Y-55250000D01*
%TO.N,GPIO6*%
X154380000Y-71700000D02*
X151600000Y-68920000D01*
X151600000Y-68880000D02*
X151600000Y-68860000D01*
X157062500Y-71700000D02*
X154380000Y-71700000D01*
%TO.N,GPIO10*%
X157062500Y-73700000D02*
X156300000Y-73700000D01*
X153000000Y-80980000D02*
X152420000Y-81560000D01*
X152420000Y-81560000D02*
X151600000Y-81560000D01*
X156300000Y-73700000D02*
X153000000Y-77000000D01*
X153000000Y-77000000D02*
X153000000Y-80980000D01*
%TO.N,GPIO1*%
X154899000Y-59000000D02*
X154899000Y-58399000D01*
X153939000Y-57439000D02*
X153939000Y-53419000D01*
X154498000Y-65222000D02*
X154498000Y-59401000D01*
X154320000Y-67500000D02*
X154320000Y-65400000D01*
X157062500Y-69700000D02*
X156200000Y-69700000D01*
X154320000Y-65400000D02*
X154498000Y-65222000D01*
X156200000Y-69700000D02*
X155316450Y-68816450D01*
X154899000Y-58399000D02*
X153939000Y-57439000D01*
X155316450Y-68816450D02*
X155316450Y-67883550D01*
X154498000Y-59401000D02*
X154899000Y-59000000D01*
X154441000Y-67621000D02*
X154320000Y-67500000D01*
X153939000Y-53419000D02*
X151600000Y-51080000D01*
X155053900Y-67621000D02*
X154441000Y-67621000D01*
X155316450Y-67883550D02*
X155053900Y-67621000D01*
%TO.N,GPIO0*%
X158000000Y-69500000D02*
X158000000Y-70500000D01*
X157062500Y-69300000D02*
X157800000Y-69300000D01*
X157800000Y-69300000D02*
X158000000Y-69500000D01*
%TO.N,GPIO11*%
X153401000Y-77761500D02*
X153401000Y-82299000D01*
X157062500Y-74100000D02*
X153401000Y-77761500D01*
X153401000Y-82299000D02*
X151600000Y-84100000D01*
%TO.N,GPIO9*%
X152400000Y-75500000D02*
X151500000Y-76400000D01*
X155700000Y-73300000D02*
X153500000Y-75500000D01*
X157062500Y-73300000D02*
X155700000Y-73300000D01*
X153500000Y-75500000D02*
X152400000Y-75500000D01*
%TO.N,GPIO13*%
X158300000Y-75700000D02*
X158000000Y-76000000D01*
X158300000Y-74937500D02*
X158300000Y-75700000D01*
%TO.N,GPIO8*%
X152500000Y-74900000D02*
X151600000Y-74000000D01*
X157062500Y-72900000D02*
X155500000Y-72900000D01*
X155500000Y-72900000D02*
X153500000Y-74900000D01*
X153500000Y-74900000D02*
X152500000Y-74900000D01*
%TO.N,GPIO15*%
X159100000Y-74937500D02*
X159100000Y-74400000D01*
X159100000Y-74400000D02*
X159500000Y-74000000D01*
%TO.N,GPIO4*%
X155700000Y-70900000D02*
X154100000Y-69300000D01*
X153162800Y-64800000D02*
X153295000Y-64667800D01*
X153052000Y-64800000D02*
X153162800Y-64800000D01*
X157062500Y-70900000D02*
X155700000Y-70900000D01*
X153295000Y-62935000D02*
X151600000Y-61240000D01*
X154100000Y-69300000D02*
X154100000Y-68824000D01*
X153808800Y-68824000D02*
X153052000Y-68067200D01*
X153052000Y-68067200D02*
X153052000Y-64800000D01*
X153295000Y-64667800D02*
X153295000Y-62935000D01*
X154100000Y-68824000D02*
X153808800Y-68824000D01*
%TO.N,GPIO3*%
X153696000Y-60796000D02*
X151600000Y-58700000D01*
X154400000Y-68423000D02*
X153974900Y-68423000D01*
X157062500Y-70500000D02*
X155865800Y-70500000D01*
X153974900Y-68423000D02*
X153453000Y-67901100D01*
X154514450Y-68537450D02*
X154400000Y-68423000D01*
X154514450Y-69148650D02*
X154514450Y-68537450D01*
X155865800Y-70500000D02*
X154514450Y-69148650D01*
X153696000Y-64833900D02*
X153696000Y-60796000D01*
X153453000Y-65076900D02*
X153696000Y-64833900D01*
X153453000Y-67901100D02*
X153453000Y-65076900D01*
%TO.N,GPIO7*%
X152300000Y-72100000D02*
X151600000Y-71400000D01*
X157062500Y-72100000D02*
X152300000Y-72100000D01*
%TO.N,GPIO2*%
X154498000Y-58565100D02*
X154498000Y-58800000D01*
X154262900Y-58330000D02*
X154498000Y-58565100D01*
X154097000Y-59201000D02*
X154097000Y-65000000D01*
X151600000Y-56160000D02*
X153770000Y-58330000D01*
X153919000Y-65178000D02*
X153919000Y-67800000D01*
X154915450Y-68982550D02*
X156032900Y-70100000D01*
X154498000Y-58800000D02*
X154097000Y-59201000D01*
X156032900Y-70100000D02*
X157062500Y-70100000D01*
X154097000Y-65000000D02*
X153919000Y-65178000D01*
X153770000Y-58330000D02*
X154262900Y-58330000D01*
X153919000Y-67800000D02*
X154141000Y-68022000D01*
X154915450Y-68049650D02*
X154915450Y-68982550D01*
X154887800Y-68022000D02*
X154915450Y-68049650D01*
X154141000Y-68022000D02*
X154887800Y-68022000D01*
%TO.N,GPIO5*%
X157062500Y-71300000D02*
X155000000Y-71300000D01*
X155000000Y-71300000D02*
X154100000Y-70400000D01*
%TO.N,GPIO12*%
X157900000Y-74100000D02*
X158000000Y-74000000D01*
X157900000Y-74937500D02*
X157900000Y-74100000D01*
%TO.N,GPIO14*%
X158700000Y-73700000D02*
X158000000Y-73000000D01*
X158700000Y-74937500D02*
X158700000Y-73700000D01*
%TO.N,GPIO21*%
X163937500Y-72900000D02*
X163100000Y-72900000D01*
X163100000Y-72900000D02*
X163000000Y-73000000D01*
%TO.N,GPIO18*%
X167500000Y-76500000D02*
X167500000Y-86640000D01*
X163937500Y-74100000D02*
X165100000Y-74100000D01*
X167500000Y-86640000D02*
X170000000Y-89140000D01*
X165100000Y-74100000D02*
X167500000Y-76500000D01*
%TO.N,GPIO16*%
X162700000Y-74937500D02*
X162700000Y-75700000D01*
X167989000Y-88457100D02*
X167989000Y-94749000D01*
X166698000Y-87166100D02*
X167989000Y-88457100D01*
X167989000Y-94749000D02*
X170000000Y-96760000D01*
X166698000Y-79698000D02*
X166698000Y-87166100D01*
X162700000Y-75700000D02*
X166698000Y-79698000D01*
%TO.N,GPIO27_ADC1*%
X163937500Y-70100000D02*
X166900000Y-70100000D01*
X167333900Y-70099000D02*
X168099000Y-69333900D01*
X168099000Y-69333900D02*
X168099000Y-63101000D01*
X166901000Y-70099000D02*
X167333900Y-70099000D01*
X166900000Y-70100000D02*
X166901000Y-70099000D01*
X168099000Y-63101000D02*
X170000000Y-61200000D01*
%TO.N,GPIO20*%
X163937500Y-73300000D02*
X166300000Y-73300000D01*
X168500000Y-82560000D02*
X170000000Y-84060000D01*
X168500000Y-75500000D02*
X168500000Y-82560000D01*
X166300000Y-73300000D02*
X168500000Y-75500000D01*
%TO.N,GPIO28_ADC2*%
X166500000Y-63700000D02*
X166500000Y-69200000D01*
X167698000Y-58422000D02*
X167698000Y-61402000D01*
X167200000Y-61900000D02*
X167200000Y-63000000D01*
X170000000Y-56120000D02*
X167698000Y-58422000D01*
X166000000Y-69700000D02*
X163937500Y-69700000D01*
X166500000Y-69200000D02*
X166000000Y-69700000D01*
X167698000Y-61402000D02*
X167200000Y-61900000D01*
X167200000Y-63000000D02*
X166500000Y-63700000D01*
%TO.N,GPIO26_ADC0*%
X168500000Y-65240000D02*
X170000000Y-63740000D01*
X167500000Y-70500000D02*
X168500000Y-69500000D01*
X163937500Y-70500000D02*
X167500000Y-70500000D01*
X168500000Y-69500000D02*
X168500000Y-65240000D01*
%TO.N,GPIO23*%
X163937500Y-71700000D02*
X167700000Y-71700000D01*
X167700000Y-71700000D02*
X168000000Y-72000000D01*
X168640000Y-71360000D02*
X170000000Y-71360000D01*
X168000000Y-72000000D02*
X168640000Y-71360000D01*
%TO.N,GPIO29_ADC3*%
X163937500Y-69300000D02*
X163200000Y-69300000D01*
X163200000Y-69300000D02*
X163000000Y-69500000D01*
%TO.N,GPIO22*%
X163937500Y-72100000D02*
X163100000Y-72100000D01*
%TO.N,GPIO19*%
X169000000Y-87500000D02*
X169100000Y-87500000D01*
X168000000Y-86500000D02*
X169000000Y-87500000D01*
X168000000Y-76000000D02*
X168000000Y-86500000D01*
X163937500Y-73700000D02*
X165700000Y-73700000D01*
X165700000Y-73700000D02*
X168000000Y-76000000D01*
X169100000Y-87500000D02*
X170000000Y-86600000D01*
%TO.N,GPIO17*%
X163100000Y-74937500D02*
X167099000Y-78936500D01*
X168390000Y-88291000D02*
X168390000Y-92610000D01*
X168390000Y-92610000D02*
X170000000Y-94220000D01*
X167099000Y-78936500D02*
X167099000Y-87000000D01*
X167099000Y-87000000D02*
X168390000Y-88291000D01*
%TO.N,GPIO24*%
X167700000Y-71300000D02*
X168000000Y-71000000D01*
X168000000Y-70820000D02*
X170000000Y-68820000D01*
X163937500Y-71300000D02*
X167700000Y-71300000D01*
X168000000Y-71000000D02*
X168000000Y-70820000D01*
%TO.N,SWCLK*%
X167500000Y-95000000D02*
X165500000Y-97000000D01*
X166081000Y-80081000D02*
X166081000Y-87116200D01*
X167500000Y-88711200D02*
X167500000Y-95000000D01*
X161500000Y-74937500D02*
X161500000Y-75500000D01*
X163080000Y-97000000D02*
X162580000Y-96500000D01*
X167588000Y-88623200D02*
X167500000Y-88711200D01*
X166081000Y-87116200D02*
X167588000Y-88623200D01*
X161500000Y-75500000D02*
X166081000Y-80081000D01*
X165500000Y-97000000D02*
X163080000Y-97000000D01*
%TO.N,SWD*%
X161900000Y-74937500D02*
X161900000Y-74400000D01*
X161900000Y-74400000D02*
X161500000Y-74000000D01*
%TO.N,Net-(U1-USB_DP)*%
X161297992Y-68980310D02*
X161380308Y-68980310D01*
X161500000Y-68950057D02*
X161500000Y-68062500D01*
X161380308Y-68980310D02*
X161399998Y-69000000D01*
X160910000Y-62210000D02*
X160910000Y-59600000D01*
X161450057Y-69000000D02*
X161500000Y-68950057D01*
X161600000Y-62900000D02*
X160910000Y-62210000D01*
X161399998Y-69000000D02*
X161450057Y-69000000D01*
%TO.N,Net-(U1-USB_DM)*%
X161900000Y-68805132D02*
X161900000Y-68062500D01*
X163020000Y-66400000D02*
X163600000Y-66400000D01*
X162097677Y-69002809D02*
X161900000Y-68805132D01*
X163600000Y-66400000D02*
X164000000Y-66000000D01*
%TO.N,XOUT*%
X160300000Y-74200000D02*
X160500000Y-74000000D01*
X156500000Y-79000000D02*
X156500000Y-79990000D01*
X160300000Y-74937500D02*
X160300000Y-74200000D01*
X156500000Y-79990000D02*
X156490000Y-80000000D01*
%TO.N,QSPI_SS*%
X156010000Y-66000000D02*
X155505000Y-65495000D01*
X156100001Y-61095000D02*
X156912500Y-61095000D01*
X155000000Y-67000000D02*
X155750000Y-67750000D01*
X155750000Y-67750000D02*
X156750000Y-67750000D01*
X157863500Y-68099000D02*
X157900000Y-68062500D01*
X155505000Y-61690002D02*
X156100001Y-61095000D01*
X157099000Y-68099000D02*
X157863500Y-68099000D01*
X156000000Y-66000000D02*
X155000000Y-67000000D01*
X155505000Y-65495000D02*
X155505000Y-61690002D01*
X156010000Y-66000000D02*
X156000000Y-66000000D01*
X156750000Y-67750000D02*
X157099000Y-68099000D01*
X156020000Y-66010000D02*
X156010000Y-66000000D01*
%TO.N,Net-(R6-Pad1)*%
X156020000Y-67000000D02*
X156900000Y-66120000D01*
X166200000Y-57500000D02*
X162500000Y-61200000D01*
X162500000Y-61200000D02*
X162500000Y-61500000D01*
X156020000Y-67000000D02*
X156200000Y-67000000D01*
X156900000Y-66120000D02*
X156900000Y-66000000D01*
%TO.N,QSPI_SD2*%
X156912500Y-63635000D02*
X157635000Y-63635000D01*
X158700000Y-68062500D02*
X158700000Y-67500000D01*
X157000000Y-67300000D02*
X156900000Y-67200000D01*
X157635000Y-63635000D02*
X158200000Y-64200000D01*
X156900000Y-67200000D02*
X156900000Y-67100000D01*
X158700000Y-67500000D02*
X158500000Y-67300000D01*
X158500000Y-67300000D02*
X157000000Y-67300000D01*
%TO.N,QSPI_SCLK*%
X160065000Y-63635000D02*
X164087500Y-63635000D01*
X163952500Y-63500000D02*
X164087500Y-63635000D01*
X159500000Y-64200000D02*
X160065000Y-63635000D01*
X159500000Y-68062500D02*
X159500000Y-64200000D01*
%TO.N,QSPI_SD3*%
X159900000Y-68062500D02*
X159900000Y-65000000D01*
X167400000Y-65500000D02*
X167300000Y-65400000D01*
X164722500Y-63000000D02*
X164087500Y-62365000D01*
X167400000Y-67200000D02*
X167400000Y-65500000D01*
X159900000Y-65000000D02*
X160100000Y-64800000D01*
X165500000Y-63000000D02*
X164722500Y-63000000D01*
%TO.N,QSPI_SD0*%
X159100000Y-65100000D02*
X159100000Y-63600000D01*
X159100000Y-63600000D02*
X159500000Y-63200000D01*
X159100000Y-65100000D02*
X159100000Y-64900000D01*
X162200000Y-64500000D02*
X162000000Y-64300000D01*
X159100000Y-68062500D02*
X159100000Y-65100000D01*
X162605000Y-64905000D02*
X162200000Y-64500000D01*
X164087500Y-64905000D02*
X162605000Y-64905000D01*
X159500000Y-63200000D02*
X159700000Y-63000000D01*
%TO.N,QSPI_SD1*%
X158500000Y-62500000D02*
X157047500Y-62500000D01*
X158300000Y-68800000D02*
X158500000Y-69000000D01*
X157047500Y-62500000D02*
X156912500Y-62365000D01*
X158300000Y-68062500D02*
X158300000Y-68800000D01*
%TD*%
%TA.AperFunction,Conductor*%
%TO.N,+1V1*%
G36*
X165895682Y-87801329D02*
G01*
X165948090Y-87832525D01*
X166863181Y-88747616D01*
X166896666Y-88808939D01*
X166899500Y-88835297D01*
X166899500Y-94699903D01*
X166879815Y-94766942D01*
X166863181Y-94787584D01*
X165287584Y-96363181D01*
X165226261Y-96396666D01*
X165199903Y-96399500D01*
X164037322Y-96399500D01*
X163970283Y-96379815D01*
X163924528Y-96327011D01*
X163914849Y-96294898D01*
X163897246Y-96183759D01*
X163897246Y-96183757D01*
X163831557Y-95981588D01*
X163735051Y-95792184D01*
X163735049Y-95792181D01*
X163735048Y-95792179D01*
X163610109Y-95620213D01*
X163459786Y-95469890D01*
X163287820Y-95344951D01*
X163098414Y-95248444D01*
X163098413Y-95248443D01*
X163098412Y-95248443D01*
X162896243Y-95182754D01*
X162896241Y-95182753D01*
X162896240Y-95182753D01*
X162729378Y-95156325D01*
X162686287Y-95149500D01*
X162473713Y-95149500D01*
X162430622Y-95156325D01*
X162263760Y-95182753D01*
X162061585Y-95248444D01*
X161872179Y-95344951D01*
X161700213Y-95469890D01*
X161549890Y-95620213D01*
X161424949Y-95792182D01*
X161420484Y-95800946D01*
X161372509Y-95851742D01*
X161304688Y-95868536D01*
X161238553Y-95845998D01*
X161199516Y-95800946D01*
X161195050Y-95792182D01*
X161070109Y-95620213D01*
X160919786Y-95469890D01*
X160747820Y-95344951D01*
X160558414Y-95248444D01*
X160558413Y-95248443D01*
X160558412Y-95248443D01*
X160356243Y-95182754D01*
X160356241Y-95182753D01*
X160356240Y-95182753D01*
X160189378Y-95156325D01*
X160146287Y-95149500D01*
X159933713Y-95149500D01*
X159905006Y-95154046D01*
X159723757Y-95182753D01*
X159681473Y-95196492D01*
X159611632Y-95198486D01*
X159555476Y-95166241D01*
X159321416Y-94932181D01*
X159287931Y-94870858D01*
X159292915Y-94801166D01*
X159334787Y-94745233D01*
X159400251Y-94720816D01*
X159409097Y-94720500D01*
X159794682Y-94720500D01*
X159794690Y-94720500D01*
X159830993Y-94717643D01*
X159830995Y-94717642D01*
X159830997Y-94717642D01*
X159871975Y-94705736D01*
X159986395Y-94672494D01*
X160002366Y-94663048D01*
X160070087Y-94645863D01*
X160128613Y-94663047D01*
X160143803Y-94672031D01*
X160290000Y-94714504D01*
X160290000Y-94425261D01*
X160307267Y-94362142D01*
X160322494Y-94336395D01*
X160367643Y-94180993D01*
X160370500Y-94144690D01*
X160370500Y-93675310D01*
X160367643Y-93639007D01*
X160322494Y-93483605D01*
X160307266Y-93457857D01*
X160290000Y-93394738D01*
X160290000Y-93105494D01*
X160240453Y-93068293D01*
X160241606Y-93066756D01*
X160233297Y-93062962D01*
X160228255Y-93055117D01*
X160220433Y-93050042D01*
X160209667Y-93026193D01*
X160195523Y-93004184D01*
X160193555Y-92990502D01*
X160191686Y-92986360D01*
X160190500Y-92969249D01*
X160190500Y-92880749D01*
X160210185Y-92813710D01*
X160243080Y-92785205D01*
X160240453Y-92781706D01*
X160290000Y-92744504D01*
X160290000Y-92455261D01*
X160307267Y-92392142D01*
X160322494Y-92366395D01*
X160367643Y-92210993D01*
X160370500Y-92174690D01*
X160370500Y-91705310D01*
X160367643Y-91669007D01*
X160322494Y-91513605D01*
X160307266Y-91487857D01*
X160290000Y-91424738D01*
X160290000Y-91135494D01*
X160240453Y-91098293D01*
X160241606Y-91096756D01*
X160233297Y-91092962D01*
X160228255Y-91085117D01*
X160220433Y-91080042D01*
X160209667Y-91056193D01*
X160195523Y-91034184D01*
X160193555Y-91020502D01*
X160191686Y-91016360D01*
X160190500Y-90999249D01*
X160190500Y-90910749D01*
X160210185Y-90843710D01*
X160243080Y-90815205D01*
X160240453Y-90811706D01*
X160290000Y-90774504D01*
X160290000Y-90485261D01*
X160307267Y-90422142D01*
X160322494Y-90396395D01*
X160322885Y-90395051D01*
X160367642Y-90240997D01*
X160367643Y-90240991D01*
X160370499Y-90204697D01*
X160370500Y-90204690D01*
X160370500Y-90094000D01*
X160373050Y-90085314D01*
X160371762Y-90076353D01*
X160382740Y-90052312D01*
X160390185Y-90026961D01*
X160397025Y-90021033D01*
X160400787Y-90012797D01*
X160423021Y-89998507D01*
X160442989Y-89981206D01*
X160453503Y-89978918D01*
X160459565Y-89975023D01*
X160494500Y-89970000D01*
X160595500Y-89970000D01*
X160662539Y-89989685D01*
X160708294Y-90042489D01*
X160719500Y-90094000D01*
X160719500Y-90204697D01*
X160722356Y-90240991D01*
X160722357Y-90240997D01*
X160767503Y-90396389D01*
X160767505Y-90396393D01*
X160767506Y-90396395D01*
X160772732Y-90405233D01*
X160790000Y-90468352D01*
X160790000Y-90774504D01*
X160809256Y-90788962D01*
X160810771Y-90788967D01*
X160832819Y-90803224D01*
X160856703Y-90814132D01*
X160861692Y-90821895D01*
X160869442Y-90826907D01*
X160880281Y-90850821D01*
X160894477Y-90872910D01*
X160896420Y-90886427D01*
X160898287Y-90890545D01*
X160899500Y-90907845D01*
X160899500Y-91002153D01*
X160879815Y-91069192D01*
X160827011Y-91114947D01*
X160815082Y-91116662D01*
X160790000Y-91135494D01*
X160790000Y-91441645D01*
X160772734Y-91504763D01*
X160767507Y-91513600D01*
X160767504Y-91513608D01*
X160722357Y-91669002D01*
X160722356Y-91669008D01*
X160719500Y-91705302D01*
X160719500Y-92174697D01*
X160722356Y-92210991D01*
X160722357Y-92210997D01*
X160767503Y-92366389D01*
X160767505Y-92366393D01*
X160767506Y-92366395D01*
X160772732Y-92375233D01*
X160790000Y-92438352D01*
X160790000Y-92744504D01*
X160809256Y-92758962D01*
X160810771Y-92758967D01*
X160832819Y-92773224D01*
X160856703Y-92784132D01*
X160861692Y-92791895D01*
X160869442Y-92796907D01*
X160880281Y-92820821D01*
X160894477Y-92842910D01*
X160896420Y-92856427D01*
X160898287Y-92860545D01*
X160899500Y-92877845D01*
X160899500Y-92972153D01*
X160879815Y-93039192D01*
X160827011Y-93084947D01*
X160815082Y-93086662D01*
X160790000Y-93105494D01*
X160790000Y-93411645D01*
X160772734Y-93474763D01*
X160767507Y-93483600D01*
X160767504Y-93483608D01*
X160722357Y-93639002D01*
X160722356Y-93639008D01*
X160719500Y-93675302D01*
X160719500Y-94144697D01*
X160722356Y-94180991D01*
X160722357Y-94180997D01*
X160767503Y-94336389D01*
X160767505Y-94336393D01*
X160767506Y-94336395D01*
X160772732Y-94345233D01*
X160790000Y-94408352D01*
X160790000Y-94714503D01*
X160936194Y-94672032D01*
X160956384Y-94660091D01*
X161024108Y-94642906D01*
X161082629Y-94660089D01*
X161103605Y-94672494D01*
X161144587Y-94684400D01*
X161259002Y-94717642D01*
X161259005Y-94717642D01*
X161259007Y-94717643D01*
X161295310Y-94720500D01*
X161295318Y-94720500D01*
X161704682Y-94720500D01*
X161704690Y-94720500D01*
X161740993Y-94717643D01*
X161740995Y-94717642D01*
X161740997Y-94717642D01*
X161781975Y-94705736D01*
X161896395Y-94672494D01*
X162035687Y-94590117D01*
X162150117Y-94475687D01*
X162232494Y-94336395D01*
X162277643Y-94180993D01*
X162280500Y-94144690D01*
X162280500Y-93675310D01*
X162277643Y-93639007D01*
X162232494Y-93483605D01*
X162150117Y-93344313D01*
X162150115Y-93344311D01*
X162150112Y-93344307D01*
X162136819Y-93331014D01*
X162103334Y-93269691D01*
X162100500Y-93243333D01*
X162100500Y-92606666D01*
X162120185Y-92539627D01*
X162136816Y-92518987D01*
X162150117Y-92505687D01*
X162232494Y-92366395D01*
X162277643Y-92210993D01*
X162280500Y-92174690D01*
X162280500Y-91705310D01*
X162277643Y-91669007D01*
X162232494Y-91513605D01*
X162150117Y-91374313D01*
X162150115Y-91374311D01*
X162150112Y-91374307D01*
X162136819Y-91361014D01*
X162103334Y-91299691D01*
X162100500Y-91273333D01*
X162100500Y-90636666D01*
X162120185Y-90569627D01*
X162136816Y-90548987D01*
X162150117Y-90535687D01*
X162232494Y-90396395D01*
X162277643Y-90240993D01*
X162280500Y-90204690D01*
X162280500Y-89904097D01*
X162300185Y-89837058D01*
X162352989Y-89791303D01*
X162422147Y-89781359D01*
X162485703Y-89810384D01*
X162492181Y-89816416D01*
X163683181Y-91007416D01*
X163716666Y-91068739D01*
X163719500Y-91095097D01*
X163719500Y-91227947D01*
X163722390Y-91264673D01*
X163722391Y-91264679D01*
X163768066Y-91421892D01*
X163768068Y-91421895D01*
X163851408Y-91562817D01*
X163851414Y-91562825D01*
X163967174Y-91678585D01*
X163967178Y-91678588D01*
X163967180Y-91678590D01*
X164108103Y-91761931D01*
X164108104Y-91761931D01*
X164108107Y-91761933D01*
X164265320Y-91807608D01*
X164265323Y-91807608D01*
X164265325Y-91807609D01*
X164302060Y-91810500D01*
X164302068Y-91810500D01*
X164727932Y-91810500D01*
X164727940Y-91810500D01*
X164764675Y-91807609D01*
X164764677Y-91807608D01*
X164764679Y-91807608D01*
X164921892Y-91761933D01*
X164921892Y-91761932D01*
X164921897Y-91761931D01*
X164936879Y-91753070D01*
X165004601Y-91735887D01*
X165063120Y-91753070D01*
X165078103Y-91761931D01*
X165078105Y-91761931D01*
X165078106Y-91761932D01*
X165078107Y-91761933D01*
X165235320Y-91807608D01*
X165235323Y-91807608D01*
X165235325Y-91807609D01*
X165272060Y-91810500D01*
X165272068Y-91810500D01*
X165697932Y-91810500D01*
X165697940Y-91810500D01*
X165734675Y-91807609D01*
X165734677Y-91807608D01*
X165734679Y-91807608D01*
X165891892Y-91761933D01*
X165891893Y-91761932D01*
X165891897Y-91761931D01*
X166032820Y-91678590D01*
X166148590Y-91562820D01*
X166231931Y-91421897D01*
X166231932Y-91421893D01*
X166231933Y-91421892D01*
X166277608Y-91264679D01*
X166277609Y-91264673D01*
X166280499Y-91227947D01*
X166280500Y-91227940D01*
X166280500Y-90752060D01*
X166277609Y-90715325D01*
X166269574Y-90687668D01*
X166231933Y-90558107D01*
X166231931Y-90558104D01*
X166231931Y-90558103D01*
X166148590Y-90417180D01*
X166148588Y-90417178D01*
X166148585Y-90417174D01*
X166032825Y-90301414D01*
X166032817Y-90301408D01*
X165891895Y-90218068D01*
X165891892Y-90218066D01*
X165734679Y-90172391D01*
X165734673Y-90172390D01*
X165697947Y-90169500D01*
X165697940Y-90169500D01*
X165565097Y-90169500D01*
X165535656Y-90160855D01*
X165505670Y-90154332D01*
X165500654Y-90150577D01*
X165498058Y-90149815D01*
X165477416Y-90133181D01*
X165376416Y-90032181D01*
X165342931Y-89970858D01*
X165347915Y-89901166D01*
X165389787Y-89845233D01*
X165455251Y-89820816D01*
X165464097Y-89820500D01*
X165697932Y-89820500D01*
X165697940Y-89820500D01*
X165734675Y-89817609D01*
X165734677Y-89817608D01*
X165734679Y-89817608D01*
X165891892Y-89771933D01*
X165891893Y-89771932D01*
X165891897Y-89771931D01*
X166032820Y-89688590D01*
X166148590Y-89572820D01*
X166231931Y-89431897D01*
X166231932Y-89431893D01*
X166231933Y-89431892D01*
X166277608Y-89274679D01*
X166277609Y-89274673D01*
X166280499Y-89237947D01*
X166280500Y-89237940D01*
X166280500Y-88762060D01*
X166277609Y-88725325D01*
X166277608Y-88725320D01*
X166231933Y-88568107D01*
X166231931Y-88568104D01*
X166231931Y-88568103D01*
X166148590Y-88427180D01*
X166148588Y-88427178D01*
X166148585Y-88427174D01*
X166032825Y-88311414D01*
X166032817Y-88311408D01*
X165948908Y-88261785D01*
X165891897Y-88228069D01*
X165891896Y-88228068D01*
X165891895Y-88228068D01*
X165891892Y-88228066D01*
X165734679Y-88182391D01*
X165734673Y-88182390D01*
X165697947Y-88179500D01*
X165697940Y-88179500D01*
X165565097Y-88179500D01*
X165535656Y-88170855D01*
X165505670Y-88164332D01*
X165500654Y-88160577D01*
X165498058Y-88159815D01*
X165477416Y-88143181D01*
X165376416Y-88042181D01*
X165342931Y-87980858D01*
X165347915Y-87911166D01*
X165389787Y-87855233D01*
X165455251Y-87830816D01*
X165464097Y-87830500D01*
X165697932Y-87830500D01*
X165697940Y-87830500D01*
X165734675Y-87827609D01*
X165825814Y-87801130D01*
X165895682Y-87801329D01*
G37*
%TD.AperFunction*%
%TA.AperFunction,Conductor*%
G36*
X161440829Y-76302625D02*
G01*
X161479697Y-76328932D01*
X165444181Y-80293416D01*
X165477666Y-80354739D01*
X165480500Y-80381097D01*
X165480500Y-83646995D01*
X165460815Y-83714034D01*
X165408011Y-83759789D01*
X165338853Y-83769733D01*
X165309048Y-83761557D01*
X165308335Y-83761261D01*
X165233497Y-83730263D01*
X165233492Y-83730262D01*
X165233489Y-83730261D01*
X165078845Y-83699500D01*
X165078842Y-83699500D01*
X164921158Y-83699500D01*
X164921155Y-83699500D01*
X164766510Y-83730261D01*
X164766498Y-83730264D01*
X164620827Y-83790602D01*
X164620814Y-83790609D01*
X164489711Y-83878210D01*
X164489707Y-83878213D01*
X164378213Y-83989707D01*
X164378210Y-83989711D01*
X164290609Y-84120814D01*
X164290602Y-84120827D01*
X164230264Y-84266498D01*
X164230261Y-84266510D01*
X164199500Y-84421153D01*
X164199500Y-84578846D01*
X164230261Y-84733489D01*
X164230264Y-84733501D01*
X164290602Y-84879172D01*
X164290609Y-84879185D01*
X164378210Y-85010288D01*
X164378213Y-85010292D01*
X164489707Y-85121786D01*
X164489711Y-85121789D01*
X164620814Y-85209390D01*
X164620827Y-85209397D01*
X164661935Y-85226424D01*
X164766503Y-85269737D01*
X164784691Y-85273354D01*
X164846601Y-85305739D01*
X164881176Y-85366454D01*
X164884500Y-85394972D01*
X164884500Y-86067678D01*
X164864815Y-86134717D01*
X164812011Y-86180472D01*
X164750776Y-86191296D01*
X164727957Y-86189500D01*
X164727940Y-86189500D01*
X164302060Y-86189500D01*
X164302052Y-86189500D01*
X164265326Y-86192390D01*
X164265320Y-86192391D01*
X164108107Y-86238066D01*
X164108104Y-86238068D01*
X163967182Y-86321408D01*
X163967174Y-86321414D01*
X163851414Y-86437174D01*
X163851408Y-86437182D01*
X163768068Y-86578104D01*
X163768066Y-86578107D01*
X163722391Y-86735320D01*
X163722390Y-86735326D01*
X163719500Y-86772052D01*
X163719500Y-87247947D01*
X163722390Y-87284673D01*
X163722391Y-87284679D01*
X163768066Y-87441892D01*
X163768068Y-87441895D01*
X163849615Y-87579786D01*
X163851410Y-87582820D01*
X163878181Y-87609591D01*
X163892887Y-87636523D01*
X163909477Y-87662337D01*
X163910368Y-87668535D01*
X163911666Y-87670912D01*
X163914500Y-87697272D01*
X163914500Y-87943330D01*
X163914499Y-87943348D01*
X163914499Y-88109056D01*
X163949865Y-88241044D01*
X163948202Y-88310893D01*
X163917771Y-88360818D01*
X163851414Y-88427174D01*
X163851408Y-88427182D01*
X163768068Y-88568104D01*
X163768066Y-88568107D01*
X163722391Y-88725320D01*
X163722390Y-88725326D01*
X163719500Y-88762052D01*
X163719500Y-89045903D01*
X163699815Y-89112942D01*
X163647011Y-89158697D01*
X163577853Y-89168641D01*
X163514297Y-89139616D01*
X163507819Y-89133584D01*
X163136819Y-88762584D01*
X163103334Y-88701261D01*
X163100500Y-88674903D01*
X163100500Y-85079765D01*
X163120185Y-85012726D01*
X163121398Y-85010874D01*
X163209390Y-84879185D01*
X163209390Y-84879184D01*
X163209394Y-84879179D01*
X163269737Y-84733497D01*
X163291182Y-84625687D01*
X163300638Y-84578150D01*
X163333023Y-84516239D01*
X163334520Y-84514714D01*
X164358506Y-83490727D01*
X164358511Y-83490724D01*
X164368714Y-83480520D01*
X164368716Y-83480520D01*
X164480520Y-83368716D01*
X164559577Y-83231784D01*
X164600500Y-83079057D01*
X164600500Y-81166666D01*
X164620185Y-81099627D01*
X164636816Y-81078987D01*
X164650117Y-81065687D01*
X164732494Y-80926395D01*
X164777643Y-80770993D01*
X164780500Y-80734690D01*
X164780500Y-80265310D01*
X164777643Y-80229007D01*
X164732494Y-80073605D01*
X164650117Y-79934313D01*
X164650115Y-79934311D01*
X164650112Y-79934307D01*
X164535692Y-79819887D01*
X164535684Y-79819881D01*
X164418906Y-79750819D01*
X164396395Y-79737506D01*
X164396394Y-79737505D01*
X164396393Y-79737505D01*
X164396390Y-79737504D01*
X164240997Y-79692357D01*
X164240991Y-79692356D01*
X164204697Y-79689500D01*
X164204690Y-79689500D01*
X163795310Y-79689500D01*
X163795302Y-79689500D01*
X163759008Y-79692356D01*
X163759002Y-79692357D01*
X163603608Y-79737504D01*
X163603602Y-79737506D01*
X163583120Y-79749620D01*
X163515396Y-79766801D01*
X163456880Y-79749620D01*
X163436397Y-79737506D01*
X163436391Y-79737504D01*
X163280997Y-79692357D01*
X163280991Y-79692356D01*
X163244697Y-79689500D01*
X163244690Y-79689500D01*
X162835310Y-79689500D01*
X162835302Y-79689500D01*
X162799008Y-79692356D01*
X162799002Y-79692357D01*
X162677787Y-79727574D01*
X162607917Y-79727375D01*
X162549247Y-79689433D01*
X162545925Y-79685408D01*
X162542714Y-79681347D01*
X162542712Y-79681344D01*
X162418656Y-79557288D01*
X162269334Y-79465186D01*
X162102797Y-79410001D01*
X162102795Y-79410000D01*
X162000016Y-79399500D01*
X162000009Y-79399500D01*
X161300098Y-79399500D01*
X161270654Y-79390854D01*
X161240672Y-79384332D01*
X161235656Y-79380577D01*
X161233059Y-79379815D01*
X161212421Y-79363185D01*
X161078335Y-79229100D01*
X161044852Y-79167780D01*
X161049836Y-79098088D01*
X161078337Y-79053740D01*
X161121789Y-79010289D01*
X161209394Y-78879179D01*
X161269737Y-78733497D01*
X161300500Y-78578842D01*
X161300500Y-78421158D01*
X161300500Y-78421155D01*
X161300499Y-78421153D01*
X161274531Y-78290606D01*
X161269737Y-78266503D01*
X161263425Y-78251265D01*
X161209397Y-78120827D01*
X161209390Y-78120814D01*
X161121398Y-77989125D01*
X161100520Y-77922447D01*
X161100500Y-77920234D01*
X161100500Y-76700098D01*
X161120185Y-76633059D01*
X161136820Y-76612416D01*
X161180517Y-76568719D01*
X161180517Y-76568718D01*
X161180520Y-76568716D01*
X161259577Y-76431784D01*
X161272242Y-76384516D01*
X161308606Y-76324859D01*
X161371453Y-76294330D01*
X161440829Y-76302625D01*
G37*
%TD.AperFunction*%
%TA.AperFunction,Conductor*%
G36*
X161747439Y-88807688D02*
G01*
X161810768Y-88807867D01*
X161869440Y-88845806D01*
X161898286Y-88909443D01*
X161899499Y-88926745D01*
X161899499Y-89043254D01*
X161879814Y-89110293D01*
X161827010Y-89156048D01*
X161757852Y-89165992D01*
X161741191Y-89162393D01*
X161740991Y-89162356D01*
X161704697Y-89159500D01*
X161704690Y-89159500D01*
X161424500Y-89159500D01*
X161415814Y-89156949D01*
X161406853Y-89158238D01*
X161382812Y-89147259D01*
X161357461Y-89139815D01*
X161351533Y-89132974D01*
X161343297Y-89129213D01*
X161329007Y-89106978D01*
X161311706Y-89087011D01*
X161309418Y-89076496D01*
X161305523Y-89070435D01*
X161300500Y-89035500D01*
X161300500Y-88934500D01*
X161320185Y-88867461D01*
X161372989Y-88821706D01*
X161424500Y-88810500D01*
X161704682Y-88810500D01*
X161704690Y-88810500D01*
X161740993Y-88807643D01*
X161740996Y-88807642D01*
X161747223Y-88806505D01*
X161747439Y-88807688D01*
G37*
%TD.AperFunction*%
%TA.AperFunction,Conductor*%
G36*
X160206941Y-69000000D02*
G01*
X160383962Y-69000000D01*
X160451001Y-69019685D01*
X160496756Y-69072489D01*
X160505579Y-69099809D01*
X160528253Y-69213799D01*
X160528255Y-69213808D01*
X160534153Y-69228045D01*
X160541623Y-69297514D01*
X160510349Y-69359994D01*
X160450261Y-69395648D01*
X160419593Y-69399500D01*
X159386555Y-69399500D01*
X159319516Y-69379815D01*
X159273761Y-69327011D01*
X159263817Y-69257853D01*
X159265135Y-69250337D01*
X159267511Y-69238870D01*
X159269737Y-69233497D01*
X159296310Y-69099905D01*
X159296428Y-69099337D01*
X159312641Y-69068936D01*
X159328616Y-69038397D01*
X159329064Y-69038141D01*
X159329307Y-69037687D01*
X159359375Y-69020881D01*
X159389332Y-69003823D01*
X159390044Y-69003739D01*
X159390297Y-69003599D01*
X159390923Y-69003637D01*
X159417848Y-69000500D01*
X159593103Y-69000500D01*
X159609178Y-68998569D01*
X159681564Y-68989877D01*
X159681565Y-68989876D01*
X159685215Y-68989438D01*
X159714785Y-68989438D01*
X159718434Y-68989876D01*
X159718436Y-68989877D01*
X159790821Y-68998569D01*
X159806897Y-69000500D01*
X159806898Y-69000500D01*
X159993101Y-69000500D01*
X159993102Y-69000500D01*
X160081564Y-68989877D01*
X160081567Y-68989875D01*
X160087318Y-68989185D01*
X160116890Y-68989185D01*
X160206941Y-69000000D01*
G37*
%TD.AperFunction*%
%TA.AperFunction,Conductor*%
G36*
X164942377Y-66091629D02*
G01*
X164984696Y-66118295D01*
X164985001Y-66117924D01*
X164987957Y-66120350D01*
X164988806Y-66120885D01*
X164989707Y-66121786D01*
X164989711Y-66121789D01*
X165120814Y-66209390D01*
X165120827Y-66209397D01*
X165266498Y-66269735D01*
X165266503Y-66269737D01*
X165396982Y-66295691D01*
X165421153Y-66300499D01*
X165421156Y-66300500D01*
X165421158Y-66300500D01*
X165578844Y-66300500D01*
X165578845Y-66300499D01*
X165733497Y-66269737D01*
X165733509Y-66269731D01*
X165739324Y-66267969D01*
X165740158Y-66270720D01*
X165797359Y-66264497D01*
X165859878Y-66295691D01*
X165895608Y-66355734D01*
X165899500Y-66386555D01*
X165899500Y-66675500D01*
X165879815Y-66742539D01*
X165827011Y-66788294D01*
X165775500Y-66799500D01*
X165721155Y-66799500D01*
X165566510Y-66830261D01*
X165566498Y-66830264D01*
X165420827Y-66890602D01*
X165420814Y-66890609D01*
X165289125Y-66978602D01*
X165222447Y-66999480D01*
X165220234Y-66999500D01*
X164302190Y-66999500D01*
X164235151Y-66979815D01*
X164189396Y-66927011D01*
X164179452Y-66857853D01*
X164208477Y-66794297D01*
X164254738Y-66760939D01*
X164379172Y-66709397D01*
X164379172Y-66709396D01*
X164379179Y-66709394D01*
X164510289Y-66621789D01*
X164621789Y-66510289D01*
X164709394Y-66379179D01*
X164769737Y-66233497D01*
X164779508Y-66184373D01*
X164811892Y-66122464D01*
X164872607Y-66087890D01*
X164942377Y-66091629D01*
G37*
%TD.AperFunction*%
%TD*%
M02*
