%TF.GenerationSoftware,KiCad,Pcbnew,9.0.5*%
%TF.CreationDate,2025-12-05T18:53:18-06:00*%
%TF.ProjectId,JollyDevboard,4a6f6c6c-7944-4657-9662-6f6172642e6b,rev?*%
%TF.SameCoordinates,Original*%
%TF.FileFunction,Soldermask,Bot*%
%TF.FilePolarity,Negative*%
%FSLAX46Y46*%
G04 Gerber Fmt 4.6, Leading zero omitted, Abs format (unit mm)*
G04 Created by KiCad (PCBNEW 9.0.5) date 2025-12-05 18:53:18*
%MOMM*%
%LPD*%
G01*
G04 APERTURE LIST*
%ADD10R,1.700000X1.700000*%
%ADD11C,1.700000*%
%ADD12C,0.650000*%
%ADD13O,1.000000X2.100000*%
%ADD14O,1.000000X1.600000*%
G04 APERTURE END LIST*
D10*
%TO.C,J3*%
X169700000Y-48600000D03*
D11*
X169700000Y-51140000D03*
X169700000Y-53680000D03*
X169700000Y-56220000D03*
X169700000Y-58760000D03*
X169700000Y-61300000D03*
X169700000Y-63840000D03*
X169700000Y-66380000D03*
X169700000Y-68920000D03*
X169700000Y-71460000D03*
X169700000Y-74000000D03*
X169700000Y-76540000D03*
X169700000Y-79080000D03*
X169700000Y-81620000D03*
X169700000Y-84160000D03*
X169700000Y-86700000D03*
X169700000Y-89240000D03*
X169700000Y-91780000D03*
X169700000Y-94320000D03*
X169700000Y-96860000D03*
%TD*%
D10*
%TO.C,J4*%
X157500000Y-96500000D03*
D11*
X160040000Y-96500000D03*
X162580000Y-96500000D03*
%TD*%
D10*
%TO.C,J2*%
X151600000Y-48600000D03*
D11*
X151600000Y-51140000D03*
X151600000Y-53680000D03*
X151600000Y-56220000D03*
X151600000Y-58760000D03*
X151600000Y-61300000D03*
X151600000Y-63840000D03*
X151600000Y-66380000D03*
X151600000Y-68920000D03*
X151600000Y-71460000D03*
X151600000Y-74000000D03*
X151600000Y-76540000D03*
X151600000Y-79080000D03*
X151600000Y-81620000D03*
X151600000Y-84160000D03*
X151600000Y-86700000D03*
X151600000Y-89240000D03*
X151600000Y-91780000D03*
X151600000Y-94320000D03*
X151600000Y-96860000D03*
%TD*%
D12*
%TO.C,J1*%
X163390000Y-52555000D03*
X157610000Y-52555000D03*
D13*
X164820000Y-53085000D03*
D14*
X164820000Y-48905000D03*
D13*
X156180000Y-53085000D03*
D14*
X156180000Y-48905000D03*
%TD*%
M02*
