%TF.GenerationSoftware,KiCad,Pcbnew,9.0.5*%
%TF.CreationDate,2025-12-05T18:53:18-06:00*%
%TF.ProjectId,JollyDevboard,4a6f6c6c-7944-4657-9662-6f6172642e6b,rev?*%
%TF.SameCoordinates,Original*%
%TF.FileFunction,Copper,L3,Inr*%
%TF.FilePolarity,Positive*%
%FSLAX46Y46*%
G04 Gerber Fmt 4.6, Leading zero omitted, Abs format (unit mm)*
G04 Created by KiCad (PCBNEW 9.0.5) date 2025-12-05 18:53:18*
%MOMM*%
%LPD*%
G01*
G04 APERTURE LIST*
%TA.AperFunction,ComponentPad*%
%ADD10R,1.700000X1.700000*%
%TD*%
%TA.AperFunction,ComponentPad*%
%ADD11C,1.700000*%
%TD*%
%TA.AperFunction,HeatsinkPad*%
%ADD12O,1.000000X2.100000*%
%TD*%
%TA.AperFunction,HeatsinkPad*%
%ADD13O,1.000000X1.600000*%
%TD*%
%TA.AperFunction,ViaPad*%
%ADD14C,0.600000*%
%TD*%
G04 APERTURE END LIST*
D10*
%TO.N,VBUS*%
%TO.C,J3*%
X169700000Y-48600000D03*
D11*
%TO.N,GPIO29_ADC3*%
X169700000Y-51140000D03*
%TO.N,GND*%
X169700000Y-53680000D03*
%TO.N,GPIO28_ADC2*%
X169700000Y-56220000D03*
%TO.N,+3V3*%
X169700000Y-58760000D03*
%TO.N,GPIO27_ADC1*%
X169700000Y-61300000D03*
%TO.N,GPIO26_ADC0*%
X169700000Y-63840000D03*
%TO.N,GND*%
X169700000Y-66380000D03*
%TO.N,GPIO24*%
X169700000Y-68920000D03*
%TO.N,GPIO23*%
X169700000Y-71460000D03*
%TO.N,RUN*%
X169700000Y-74000000D03*
%TO.N,GPIO22*%
X169700000Y-76540000D03*
%TO.N,GND*%
X169700000Y-79080000D03*
%TO.N,GPIO21*%
X169700000Y-81620000D03*
%TO.N,GPIO20*%
X169700000Y-84160000D03*
%TO.N,GPIO19*%
X169700000Y-86700000D03*
%TO.N,GPIO18*%
X169700000Y-89240000D03*
%TO.N,GND*%
X169700000Y-91780000D03*
%TO.N,GPIO17*%
X169700000Y-94320000D03*
%TO.N,GPIO16*%
X169700000Y-96860000D03*
%TD*%
D10*
%TO.N,SWD*%
%TO.C,J4*%
X157500000Y-96500000D03*
D11*
%TO.N,GND*%
X160040000Y-96500000D03*
%TO.N,SWCLK*%
X162580000Y-96500000D03*
%TD*%
D10*
%TO.N,GPIO0*%
%TO.C,J2*%
X151600000Y-48600000D03*
D11*
%TO.N,GPIO1*%
X151600000Y-51140000D03*
%TO.N,GND*%
X151600000Y-53680000D03*
%TO.N,GPIO2*%
X151600000Y-56220000D03*
%TO.N,GPIO3*%
X151600000Y-58760000D03*
%TO.N,GPIO4*%
X151600000Y-61300000D03*
%TO.N,GPIO5*%
X151600000Y-63840000D03*
%TO.N,GND*%
X151600000Y-66380000D03*
%TO.N,GPIO6*%
X151600000Y-68920000D03*
%TO.N,GPIO7*%
X151600000Y-71460000D03*
%TO.N,GPIO8*%
X151600000Y-74000000D03*
%TO.N,GPIO9*%
X151600000Y-76540000D03*
%TO.N,GND*%
X151600000Y-79080000D03*
%TO.N,GPIO10*%
X151600000Y-81620000D03*
%TO.N,GPIO11*%
X151600000Y-84160000D03*
%TO.N,GPIO12*%
X151600000Y-86700000D03*
%TO.N,GPIO13*%
X151600000Y-89240000D03*
%TO.N,GND*%
X151600000Y-91780000D03*
%TO.N,GPIO14*%
X151600000Y-94320000D03*
%TO.N,GPIO15*%
X151600000Y-96860000D03*
%TD*%
D12*
%TO.N,GND*%
%TO.C,J1*%
X164820000Y-53085000D03*
D13*
X164820000Y-48905000D03*
D12*
X156180000Y-53085000D03*
D13*
X156180000Y-48905000D03*
%TD*%
D14*
%TO.N,GND*%
X157000000Y-94500000D03*
X159500000Y-85500000D03*
X167500000Y-52000000D03*
X167300000Y-69100000D03*
X160500000Y-71500000D03*
X158700000Y-79300000D03*
X166900000Y-55500000D03*
X156500000Y-59800000D03*
X167400000Y-57700000D03*
X159500000Y-83500000D03*
X158000000Y-66500000D03*
X169000000Y-90500000D03*
X162500000Y-84500000D03*
X153400000Y-90200000D03*
X153700000Y-73800000D03*
X163700000Y-57800000D03*
X166600000Y-59800000D03*
X154000000Y-51000000D03*
X156500000Y-56000000D03*
X166000000Y-76000000D03*
%TO.N,+3V3*%
X158200000Y-59600000D03*
X160500000Y-78500000D03*
X155500000Y-55000000D03*
X154300000Y-72800000D03*
X167174501Y-64044758D03*
X167400000Y-72400000D03*
X156000000Y-68500000D03*
X160512478Y-66704284D03*
X155500000Y-59000000D03*
X160500000Y-89000000D03*
X166500000Y-62000000D03*
X165500000Y-68500000D03*
X165800000Y-67600000D03*
%TO.N,+1V1*%
X160200000Y-69000000D03*
X164900000Y-66500000D03*
X161500000Y-76500000D03*
X161500000Y-76500000D03*
X161500000Y-89000000D03*
%TO.N,VBUS*%
X165500000Y-55500000D03*
%TO.N,LED_DECORATION*%
X165000000Y-84500000D03*
X163000000Y-71000000D03*
%TO.N,USB_D-*%
X162000000Y-65500000D03*
X161000000Y-56000000D03*
%TO.N,Net-(J1-CC1)*%
X167500000Y-56500000D03*
X163000000Y-56500000D03*
%TO.N,GPIO0*%
X158000000Y-70500000D03*
%TO.N,GPIO13*%
X158000000Y-76000000D03*
%TO.N,GPIO15*%
X159500000Y-74000000D03*
%TO.N,GPIO5*%
X154100000Y-70400000D03*
%TO.N,GPIO12*%
X158000000Y-74000000D03*
%TO.N,GPIO14*%
X158000000Y-73000000D03*
%TO.N,GPIO21*%
X163000000Y-73000000D03*
%TO.N,GPIO29_ADC3*%
X163000000Y-69500000D03*
%TO.N,GPIO22*%
X163100000Y-72100000D03*
%TO.N,SWD*%
X161500000Y-74000000D03*
%TO.N,Net-(U1-USB_DP)*%
X161600000Y-62900000D03*
X161297992Y-68980310D03*
%TO.N,Net-(U1-USB_DM)*%
X162097677Y-69002809D03*
X164000000Y-66000000D03*
%TO.N,XOUT*%
X160500000Y-74000000D03*
X156500000Y-79000000D03*
%TO.N,Net-(R6-Pad1)*%
X162500000Y-61500000D03*
X156887712Y-65730000D03*
%TO.N,QSPI_SD2*%
X156900000Y-67100000D03*
X158200000Y-64200000D03*
%TO.N,QSPI_SD3*%
X165500000Y-63000000D03*
X165500000Y-65500000D03*
X167400000Y-67200000D03*
X167300000Y-65400000D03*
X160100000Y-64800000D03*
%TO.N,QSPI_SD0*%
X159700000Y-63000000D03*
X162000000Y-64300000D03*
%TO.N,QSPI_SD1*%
X158500000Y-62500000D03*
X158500000Y-69000000D03*
%TD*%
%TA.AperFunction,Conductor*%
%TO.N,+3V3*%
G36*
X155387255Y-47770185D02*
G01*
X155433010Y-47822989D01*
X155442954Y-47892147D01*
X155413929Y-47955703D01*
X155407897Y-47962181D01*
X155402863Y-47967214D01*
X155402860Y-47967218D01*
X155293371Y-48131079D01*
X155293364Y-48131092D01*
X155217950Y-48313160D01*
X155217947Y-48313170D01*
X155179500Y-48506456D01*
X155179500Y-48506459D01*
X155179500Y-49303541D01*
X155179500Y-49303543D01*
X155179499Y-49303543D01*
X155217947Y-49496829D01*
X155217950Y-49496839D01*
X155293364Y-49678907D01*
X155293371Y-49678920D01*
X155402860Y-49842781D01*
X155402863Y-49842785D01*
X155542214Y-49982136D01*
X155542218Y-49982139D01*
X155706079Y-50091628D01*
X155706092Y-50091635D01*
X155888160Y-50167049D01*
X155888165Y-50167051D01*
X155888169Y-50167051D01*
X155888170Y-50167052D01*
X156081456Y-50205500D01*
X156081459Y-50205500D01*
X156278543Y-50205500D01*
X156408728Y-50179604D01*
X156471835Y-50167051D01*
X156653914Y-50091632D01*
X156817782Y-49982139D01*
X156957139Y-49842782D01*
X157066632Y-49678914D01*
X157142051Y-49496835D01*
X157180500Y-49303541D01*
X157180500Y-48506459D01*
X157180500Y-48506456D01*
X157142052Y-48313170D01*
X157142051Y-48313169D01*
X157142051Y-48313165D01*
X157142049Y-48313160D01*
X157066635Y-48131092D01*
X157066628Y-48131079D01*
X156957139Y-47967218D01*
X156957136Y-47967214D01*
X156952103Y-47962181D01*
X156918618Y-47900858D01*
X156923602Y-47831166D01*
X156965474Y-47775233D01*
X157030938Y-47750816D01*
X157039784Y-47750500D01*
X163960216Y-47750500D01*
X164027255Y-47770185D01*
X164073010Y-47822989D01*
X164082954Y-47892147D01*
X164053929Y-47955703D01*
X164047897Y-47962181D01*
X164042863Y-47967214D01*
X164042860Y-47967218D01*
X163933371Y-48131079D01*
X163933364Y-48131092D01*
X163857950Y-48313160D01*
X163857947Y-48313170D01*
X163819500Y-48506456D01*
X163819500Y-48506459D01*
X163819500Y-49303541D01*
X163819500Y-49303543D01*
X163819499Y-49303543D01*
X163857947Y-49496829D01*
X163857950Y-49496839D01*
X163933364Y-49678907D01*
X163933371Y-49678920D01*
X164042860Y-49842781D01*
X164042863Y-49842785D01*
X164182214Y-49982136D01*
X164182218Y-49982139D01*
X164346079Y-50091628D01*
X164346092Y-50091635D01*
X164528160Y-50167049D01*
X164528165Y-50167051D01*
X164528169Y-50167051D01*
X164528170Y-50167052D01*
X164721456Y-50205500D01*
X164721459Y-50205500D01*
X164918543Y-50205500D01*
X165048728Y-50179604D01*
X165111835Y-50167051D01*
X165293914Y-50091632D01*
X165457782Y-49982139D01*
X165597139Y-49842782D01*
X165706632Y-49678914D01*
X165782051Y-49496835D01*
X165820500Y-49303541D01*
X165820500Y-48506459D01*
X165820500Y-48506456D01*
X165782052Y-48313170D01*
X165782051Y-48313169D01*
X165782051Y-48313165D01*
X165782049Y-48313160D01*
X165706635Y-48131092D01*
X165706628Y-48131079D01*
X165597139Y-47967218D01*
X165597136Y-47967214D01*
X165592103Y-47962181D01*
X165558618Y-47900858D01*
X165563602Y-47831166D01*
X165605474Y-47775233D01*
X165670938Y-47750816D01*
X165679784Y-47750500D01*
X168225500Y-47750500D01*
X168292539Y-47770185D01*
X168338294Y-47822989D01*
X168349500Y-47874500D01*
X168349500Y-49497870D01*
X168349501Y-49497876D01*
X168355908Y-49557483D01*
X168406202Y-49692328D01*
X168406206Y-49692335D01*
X168492452Y-49807544D01*
X168492455Y-49807547D01*
X168607664Y-49893793D01*
X168607671Y-49893797D01*
X168739082Y-49942810D01*
X168795016Y-49984681D01*
X168819433Y-50050145D01*
X168804582Y-50118418D01*
X168783431Y-50146673D01*
X168669889Y-50260215D01*
X168544951Y-50432179D01*
X168448444Y-50621585D01*
X168382753Y-50823760D01*
X168349500Y-51033713D01*
X168349500Y-51246287D01*
X168356520Y-51290609D01*
X168382368Y-51453808D01*
X168373413Y-51523102D01*
X168328417Y-51576554D01*
X168261666Y-51597193D01*
X168194352Y-51578468D01*
X168156793Y-51542097D01*
X168121789Y-51489711D01*
X168121786Y-51489707D01*
X168010292Y-51378213D01*
X168010288Y-51378210D01*
X167879185Y-51290609D01*
X167879172Y-51290602D01*
X167733501Y-51230264D01*
X167733489Y-51230261D01*
X167578845Y-51199500D01*
X167578842Y-51199500D01*
X167421158Y-51199500D01*
X167421155Y-51199500D01*
X167266510Y-51230261D01*
X167266498Y-51230264D01*
X167120827Y-51290602D01*
X167120814Y-51290609D01*
X166989711Y-51378210D01*
X166989707Y-51378213D01*
X166878213Y-51489707D01*
X166878210Y-51489711D01*
X166790609Y-51620814D01*
X166790602Y-51620827D01*
X166730264Y-51766498D01*
X166730261Y-51766510D01*
X166699500Y-51921153D01*
X166699500Y-52078846D01*
X166730261Y-52233489D01*
X166730264Y-52233501D01*
X166790602Y-52379172D01*
X166790609Y-52379185D01*
X166878210Y-52510288D01*
X166878213Y-52510292D01*
X166989707Y-52621786D01*
X166989711Y-52621789D01*
X167120814Y-52709390D01*
X167120827Y-52709397D01*
X167266498Y-52769735D01*
X167266503Y-52769737D01*
X167419690Y-52800208D01*
X167421153Y-52800499D01*
X167421156Y-52800500D01*
X167421158Y-52800500D01*
X167578844Y-52800500D01*
X167578845Y-52800499D01*
X167733497Y-52769737D01*
X167879179Y-52709394D01*
X168010289Y-52621789D01*
X168121789Y-52510289D01*
X168209394Y-52379179D01*
X168222520Y-52347491D01*
X168269735Y-52233501D01*
X168269737Y-52233497D01*
X168300500Y-52078842D01*
X168300500Y-51921158D01*
X168300500Y-51921155D01*
X168294925Y-51893129D01*
X168301152Y-51823537D01*
X168344015Y-51768360D01*
X168409904Y-51745115D01*
X168477901Y-51761183D01*
X168526417Y-51811462D01*
X168527027Y-51812642D01*
X168544951Y-51847819D01*
X168669890Y-52019786D01*
X168820213Y-52170109D01*
X168992182Y-52295050D01*
X169000946Y-52299516D01*
X169051742Y-52347491D01*
X169068536Y-52415312D01*
X169045998Y-52481447D01*
X169000946Y-52520484D01*
X168992182Y-52524949D01*
X168820213Y-52649890D01*
X168669890Y-52800213D01*
X168544951Y-52972179D01*
X168448444Y-53161585D01*
X168382753Y-53363760D01*
X168349500Y-53573713D01*
X168349500Y-53786287D01*
X168382754Y-53996243D01*
X168419363Y-54108914D01*
X168448444Y-54198414D01*
X168544951Y-54387820D01*
X168669890Y-54559786D01*
X168820213Y-54710109D01*
X168992182Y-54835050D01*
X169000946Y-54839516D01*
X169051742Y-54887491D01*
X169068536Y-54955312D01*
X169045998Y-55021447D01*
X169000946Y-55060484D01*
X168992182Y-55064949D01*
X168820213Y-55189890D01*
X168669890Y-55340213D01*
X168544951Y-55512179D01*
X168448444Y-55701585D01*
X168382753Y-55903760D01*
X168371304Y-55976046D01*
X168341374Y-56039181D01*
X168282063Y-56076112D01*
X168212200Y-56075114D01*
X168153968Y-56036504D01*
X168145729Y-56025539D01*
X168121789Y-55989711D01*
X168121786Y-55989707D01*
X168010292Y-55878213D01*
X168010288Y-55878210D01*
X167879185Y-55790609D01*
X167879176Y-55790604D01*
X167769202Y-55745052D01*
X167714799Y-55701211D01*
X167692734Y-55634917D01*
X167695037Y-55606303D01*
X167700500Y-55578842D01*
X167700500Y-55421158D01*
X167700500Y-55421155D01*
X167700499Y-55421153D01*
X167674531Y-55290606D01*
X167669737Y-55266503D01*
X167666879Y-55259604D01*
X167609397Y-55120827D01*
X167609390Y-55120814D01*
X167521789Y-54989711D01*
X167521786Y-54989707D01*
X167410292Y-54878213D01*
X167410288Y-54878210D01*
X167279185Y-54790609D01*
X167279172Y-54790602D01*
X167133501Y-54730264D01*
X167133489Y-54730261D01*
X166978845Y-54699500D01*
X166978842Y-54699500D01*
X166821158Y-54699500D01*
X166821155Y-54699500D01*
X166666510Y-54730261D01*
X166666498Y-54730264D01*
X166520827Y-54790602D01*
X166520814Y-54790609D01*
X166389711Y-54878210D01*
X166389707Y-54878213D01*
X166287681Y-54980240D01*
X166226358Y-55013725D01*
X166156666Y-55008741D01*
X166112319Y-54980240D01*
X166010292Y-54878213D01*
X166010288Y-54878210D01*
X165879185Y-54790609D01*
X165879172Y-54790602D01*
X165733501Y-54730264D01*
X165733489Y-54730261D01*
X165578845Y-54699500D01*
X165578842Y-54699500D01*
X165436490Y-54699500D01*
X165369451Y-54679815D01*
X165323696Y-54627011D01*
X165313752Y-54557853D01*
X165342777Y-54494297D01*
X165367599Y-54472398D01*
X165413716Y-54441582D01*
X165457782Y-54412139D01*
X165597139Y-54272782D01*
X165706632Y-54108914D01*
X165782051Y-53926835D01*
X165820500Y-53733541D01*
X165820500Y-52436459D01*
X165820500Y-52436456D01*
X165782052Y-52243170D01*
X165782051Y-52243169D01*
X165782051Y-52243165D01*
X165778048Y-52233501D01*
X165706635Y-52061092D01*
X165706628Y-52061079D01*
X165597139Y-51897218D01*
X165597136Y-51897214D01*
X165457785Y-51757863D01*
X165457781Y-51757860D01*
X165293920Y-51648371D01*
X165293907Y-51648364D01*
X165111839Y-51572950D01*
X165111829Y-51572947D01*
X164918543Y-51534500D01*
X164918541Y-51534500D01*
X164721459Y-51534500D01*
X164721457Y-51534500D01*
X164528170Y-51572947D01*
X164528160Y-51572950D01*
X164346092Y-51648364D01*
X164346079Y-51648371D01*
X164182218Y-51757860D01*
X164182214Y-51757863D01*
X164042863Y-51897214D01*
X164042860Y-51897218D01*
X163929983Y-52066151D01*
X163928534Y-52065182D01*
X163885356Y-52109122D01*
X163817215Y-52124570D01*
X163751540Y-52100725D01*
X163749493Y-52099188D01*
X163743367Y-52094487D01*
X163743365Y-52094485D01*
X163677750Y-52056602D01*
X163612136Y-52018719D01*
X163538950Y-51999109D01*
X163465766Y-51979500D01*
X163314234Y-51979500D01*
X163167863Y-52018719D01*
X163036635Y-52094485D01*
X163036632Y-52094487D01*
X162929487Y-52201632D01*
X162929485Y-52201635D01*
X162853719Y-52332863D01*
X162814500Y-52479234D01*
X162814500Y-52630765D01*
X162853719Y-52777136D01*
X162891602Y-52842750D01*
X162929485Y-52908365D01*
X163036635Y-53015515D01*
X163119912Y-53063595D01*
X163167861Y-53091279D01*
X163167865Y-53091281D01*
X163314234Y-53130500D01*
X163314236Y-53130500D01*
X163465764Y-53130500D01*
X163465766Y-53130500D01*
X163612135Y-53091281D01*
X163622451Y-53085325D01*
X163633499Y-53078947D01*
X163701398Y-53062473D01*
X163767426Y-53085325D01*
X163810617Y-53140245D01*
X163819500Y-53186333D01*
X163819500Y-53733541D01*
X163819500Y-53733543D01*
X163819499Y-53733543D01*
X163857947Y-53926829D01*
X163857950Y-53926839D01*
X163933364Y-54108907D01*
X163933371Y-54108920D01*
X164042860Y-54272781D01*
X164042863Y-54272785D01*
X164182214Y-54412136D01*
X164182218Y-54412139D01*
X164346079Y-54521628D01*
X164346092Y-54521635D01*
X164528160Y-54597049D01*
X164528165Y-54597051D01*
X164528169Y-54597051D01*
X164528170Y-54597052D01*
X164721456Y-54635500D01*
X164721459Y-54635500D01*
X164918540Y-54635500D01*
X164918541Y-54635500D01*
X164925673Y-54634081D01*
X164995263Y-54640304D01*
X165050443Y-54683164D01*
X165073692Y-54749052D01*
X165057628Y-54817050D01*
X165018763Y-54858798D01*
X164989709Y-54878211D01*
X164878213Y-54989707D01*
X164878210Y-54989711D01*
X164790609Y-55120814D01*
X164790602Y-55120827D01*
X164730264Y-55266498D01*
X164730261Y-55266510D01*
X164699500Y-55421153D01*
X164699500Y-55578846D01*
X164730261Y-55733489D01*
X164730264Y-55733501D01*
X164790602Y-55879172D01*
X164790609Y-55879185D01*
X164878210Y-56010288D01*
X164878213Y-56010292D01*
X164989707Y-56121786D01*
X164989711Y-56121789D01*
X165120814Y-56209390D01*
X165120827Y-56209397D01*
X165258683Y-56266498D01*
X165266503Y-56269737D01*
X165412546Y-56298787D01*
X165421153Y-56300499D01*
X165421156Y-56300500D01*
X165421158Y-56300500D01*
X165578844Y-56300500D01*
X165578845Y-56300499D01*
X165733497Y-56269737D01*
X165879179Y-56209394D01*
X166010289Y-56121789D01*
X166056964Y-56075114D01*
X166112319Y-56019760D01*
X166173642Y-55986275D01*
X166243334Y-55991259D01*
X166287681Y-56019760D01*
X166389707Y-56121786D01*
X166389711Y-56121789D01*
X166520814Y-56209390D01*
X166520827Y-56209397D01*
X166630796Y-56254947D01*
X166685200Y-56298787D01*
X166707265Y-56365081D01*
X166704962Y-56393698D01*
X166699500Y-56421159D01*
X166699500Y-56578846D01*
X166730261Y-56733489D01*
X166730264Y-56733501D01*
X166790602Y-56879172D01*
X166790609Y-56879185D01*
X166853485Y-56973285D01*
X166874363Y-57039963D01*
X166855878Y-57107343D01*
X166838064Y-57129857D01*
X166778213Y-57189707D01*
X166778210Y-57189711D01*
X166690609Y-57320814D01*
X166690602Y-57320827D01*
X166630264Y-57466498D01*
X166630261Y-57466510D01*
X166599500Y-57621153D01*
X166599500Y-57778846D01*
X166630261Y-57933489D01*
X166630264Y-57933501D01*
X166690602Y-58079172D01*
X166690609Y-58079185D01*
X166778210Y-58210288D01*
X166778213Y-58210292D01*
X166889707Y-58321786D01*
X166889711Y-58321789D01*
X167020814Y-58409390D01*
X167020827Y-58409397D01*
X167126079Y-58452993D01*
X167166503Y-58469737D01*
X167296233Y-58495542D01*
X167321153Y-58500499D01*
X167321156Y-58500500D01*
X167321158Y-58500500D01*
X167478844Y-58500500D01*
X167478845Y-58500499D01*
X167633497Y-58469737D01*
X167779179Y-58409394D01*
X167910289Y-58321789D01*
X168021789Y-58210289D01*
X168109394Y-58079179D01*
X168169737Y-57933497D01*
X168200500Y-57778842D01*
X168200500Y-57621158D01*
X168200500Y-57621155D01*
X168200499Y-57621153D01*
X168169737Y-57466503D01*
X168133821Y-57379793D01*
X168109397Y-57320827D01*
X168109390Y-57320814D01*
X168046514Y-57226714D01*
X168025636Y-57160037D01*
X168044120Y-57092656D01*
X168061928Y-57070149D01*
X168121789Y-57010289D01*
X168209394Y-56879179D01*
X168245815Y-56791248D01*
X168289654Y-56736849D01*
X168355948Y-56714783D01*
X168423647Y-56732062D01*
X168470860Y-56782409D01*
X168544951Y-56927819D01*
X168669890Y-57099786D01*
X168820213Y-57250109D01*
X168992179Y-57375048D01*
X168992181Y-57375049D01*
X168992184Y-57375051D01*
X169001493Y-57379794D01*
X169052290Y-57427766D01*
X169069087Y-57495587D01*
X169046552Y-57561722D01*
X169001505Y-57600760D01*
X168992446Y-57605376D01*
X168992440Y-57605380D01*
X168938282Y-57644727D01*
X168938282Y-57644728D01*
X169570591Y-58277037D01*
X169507007Y-58294075D01*
X169392993Y-58359901D01*
X169299901Y-58452993D01*
X169234075Y-58567007D01*
X169217037Y-58630591D01*
X168584728Y-57998282D01*
X168584727Y-57998282D01*
X168545380Y-58052439D01*
X168448904Y-58241782D01*
X168383242Y-58443869D01*
X168383242Y-58443872D01*
X168350000Y-58653753D01*
X168350000Y-58866246D01*
X168383242Y-59076127D01*
X168383242Y-59076130D01*
X168448904Y-59278217D01*
X168545375Y-59467550D01*
X168584728Y-59521716D01*
X169217037Y-58889408D01*
X169234075Y-58952993D01*
X169299901Y-59067007D01*
X169392993Y-59160099D01*
X169507007Y-59225925D01*
X169570589Y-59242962D01*
X168938282Y-59875269D01*
X168938282Y-59875270D01*
X168992452Y-59914626D01*
X168992451Y-59914626D01*
X169001495Y-59919234D01*
X169052292Y-59967208D01*
X169069087Y-60035029D01*
X169046550Y-60101164D01*
X169001499Y-60140202D01*
X168992182Y-60144949D01*
X168820213Y-60269890D01*
X168669890Y-60420213D01*
X168544951Y-60592179D01*
X168448444Y-60781585D01*
X168382753Y-60983760D01*
X168349500Y-61193713D01*
X168349500Y-61406286D01*
X168376830Y-61578844D01*
X168382754Y-61616243D01*
X168439409Y-61790609D01*
X168448444Y-61818414D01*
X168544951Y-62007820D01*
X168669890Y-62179786D01*
X168820213Y-62330109D01*
X168992182Y-62455050D01*
X169000946Y-62459516D01*
X169051742Y-62507491D01*
X169068536Y-62575312D01*
X169045998Y-62641447D01*
X169000946Y-62680484D01*
X168992182Y-62684949D01*
X168820213Y-62809890D01*
X168669890Y-62960213D01*
X168544951Y-63132179D01*
X168448444Y-63321585D01*
X168382753Y-63523760D01*
X168349500Y-63733713D01*
X168349500Y-63946286D01*
X168377196Y-64121155D01*
X168382754Y-64156243D01*
X168426119Y-64289707D01*
X168448444Y-64358414D01*
X168544951Y-64547820D01*
X168669890Y-64719786D01*
X168820213Y-64870109D01*
X168992182Y-64995050D01*
X169000946Y-64999516D01*
X169051742Y-65047491D01*
X169068536Y-65115312D01*
X169045998Y-65181447D01*
X169000946Y-65220484D01*
X168992182Y-65224949D01*
X168820213Y-65349890D01*
X168669890Y-65500213D01*
X168544951Y-65672179D01*
X168448444Y-65861585D01*
X168382753Y-66063760D01*
X168363020Y-66188350D01*
X168349500Y-66273713D01*
X168349500Y-66486287D01*
X168353302Y-66510289D01*
X168381718Y-66689707D01*
X168382754Y-66696243D01*
X168441502Y-66877051D01*
X168448444Y-66898414D01*
X168544951Y-67087820D01*
X168669890Y-67259786D01*
X168820213Y-67410109D01*
X168992182Y-67535050D01*
X169000946Y-67539516D01*
X169051742Y-67587491D01*
X169068536Y-67655312D01*
X169045998Y-67721447D01*
X169000946Y-67760484D01*
X168992182Y-67764949D01*
X168820213Y-67889890D01*
X168669890Y-68040213D01*
X168544951Y-68212179D01*
X168448444Y-68401585D01*
X168382753Y-68603760D01*
X168349500Y-68813713D01*
X168349500Y-69026286D01*
X168382319Y-69233501D01*
X168382754Y-69236243D01*
X168442835Y-69421153D01*
X168448444Y-69438414D01*
X168544951Y-69627820D01*
X168669890Y-69799786D01*
X168820213Y-69950109D01*
X168992182Y-70075050D01*
X169000946Y-70079516D01*
X169051742Y-70127491D01*
X169068536Y-70195312D01*
X169045998Y-70261447D01*
X169000946Y-70300484D01*
X168992182Y-70304949D01*
X168820213Y-70429890D01*
X168669890Y-70580213D01*
X168544951Y-70752179D01*
X168448444Y-70941585D01*
X168382753Y-71143760D01*
X168349500Y-71353713D01*
X168349500Y-71566286D01*
X168375983Y-71733497D01*
X168382754Y-71776243D01*
X168412081Y-71866503D01*
X168448444Y-71978414D01*
X168544951Y-72167820D01*
X168669890Y-72339786D01*
X168820213Y-72490109D01*
X168992182Y-72615050D01*
X169000946Y-72619516D01*
X169051742Y-72667491D01*
X169068536Y-72735312D01*
X169045998Y-72801447D01*
X169000946Y-72840484D01*
X168992182Y-72844949D01*
X168820213Y-72969890D01*
X168669890Y-73120213D01*
X168544951Y-73292179D01*
X168448444Y-73481585D01*
X168382753Y-73683760D01*
X168349500Y-73893713D01*
X168349500Y-74106286D01*
X168381810Y-74310288D01*
X168382754Y-74316243D01*
X168445803Y-74510288D01*
X168448444Y-74518414D01*
X168544951Y-74707820D01*
X168669890Y-74879786D01*
X168820213Y-75030109D01*
X168992182Y-75155050D01*
X169000946Y-75159516D01*
X169051742Y-75207491D01*
X169068536Y-75275312D01*
X169045998Y-75341447D01*
X169000946Y-75380484D01*
X168992182Y-75384949D01*
X168820213Y-75509890D01*
X168669890Y-75660213D01*
X168544951Y-75832179D01*
X168448444Y-76021585D01*
X168382753Y-76223760D01*
X168349500Y-76433713D01*
X168349500Y-76646286D01*
X168363311Y-76733489D01*
X168382754Y-76856243D01*
X168432806Y-77010288D01*
X168448444Y-77058414D01*
X168544951Y-77247820D01*
X168669890Y-77419786D01*
X168820213Y-77570109D01*
X168992182Y-77695050D01*
X169000946Y-77699516D01*
X169051742Y-77747491D01*
X169068536Y-77815312D01*
X169045998Y-77881447D01*
X169000946Y-77920484D01*
X168992182Y-77924949D01*
X168820213Y-78049890D01*
X168669890Y-78200213D01*
X168544951Y-78372179D01*
X168448444Y-78561585D01*
X168382753Y-78763760D01*
X168378643Y-78789711D01*
X168349500Y-78973713D01*
X168349500Y-79186287D01*
X168350227Y-79190874D01*
X168382753Y-79396239D01*
X168448444Y-79598414D01*
X168544951Y-79787820D01*
X168669890Y-79959786D01*
X168820213Y-80110109D01*
X168992182Y-80235050D01*
X169000946Y-80239516D01*
X169051742Y-80287491D01*
X169068536Y-80355312D01*
X169045998Y-80421447D01*
X169000946Y-80460484D01*
X168992182Y-80464949D01*
X168820213Y-80589890D01*
X168669890Y-80740213D01*
X168544951Y-80912179D01*
X168448444Y-81101585D01*
X168382753Y-81303760D01*
X168349500Y-81513713D01*
X168349500Y-81726286D01*
X168382753Y-81936239D01*
X168448444Y-82138414D01*
X168544951Y-82327820D01*
X168669890Y-82499786D01*
X168820213Y-82650109D01*
X168992182Y-82775050D01*
X169000946Y-82779516D01*
X169051742Y-82827491D01*
X169068536Y-82895312D01*
X169045998Y-82961447D01*
X169000946Y-83000484D01*
X168992182Y-83004949D01*
X168820213Y-83129890D01*
X168669890Y-83280213D01*
X168544951Y-83452179D01*
X168448444Y-83641585D01*
X168382753Y-83843760D01*
X168359637Y-83989711D01*
X168349500Y-84053713D01*
X168349500Y-84266287D01*
X168350047Y-84269738D01*
X168374028Y-84421153D01*
X168382754Y-84476243D01*
X168416091Y-84578844D01*
X168448444Y-84678414D01*
X168544951Y-84867820D01*
X168669890Y-85039786D01*
X168820213Y-85190109D01*
X168992182Y-85315050D01*
X169000946Y-85319516D01*
X169051742Y-85367491D01*
X169068536Y-85435312D01*
X169045998Y-85501447D01*
X169000946Y-85540484D01*
X168992182Y-85544949D01*
X168820213Y-85669890D01*
X168669890Y-85820213D01*
X168544951Y-85992179D01*
X168448444Y-86181585D01*
X168382753Y-86383760D01*
X168349500Y-86593713D01*
X168349500Y-86806286D01*
X168382753Y-87016239D01*
X168448444Y-87218414D01*
X168544951Y-87407820D01*
X168669890Y-87579786D01*
X168820213Y-87730109D01*
X168992182Y-87855050D01*
X169000946Y-87859516D01*
X169051742Y-87907491D01*
X169068536Y-87975312D01*
X169045998Y-88041447D01*
X169000946Y-88080484D01*
X168992182Y-88084949D01*
X168820213Y-88209890D01*
X168669890Y-88360213D01*
X168544951Y-88532179D01*
X168448444Y-88721585D01*
X168382753Y-88923760D01*
X168349500Y-89133713D01*
X168349500Y-89346286D01*
X168375475Y-89510289D01*
X168382754Y-89556243D01*
X168404051Y-89621789D01*
X168448444Y-89758415D01*
X168461909Y-89784842D01*
X168474804Y-89853511D01*
X168448526Y-89918251D01*
X168439105Y-89928816D01*
X168378210Y-89989711D01*
X168290609Y-90120814D01*
X168290602Y-90120827D01*
X168230264Y-90266498D01*
X168230261Y-90266510D01*
X168199500Y-90421153D01*
X168199500Y-90578846D01*
X168230261Y-90733489D01*
X168230264Y-90733501D01*
X168290602Y-90879172D01*
X168290609Y-90879185D01*
X168378210Y-91010288D01*
X168378213Y-91010292D01*
X168445855Y-91077934D01*
X168479340Y-91139257D01*
X168474356Y-91208949D01*
X168468660Y-91221907D01*
X168448442Y-91261587D01*
X168448442Y-91261588D01*
X168382753Y-91463759D01*
X168349500Y-91673713D01*
X168349500Y-91886286D01*
X168382753Y-92096239D01*
X168448444Y-92298414D01*
X168544951Y-92487820D01*
X168669890Y-92659786D01*
X168820213Y-92810109D01*
X168992182Y-92935050D01*
X169000946Y-92939516D01*
X169051742Y-92987491D01*
X169068536Y-93055312D01*
X169045998Y-93121447D01*
X169000946Y-93160484D01*
X168992182Y-93164949D01*
X168820213Y-93289890D01*
X168669890Y-93440213D01*
X168544951Y-93612179D01*
X168448444Y-93801585D01*
X168382753Y-94003760D01*
X168349500Y-94213713D01*
X168349500Y-94426286D01*
X168373662Y-94578842D01*
X168382754Y-94636243D01*
X168414355Y-94733501D01*
X168448444Y-94838414D01*
X168544951Y-95027820D01*
X168669890Y-95199786D01*
X168820213Y-95350109D01*
X168992182Y-95475050D01*
X169000946Y-95479516D01*
X169051742Y-95527491D01*
X169068536Y-95595312D01*
X169045998Y-95661447D01*
X169000946Y-95700484D01*
X168992182Y-95704949D01*
X168820213Y-95829890D01*
X168669890Y-95980213D01*
X168544951Y-96152179D01*
X168448444Y-96341585D01*
X168382753Y-96543760D01*
X168349500Y-96753713D01*
X168349500Y-96966286D01*
X168378321Y-97148259D01*
X168382754Y-97176243D01*
X168448443Y-97378412D01*
X168532965Y-97544297D01*
X168545657Y-97569205D01*
X168558553Y-97637874D01*
X168532277Y-97702615D01*
X168475170Y-97742872D01*
X168435172Y-97749500D01*
X163539029Y-97749500D01*
X163471990Y-97729815D01*
X163426235Y-97677011D01*
X163416291Y-97607853D01*
X163445316Y-97544297D01*
X163458493Y-97531214D01*
X163459789Y-97530106D01*
X163459788Y-97530106D01*
X163459792Y-97530104D01*
X163610104Y-97379792D01*
X163610106Y-97379788D01*
X163610109Y-97379786D01*
X163735048Y-97207820D01*
X163735047Y-97207820D01*
X163735051Y-97207816D01*
X163831557Y-97018412D01*
X163897246Y-96816243D01*
X163930500Y-96606287D01*
X163930500Y-96393713D01*
X163897246Y-96183757D01*
X163831557Y-95981588D01*
X163735051Y-95792184D01*
X163735049Y-95792181D01*
X163735048Y-95792179D01*
X163610109Y-95620213D01*
X163459786Y-95469890D01*
X163287820Y-95344951D01*
X163098414Y-95248444D01*
X163098413Y-95248443D01*
X163098412Y-95248443D01*
X162896243Y-95182754D01*
X162896241Y-95182753D01*
X162896240Y-95182753D01*
X162729378Y-95156325D01*
X162686287Y-95149500D01*
X162473713Y-95149500D01*
X162430622Y-95156325D01*
X162263760Y-95182753D01*
X162061585Y-95248444D01*
X161872179Y-95344951D01*
X161700213Y-95469890D01*
X161549890Y-95620213D01*
X161424949Y-95792182D01*
X161420484Y-95800946D01*
X161372509Y-95851742D01*
X161304688Y-95868536D01*
X161238553Y-95845998D01*
X161199516Y-95800946D01*
X161195050Y-95792182D01*
X161070109Y-95620213D01*
X160919786Y-95469890D01*
X160747820Y-95344951D01*
X160558414Y-95248444D01*
X160558413Y-95248443D01*
X160558412Y-95248443D01*
X160356243Y-95182754D01*
X160356241Y-95182753D01*
X160356240Y-95182753D01*
X160189378Y-95156325D01*
X160146287Y-95149500D01*
X159933713Y-95149500D01*
X159890622Y-95156325D01*
X159723760Y-95182753D01*
X159521585Y-95248444D01*
X159332179Y-95344951D01*
X159160215Y-95469889D01*
X159046673Y-95583431D01*
X158985350Y-95616915D01*
X158915658Y-95611931D01*
X158859725Y-95570059D01*
X158842810Y-95539082D01*
X158793797Y-95407671D01*
X158793793Y-95407664D01*
X158707547Y-95292455D01*
X158707544Y-95292452D01*
X158592335Y-95206206D01*
X158592328Y-95206202D01*
X158457482Y-95155908D01*
X158457483Y-95155908D01*
X158397883Y-95149501D01*
X158397881Y-95149500D01*
X158397873Y-95149500D01*
X158397865Y-95149500D01*
X157760759Y-95149500D01*
X157693720Y-95129815D01*
X157647965Y-95077011D01*
X157638021Y-95007853D01*
X157657657Y-94956609D01*
X157666194Y-94943831D01*
X157709394Y-94879179D01*
X157769737Y-94733497D01*
X157800500Y-94578842D01*
X157800500Y-94421158D01*
X157800500Y-94421155D01*
X157800499Y-94421153D01*
X157769738Y-94266510D01*
X157769737Y-94266503D01*
X157747871Y-94213713D01*
X157709397Y-94120827D01*
X157709390Y-94120814D01*
X157621789Y-93989711D01*
X157621786Y-93989707D01*
X157510292Y-93878213D01*
X157510288Y-93878210D01*
X157379185Y-93790609D01*
X157379172Y-93790602D01*
X157233501Y-93730264D01*
X157233489Y-93730261D01*
X157078845Y-93699500D01*
X157078842Y-93699500D01*
X156921158Y-93699500D01*
X156921155Y-93699500D01*
X156766510Y-93730261D01*
X156766498Y-93730264D01*
X156620827Y-93790602D01*
X156620814Y-93790609D01*
X156489711Y-93878210D01*
X156489707Y-93878213D01*
X156378213Y-93989707D01*
X156378210Y-93989711D01*
X156290609Y-94120814D01*
X156290602Y-94120827D01*
X156230264Y-94266498D01*
X156230261Y-94266510D01*
X156199500Y-94421153D01*
X156199500Y-94578846D01*
X156230261Y-94733489D01*
X156230264Y-94733501D01*
X156290602Y-94879172D01*
X156290609Y-94879185D01*
X156378209Y-95010287D01*
X156378210Y-95010288D01*
X156378211Y-95010289D01*
X156401674Y-95033752D01*
X156435159Y-95095073D01*
X156430176Y-95164764D01*
X156388305Y-95220699D01*
X156292452Y-95292455D01*
X156206206Y-95407664D01*
X156206202Y-95407671D01*
X156155908Y-95542517D01*
X156149501Y-95602116D01*
X156149500Y-95602135D01*
X156149500Y-97397870D01*
X156149501Y-97397876D01*
X156155908Y-97457483D01*
X156202413Y-97582167D01*
X156207397Y-97651859D01*
X156173912Y-97713182D01*
X156112589Y-97746666D01*
X156086231Y-97749500D01*
X152864828Y-97749500D01*
X152797789Y-97729815D01*
X152752034Y-97677011D01*
X152742090Y-97607853D01*
X152754343Y-97569205D01*
X152755051Y-97567816D01*
X152851557Y-97378412D01*
X152917246Y-97176243D01*
X152950500Y-96966287D01*
X152950500Y-96753713D01*
X152917246Y-96543757D01*
X152851557Y-96341588D01*
X152755051Y-96152184D01*
X152755049Y-96152181D01*
X152755048Y-96152179D01*
X152630109Y-95980213D01*
X152479786Y-95829890D01*
X152307820Y-95704951D01*
X152307115Y-95704591D01*
X152299054Y-95700485D01*
X152248259Y-95652512D01*
X152231463Y-95584692D01*
X152253999Y-95518556D01*
X152299054Y-95479515D01*
X152307816Y-95475051D01*
X152329789Y-95459086D01*
X152479786Y-95350109D01*
X152479788Y-95350106D01*
X152479792Y-95350104D01*
X152630104Y-95199792D01*
X152630106Y-95199788D01*
X152630109Y-95199786D01*
X152755048Y-95027820D01*
X152755047Y-95027820D01*
X152755051Y-95027816D01*
X152851557Y-94838412D01*
X152917246Y-94636243D01*
X152950500Y-94426287D01*
X152950500Y-94213713D01*
X152917246Y-94003757D01*
X152851557Y-93801588D01*
X152755051Y-93612184D01*
X152755049Y-93612181D01*
X152755048Y-93612179D01*
X152630109Y-93440213D01*
X152479786Y-93289890D01*
X152307820Y-93164951D01*
X152307115Y-93164591D01*
X152299054Y-93160485D01*
X152248259Y-93112512D01*
X152231463Y-93044692D01*
X152253999Y-92978556D01*
X152299054Y-92939515D01*
X152307816Y-92935051D01*
X152329789Y-92919086D01*
X152479786Y-92810109D01*
X152479788Y-92810106D01*
X152479792Y-92810104D01*
X152630104Y-92659792D01*
X152630106Y-92659788D01*
X152630109Y-92659786D01*
X152755048Y-92487820D01*
X152755047Y-92487820D01*
X152755051Y-92487816D01*
X152851557Y-92298412D01*
X152917246Y-92096243D01*
X152950500Y-91886287D01*
X152950500Y-91673713D01*
X152917246Y-91463757D01*
X152851557Y-91261588D01*
X152755051Y-91072184D01*
X152748975Y-91063821D01*
X152661709Y-90943707D01*
X152661701Y-90943698D01*
X152630104Y-90900208D01*
X152479792Y-90749896D01*
X152479786Y-90749890D01*
X152307820Y-90624951D01*
X152307115Y-90624591D01*
X152299054Y-90620485D01*
X152296244Y-90617831D01*
X152292496Y-90616890D01*
X152271049Y-90594036D01*
X152248259Y-90572512D01*
X152247329Y-90568759D01*
X152244685Y-90565941D01*
X152238998Y-90535117D01*
X152231463Y-90504692D01*
X152232709Y-90501033D01*
X152232008Y-90497231D01*
X152243891Y-90468219D01*
X152253999Y-90438556D01*
X152257450Y-90435115D01*
X152258491Y-90432575D01*
X152266759Y-90425836D01*
X152284228Y-90408423D01*
X152291326Y-90403452D01*
X152307816Y-90395051D01*
X152427049Y-90308423D01*
X152427917Y-90307816D01*
X152460053Y-90296979D01*
X152491959Y-90285595D01*
X152493056Y-90285850D01*
X152494124Y-90285490D01*
X152527013Y-90293746D01*
X152560013Y-90301421D01*
X152560797Y-90302228D01*
X152561891Y-90302503D01*
X152585076Y-90327209D01*
X152608708Y-90351526D01*
X152609202Y-90352919D01*
X152609702Y-90353452D01*
X152610038Y-90355276D01*
X152620655Y-90385200D01*
X152630261Y-90433492D01*
X152630264Y-90433501D01*
X152690602Y-90579172D01*
X152690609Y-90579185D01*
X152754666Y-90675053D01*
X152754670Y-90675057D01*
X152778211Y-90710289D01*
X152848670Y-90780748D01*
X152848679Y-90780758D01*
X152889707Y-90821786D01*
X152889711Y-90821789D01*
X153020814Y-90909390D01*
X153020827Y-90909397D01*
X153166498Y-90969735D01*
X153166503Y-90969737D01*
X153321153Y-91000499D01*
X153321156Y-91000500D01*
X153321158Y-91000500D01*
X153478844Y-91000500D01*
X153478845Y-91000499D01*
X153633497Y-90969737D01*
X153779179Y-90909394D01*
X153910289Y-90821789D01*
X154021789Y-90710289D01*
X154109394Y-90579179D01*
X154169737Y-90433497D01*
X154200500Y-90278842D01*
X154200500Y-90121158D01*
X154200500Y-90121155D01*
X154200499Y-90121153D01*
X154169738Y-89966510D01*
X154169737Y-89966503D01*
X154122935Y-89853511D01*
X154109397Y-89820827D01*
X154109390Y-89820814D01*
X154021789Y-89689711D01*
X154021786Y-89689707D01*
X153910292Y-89578213D01*
X153910288Y-89578210D01*
X153779185Y-89490609D01*
X153779172Y-89490602D01*
X153633501Y-89430264D01*
X153633489Y-89430261D01*
X153478845Y-89399500D01*
X153478842Y-89399500D01*
X153321158Y-89399500D01*
X153321155Y-89399500D01*
X153166510Y-89430261D01*
X153166498Y-89430264D01*
X153121952Y-89448716D01*
X153052483Y-89456185D01*
X152990004Y-89424909D01*
X152954352Y-89364820D01*
X152950500Y-89334155D01*
X152950500Y-89133713D01*
X152918942Y-88934464D01*
X152917246Y-88923760D01*
X152917246Y-88923757D01*
X152916400Y-88921153D01*
X160699500Y-88921153D01*
X160699500Y-89078846D01*
X160730261Y-89233489D01*
X160730264Y-89233501D01*
X160790602Y-89379172D01*
X160790609Y-89379185D01*
X160878210Y-89510288D01*
X160878213Y-89510292D01*
X160989707Y-89621786D01*
X160989711Y-89621789D01*
X161120814Y-89709390D01*
X161120827Y-89709397D01*
X161239169Y-89758415D01*
X161266503Y-89769737D01*
X161421153Y-89800499D01*
X161421156Y-89800500D01*
X161421158Y-89800500D01*
X161578844Y-89800500D01*
X161578845Y-89800499D01*
X161733497Y-89769737D01*
X161879179Y-89709394D01*
X162010289Y-89621789D01*
X162121789Y-89510289D01*
X162209394Y-89379179D01*
X162269737Y-89233497D01*
X162300500Y-89078842D01*
X162300500Y-88921158D01*
X162300500Y-88921155D01*
X162300499Y-88921153D01*
X162269738Y-88766510D01*
X162269737Y-88766503D01*
X162251133Y-88721588D01*
X162209397Y-88620827D01*
X162209390Y-88620814D01*
X162121789Y-88489711D01*
X162121786Y-88489707D01*
X162010292Y-88378213D01*
X162010288Y-88378210D01*
X161879185Y-88290609D01*
X161879172Y-88290602D01*
X161733501Y-88230264D01*
X161733489Y-88230261D01*
X161578845Y-88199500D01*
X161578842Y-88199500D01*
X161421158Y-88199500D01*
X161421155Y-88199500D01*
X161266510Y-88230261D01*
X161266498Y-88230264D01*
X161120827Y-88290602D01*
X161120814Y-88290609D01*
X160989711Y-88378210D01*
X160989707Y-88378213D01*
X160878213Y-88489707D01*
X160878210Y-88489711D01*
X160790609Y-88620814D01*
X160790602Y-88620827D01*
X160730264Y-88766498D01*
X160730261Y-88766510D01*
X160699500Y-88921153D01*
X152916400Y-88921153D01*
X152851557Y-88721588D01*
X152755051Y-88532184D01*
X152755049Y-88532181D01*
X152755048Y-88532179D01*
X152630109Y-88360213D01*
X152479786Y-88209890D01*
X152307820Y-88084951D01*
X152307115Y-88084591D01*
X152299054Y-88080485D01*
X152248259Y-88032512D01*
X152231463Y-87964692D01*
X152253999Y-87898556D01*
X152299054Y-87859515D01*
X152307816Y-87855051D01*
X152329789Y-87839086D01*
X152479786Y-87730109D01*
X152479788Y-87730106D01*
X152479792Y-87730104D01*
X152630104Y-87579792D01*
X152630106Y-87579788D01*
X152630109Y-87579786D01*
X152755048Y-87407820D01*
X152755047Y-87407820D01*
X152755051Y-87407816D01*
X152851557Y-87218412D01*
X152917246Y-87016243D01*
X152950500Y-86806287D01*
X152950500Y-86593713D01*
X152917246Y-86383757D01*
X152851557Y-86181588D01*
X152755051Y-85992184D01*
X152755049Y-85992181D01*
X152755048Y-85992179D01*
X152630109Y-85820213D01*
X152479786Y-85669890D01*
X152307820Y-85544951D01*
X152307115Y-85544591D01*
X152299054Y-85540485D01*
X152292331Y-85534134D01*
X152283586Y-85531124D01*
X152267334Y-85510527D01*
X152248259Y-85492512D01*
X152246035Y-85483533D01*
X152240306Y-85476272D01*
X152237769Y-85450157D01*
X152231463Y-85424692D01*
X152232669Y-85421153D01*
X158699500Y-85421153D01*
X158699500Y-85578846D01*
X158730261Y-85733489D01*
X158730264Y-85733501D01*
X158790602Y-85879172D01*
X158790609Y-85879185D01*
X158878210Y-86010288D01*
X158878213Y-86010292D01*
X158989707Y-86121786D01*
X158989711Y-86121789D01*
X159120814Y-86209390D01*
X159120827Y-86209397D01*
X159266498Y-86269735D01*
X159266503Y-86269737D01*
X159421153Y-86300499D01*
X159421156Y-86300500D01*
X159421158Y-86300500D01*
X159578844Y-86300500D01*
X159578845Y-86300499D01*
X159733497Y-86269737D01*
X159879179Y-86209394D01*
X160010289Y-86121789D01*
X160121789Y-86010289D01*
X160209394Y-85879179D01*
X160269737Y-85733497D01*
X160300500Y-85578842D01*
X160300500Y-85421158D01*
X160300500Y-85421155D01*
X160300499Y-85421153D01*
X160289825Y-85367491D01*
X160269737Y-85266503D01*
X160209794Y-85121786D01*
X160209397Y-85120827D01*
X160209390Y-85120814D01*
X160121789Y-84989711D01*
X160121786Y-84989707D01*
X160010292Y-84878213D01*
X160010288Y-84878210D01*
X159879185Y-84790609D01*
X159879172Y-84790602D01*
X159733501Y-84730264D01*
X159733489Y-84730261D01*
X159578845Y-84699500D01*
X159578842Y-84699500D01*
X159421158Y-84699500D01*
X159421155Y-84699500D01*
X159266510Y-84730261D01*
X159266498Y-84730264D01*
X159120827Y-84790602D01*
X159120814Y-84790609D01*
X158989711Y-84878210D01*
X158989707Y-84878213D01*
X158878213Y-84989707D01*
X158878210Y-84989711D01*
X158790609Y-85120814D01*
X158790602Y-85120827D01*
X158730264Y-85266498D01*
X158730261Y-85266510D01*
X158699500Y-85421153D01*
X152232669Y-85421153D01*
X152234446Y-85415937D01*
X152233552Y-85406730D01*
X152245536Y-85383391D01*
X152253999Y-85358556D01*
X152262091Y-85351152D01*
X152265468Y-85344576D01*
X152286128Y-85329159D01*
X152293175Y-85322713D01*
X152296060Y-85321040D01*
X152307816Y-85315051D01*
X152339095Y-85292324D01*
X152479786Y-85190109D01*
X152479788Y-85190106D01*
X152479792Y-85190104D01*
X152630104Y-85039792D01*
X152630106Y-85039788D01*
X152630109Y-85039786D01*
X152755048Y-84867820D01*
X152755047Y-84867820D01*
X152755051Y-84867816D01*
X152851557Y-84678412D01*
X152917246Y-84476243D01*
X152925971Y-84421153D01*
X161699500Y-84421153D01*
X161699500Y-84578846D01*
X161730261Y-84733489D01*
X161730264Y-84733501D01*
X161790602Y-84879172D01*
X161790609Y-84879185D01*
X161878210Y-85010288D01*
X161878213Y-85010292D01*
X161989707Y-85121786D01*
X161989711Y-85121789D01*
X162120814Y-85209390D01*
X162120827Y-85209397D01*
X162258683Y-85266498D01*
X162266503Y-85269737D01*
X162421153Y-85300499D01*
X162421156Y-85300500D01*
X162421158Y-85300500D01*
X162578844Y-85300500D01*
X162578845Y-85300499D01*
X162733497Y-85269737D01*
X162879179Y-85209394D01*
X163010289Y-85121789D01*
X163121789Y-85010289D01*
X163209394Y-84879179D01*
X163269737Y-84733497D01*
X163300500Y-84578842D01*
X163300500Y-84421158D01*
X163300500Y-84421155D01*
X163300499Y-84421153D01*
X164199500Y-84421153D01*
X164199500Y-84578846D01*
X164230261Y-84733489D01*
X164230264Y-84733501D01*
X164290602Y-84879172D01*
X164290609Y-84879185D01*
X164378210Y-85010288D01*
X164378213Y-85010292D01*
X164489707Y-85121786D01*
X164489711Y-85121789D01*
X164620814Y-85209390D01*
X164620827Y-85209397D01*
X164758683Y-85266498D01*
X164766503Y-85269737D01*
X164921153Y-85300499D01*
X164921156Y-85300500D01*
X164921158Y-85300500D01*
X165078844Y-85300500D01*
X165078845Y-85300499D01*
X165233497Y-85269737D01*
X165379179Y-85209394D01*
X165510289Y-85121789D01*
X165621789Y-85010289D01*
X165709394Y-84879179D01*
X165769737Y-84733497D01*
X165800500Y-84578842D01*
X165800500Y-84421158D01*
X165800500Y-84421155D01*
X165800499Y-84421153D01*
X165769738Y-84266510D01*
X165769737Y-84266503D01*
X165709794Y-84121786D01*
X165709397Y-84120827D01*
X165709390Y-84120814D01*
X165621789Y-83989711D01*
X165621786Y-83989707D01*
X165510292Y-83878213D01*
X165510288Y-83878210D01*
X165379185Y-83790609D01*
X165379172Y-83790602D01*
X165233501Y-83730264D01*
X165233489Y-83730261D01*
X165078845Y-83699500D01*
X165078842Y-83699500D01*
X164921158Y-83699500D01*
X164921155Y-83699500D01*
X164766510Y-83730261D01*
X164766498Y-83730264D01*
X164620827Y-83790602D01*
X164620814Y-83790609D01*
X164489711Y-83878210D01*
X164489707Y-83878213D01*
X164378213Y-83989707D01*
X164378210Y-83989711D01*
X164290609Y-84120814D01*
X164290602Y-84120827D01*
X164230264Y-84266498D01*
X164230261Y-84266510D01*
X164199500Y-84421153D01*
X163300499Y-84421153D01*
X163269738Y-84266510D01*
X163269737Y-84266503D01*
X163209794Y-84121786D01*
X163209397Y-84120827D01*
X163209390Y-84120814D01*
X163121789Y-83989711D01*
X163121786Y-83989707D01*
X163010292Y-83878213D01*
X163010288Y-83878210D01*
X162879185Y-83790609D01*
X162879172Y-83790602D01*
X162733501Y-83730264D01*
X162733489Y-83730261D01*
X162578845Y-83699500D01*
X162578842Y-83699500D01*
X162421158Y-83699500D01*
X162421155Y-83699500D01*
X162266510Y-83730261D01*
X162266498Y-83730264D01*
X162120827Y-83790602D01*
X162120814Y-83790609D01*
X161989711Y-83878210D01*
X161989707Y-83878213D01*
X161878213Y-83989707D01*
X161878210Y-83989711D01*
X161790609Y-84120814D01*
X161790602Y-84120827D01*
X161730264Y-84266498D01*
X161730261Y-84266510D01*
X161699500Y-84421153D01*
X152925971Y-84421153D01*
X152950500Y-84266287D01*
X152950500Y-84053713D01*
X152917246Y-83843757D01*
X152851557Y-83641588D01*
X152755051Y-83452184D01*
X152755049Y-83452181D01*
X152755048Y-83452179D01*
X152732507Y-83421153D01*
X158699500Y-83421153D01*
X158699500Y-83578846D01*
X158730261Y-83733489D01*
X158730264Y-83733501D01*
X158790602Y-83879172D01*
X158790609Y-83879185D01*
X158878210Y-84010288D01*
X158878213Y-84010292D01*
X158989707Y-84121786D01*
X158989711Y-84121789D01*
X159120814Y-84209390D01*
X159120827Y-84209397D01*
X159258171Y-84266286D01*
X159266503Y-84269737D01*
X159421153Y-84300499D01*
X159421156Y-84300500D01*
X159421158Y-84300500D01*
X159578844Y-84300500D01*
X159578845Y-84300499D01*
X159589179Y-84298443D01*
X159614287Y-84293450D01*
X159614292Y-84293449D01*
X159699800Y-84276439D01*
X159733497Y-84269737D01*
X159879179Y-84209394D01*
X160010289Y-84121789D01*
X160121789Y-84010289D01*
X160209394Y-83879179D01*
X160269737Y-83733497D01*
X160300500Y-83578842D01*
X160300500Y-83421158D01*
X160300500Y-83421155D01*
X160300499Y-83421153D01*
X160269738Y-83266510D01*
X160269737Y-83266503D01*
X160213153Y-83129896D01*
X160209397Y-83120827D01*
X160209390Y-83120814D01*
X160121789Y-82989711D01*
X160121786Y-82989707D01*
X160010292Y-82878213D01*
X160010288Y-82878210D01*
X159879185Y-82790609D01*
X159879172Y-82790602D01*
X159733501Y-82730264D01*
X159733489Y-82730261D01*
X159578845Y-82699500D01*
X159578842Y-82699500D01*
X159421158Y-82699500D01*
X159421155Y-82699500D01*
X159266510Y-82730261D01*
X159266498Y-82730264D01*
X159120827Y-82790602D01*
X159120814Y-82790609D01*
X158989711Y-82878210D01*
X158989707Y-82878213D01*
X158878213Y-82989707D01*
X158878210Y-82989711D01*
X158790609Y-83120814D01*
X158790602Y-83120827D01*
X158730264Y-83266498D01*
X158730261Y-83266510D01*
X158699500Y-83421153D01*
X152732507Y-83421153D01*
X152630109Y-83280213D01*
X152479786Y-83129890D01*
X152307820Y-83004951D01*
X152307115Y-83004591D01*
X152299054Y-83000485D01*
X152248259Y-82952512D01*
X152231463Y-82884692D01*
X152253999Y-82818556D01*
X152299054Y-82779515D01*
X152307816Y-82775051D01*
X152329789Y-82759086D01*
X152479786Y-82650109D01*
X152479788Y-82650106D01*
X152479792Y-82650104D01*
X152630104Y-82499792D01*
X152630106Y-82499788D01*
X152630109Y-82499786D01*
X152755048Y-82327820D01*
X152755047Y-82327820D01*
X152755051Y-82327816D01*
X152851557Y-82138412D01*
X152917246Y-81936243D01*
X152950500Y-81726287D01*
X152950500Y-81513713D01*
X152917246Y-81303757D01*
X152851557Y-81101588D01*
X152755051Y-80912184D01*
X152755049Y-80912181D01*
X152755048Y-80912179D01*
X152630109Y-80740213D01*
X152479786Y-80589890D01*
X152307820Y-80464951D01*
X152307115Y-80464591D01*
X152299054Y-80460485D01*
X152248259Y-80412512D01*
X152231463Y-80344692D01*
X152253999Y-80278556D01*
X152299054Y-80239515D01*
X152307816Y-80235051D01*
X152329789Y-80219086D01*
X152479786Y-80110109D01*
X152479788Y-80110106D01*
X152479792Y-80110104D01*
X152630104Y-79959792D01*
X152630106Y-79959788D01*
X152630109Y-79959786D01*
X152755048Y-79787820D01*
X152755047Y-79787820D01*
X152755051Y-79787816D01*
X152851557Y-79598412D01*
X152917246Y-79396243D01*
X152950500Y-79186287D01*
X152950500Y-78973713D01*
X152942175Y-78921153D01*
X155699500Y-78921153D01*
X155699500Y-79078846D01*
X155730261Y-79233489D01*
X155730264Y-79233501D01*
X155790602Y-79379172D01*
X155790609Y-79379185D01*
X155878210Y-79510288D01*
X155878213Y-79510292D01*
X155989707Y-79621786D01*
X155989711Y-79621789D01*
X156120814Y-79709390D01*
X156120827Y-79709397D01*
X156266498Y-79769735D01*
X156266503Y-79769737D01*
X156421153Y-79800499D01*
X156421156Y-79800500D01*
X156421158Y-79800500D01*
X156578844Y-79800500D01*
X156578845Y-79800499D01*
X156733497Y-79769737D01*
X156879179Y-79709394D01*
X157010289Y-79621789D01*
X157121789Y-79510289D01*
X157209394Y-79379179D01*
X157269737Y-79233497D01*
X157272192Y-79221153D01*
X157899500Y-79221153D01*
X157899500Y-79378846D01*
X157930261Y-79533489D01*
X157930264Y-79533501D01*
X157990602Y-79679172D01*
X157990609Y-79679185D01*
X158078210Y-79810288D01*
X158078213Y-79810292D01*
X158189707Y-79921786D01*
X158189711Y-79921789D01*
X158320814Y-80009390D01*
X158320827Y-80009397D01*
X158466498Y-80069735D01*
X158466503Y-80069737D01*
X158621153Y-80100499D01*
X158621156Y-80100500D01*
X158621158Y-80100500D01*
X158778844Y-80100500D01*
X158778845Y-80100499D01*
X158933497Y-80069737D01*
X159079179Y-80009394D01*
X159210289Y-79921789D01*
X159321789Y-79810289D01*
X159409394Y-79679179D01*
X159469737Y-79533497D01*
X159500500Y-79378842D01*
X159500500Y-79221158D01*
X159500500Y-79221155D01*
X159500499Y-79221153D01*
X159472192Y-79078846D01*
X159469737Y-79066503D01*
X159469735Y-79066498D01*
X159409397Y-78920827D01*
X159409390Y-78920814D01*
X159321789Y-78789711D01*
X159321786Y-78789707D01*
X159210292Y-78678213D01*
X159210288Y-78678210D01*
X159079185Y-78590609D01*
X159079172Y-78590602D01*
X158933501Y-78530264D01*
X158933489Y-78530261D01*
X158778845Y-78499500D01*
X158778842Y-78499500D01*
X158621158Y-78499500D01*
X158621155Y-78499500D01*
X158466510Y-78530261D01*
X158466498Y-78530264D01*
X158320827Y-78590602D01*
X158320814Y-78590609D01*
X158189711Y-78678210D01*
X158189707Y-78678213D01*
X158078213Y-78789707D01*
X158078210Y-78789711D01*
X157990609Y-78920814D01*
X157990602Y-78920827D01*
X157930264Y-79066498D01*
X157930261Y-79066510D01*
X157899500Y-79221153D01*
X157272192Y-79221153D01*
X157278216Y-79190874D01*
X157278216Y-79190873D01*
X157300499Y-79078846D01*
X157300500Y-79078844D01*
X157300500Y-78921155D01*
X157300499Y-78921153D01*
X157274353Y-78789711D01*
X157269737Y-78766503D01*
X157268600Y-78763757D01*
X157209397Y-78620827D01*
X157209390Y-78620814D01*
X157121789Y-78489711D01*
X157121786Y-78489707D01*
X157010292Y-78378213D01*
X157010288Y-78378210D01*
X156879185Y-78290609D01*
X156879172Y-78290602D01*
X156733501Y-78230264D01*
X156733489Y-78230261D01*
X156578845Y-78199500D01*
X156578842Y-78199500D01*
X156421158Y-78199500D01*
X156421155Y-78199500D01*
X156266510Y-78230261D01*
X156266498Y-78230264D01*
X156120827Y-78290602D01*
X156120814Y-78290609D01*
X155989711Y-78378210D01*
X155989707Y-78378213D01*
X155878213Y-78489707D01*
X155878210Y-78489711D01*
X155790609Y-78620814D01*
X155790602Y-78620827D01*
X155730264Y-78766498D01*
X155730261Y-78766510D01*
X155699500Y-78921153D01*
X152942175Y-78921153D01*
X152917246Y-78763757D01*
X152851557Y-78561588D01*
X152755051Y-78372184D01*
X152755049Y-78372181D01*
X152755048Y-78372179D01*
X152630109Y-78200213D01*
X152479786Y-78049890D01*
X152307820Y-77924951D01*
X152307115Y-77924591D01*
X152299054Y-77920485D01*
X152248259Y-77872512D01*
X152231463Y-77804692D01*
X152253999Y-77738556D01*
X152299054Y-77699515D01*
X152307816Y-77695051D01*
X152329789Y-77679086D01*
X152479786Y-77570109D01*
X152479788Y-77570106D01*
X152479792Y-77570104D01*
X152630104Y-77419792D01*
X152630106Y-77419788D01*
X152630109Y-77419786D01*
X152755048Y-77247820D01*
X152755047Y-77247820D01*
X152755051Y-77247816D01*
X152851557Y-77058412D01*
X152917246Y-76856243D01*
X152950500Y-76646287D01*
X152950500Y-76433713D01*
X152917246Y-76223757D01*
X152851557Y-76021588D01*
X152800383Y-75921153D01*
X157199500Y-75921153D01*
X157199500Y-76078846D01*
X157230261Y-76233489D01*
X157230264Y-76233501D01*
X157290602Y-76379172D01*
X157290609Y-76379185D01*
X157378210Y-76510288D01*
X157378213Y-76510292D01*
X157489707Y-76621786D01*
X157489711Y-76621789D01*
X157620814Y-76709390D01*
X157620827Y-76709397D01*
X157766498Y-76769735D01*
X157766503Y-76769737D01*
X157921153Y-76800499D01*
X157921156Y-76800500D01*
X157921158Y-76800500D01*
X158078844Y-76800500D01*
X158078845Y-76800499D01*
X158233497Y-76769737D01*
X158379179Y-76709394D01*
X158510289Y-76621789D01*
X158621789Y-76510289D01*
X158681348Y-76421153D01*
X160699500Y-76421153D01*
X160699500Y-76578846D01*
X160730261Y-76733489D01*
X160730264Y-76733501D01*
X160790602Y-76879172D01*
X160790609Y-76879185D01*
X160878210Y-77010288D01*
X160878213Y-77010292D01*
X160989707Y-77121786D01*
X160989711Y-77121789D01*
X161120814Y-77209390D01*
X161120827Y-77209397D01*
X161213590Y-77247820D01*
X161266503Y-77269737D01*
X161421153Y-77300499D01*
X161421156Y-77300500D01*
X161421158Y-77300500D01*
X161578844Y-77300500D01*
X161578845Y-77300499D01*
X161733497Y-77269737D01*
X161879179Y-77209394D01*
X162010289Y-77121789D01*
X162121789Y-77010289D01*
X162209394Y-76879179D01*
X162269737Y-76733497D01*
X162300500Y-76578842D01*
X162300500Y-76421158D01*
X162300500Y-76421155D01*
X162300499Y-76421153D01*
X162269738Y-76266510D01*
X162269737Y-76266503D01*
X162256062Y-76233489D01*
X162209397Y-76120827D01*
X162209390Y-76120814D01*
X162121790Y-75989712D01*
X162121784Y-75989705D01*
X162053232Y-75921153D01*
X165199500Y-75921153D01*
X165199500Y-76078846D01*
X165230261Y-76233489D01*
X165230264Y-76233501D01*
X165290602Y-76379172D01*
X165290609Y-76379185D01*
X165378210Y-76510288D01*
X165378213Y-76510292D01*
X165489707Y-76621786D01*
X165489711Y-76621789D01*
X165620814Y-76709390D01*
X165620827Y-76709397D01*
X165766498Y-76769735D01*
X165766503Y-76769737D01*
X165921153Y-76800499D01*
X165921156Y-76800500D01*
X165921158Y-76800500D01*
X166078844Y-76800500D01*
X166078845Y-76800499D01*
X166233497Y-76769737D01*
X166379179Y-76709394D01*
X166510289Y-76621789D01*
X166621789Y-76510289D01*
X166709394Y-76379179D01*
X166769737Y-76233497D01*
X166800500Y-76078842D01*
X166800500Y-75921158D01*
X166800500Y-75921155D01*
X166800499Y-75921153D01*
X166774531Y-75790606D01*
X166769737Y-75766503D01*
X166769735Y-75766498D01*
X166709397Y-75620827D01*
X166709390Y-75620814D01*
X166621789Y-75489711D01*
X166621786Y-75489707D01*
X166510292Y-75378213D01*
X166510288Y-75378210D01*
X166379185Y-75290609D01*
X166379172Y-75290602D01*
X166233501Y-75230264D01*
X166233489Y-75230261D01*
X166078845Y-75199500D01*
X166078842Y-75199500D01*
X165921158Y-75199500D01*
X165921155Y-75199500D01*
X165766510Y-75230261D01*
X165766498Y-75230264D01*
X165620827Y-75290602D01*
X165620814Y-75290609D01*
X165489711Y-75378210D01*
X165489707Y-75378213D01*
X165378213Y-75489707D01*
X165378210Y-75489711D01*
X165290609Y-75620814D01*
X165290602Y-75620827D01*
X165230264Y-75766498D01*
X165230261Y-75766510D01*
X165199500Y-75921153D01*
X162053232Y-75921153D01*
X162010292Y-75878213D01*
X162010288Y-75878210D01*
X161879185Y-75790609D01*
X161879172Y-75790602D01*
X161733501Y-75730264D01*
X161733489Y-75730261D01*
X161578845Y-75699500D01*
X161578842Y-75699500D01*
X161421158Y-75699500D01*
X161421155Y-75699500D01*
X161266510Y-75730261D01*
X161266498Y-75730264D01*
X161120827Y-75790602D01*
X161120814Y-75790609D01*
X160989711Y-75878210D01*
X160989707Y-75878213D01*
X160878213Y-75989707D01*
X160878210Y-75989711D01*
X160790609Y-76120814D01*
X160790602Y-76120827D01*
X160730264Y-76266498D01*
X160730261Y-76266510D01*
X160699500Y-76421153D01*
X158681348Y-76421153D01*
X158709394Y-76379179D01*
X158769737Y-76233497D01*
X158800500Y-76078842D01*
X158800500Y-75921158D01*
X158800500Y-75921155D01*
X158800499Y-75921153D01*
X158774531Y-75790606D01*
X158769737Y-75766503D01*
X158769735Y-75766498D01*
X158709397Y-75620827D01*
X158709390Y-75620814D01*
X158621789Y-75489711D01*
X158621786Y-75489707D01*
X158510292Y-75378213D01*
X158510288Y-75378210D01*
X158379185Y-75290609D01*
X158379172Y-75290602D01*
X158233501Y-75230264D01*
X158233489Y-75230261D01*
X158078845Y-75199500D01*
X158078842Y-75199500D01*
X157921158Y-75199500D01*
X157921155Y-75199500D01*
X157766510Y-75230261D01*
X157766498Y-75230264D01*
X157620827Y-75290602D01*
X157620814Y-75290609D01*
X157489711Y-75378210D01*
X157489707Y-75378213D01*
X157378213Y-75489707D01*
X157378210Y-75489711D01*
X157290609Y-75620814D01*
X157290602Y-75620827D01*
X157230264Y-75766498D01*
X157230261Y-75766510D01*
X157199500Y-75921153D01*
X152800383Y-75921153D01*
X152755051Y-75832184D01*
X152755049Y-75832181D01*
X152755048Y-75832179D01*
X152630109Y-75660213D01*
X152479786Y-75509890D01*
X152307820Y-75384951D01*
X152307115Y-75384591D01*
X152299054Y-75380485D01*
X152248259Y-75332512D01*
X152231463Y-75264692D01*
X152253999Y-75198556D01*
X152299054Y-75159515D01*
X152307816Y-75155051D01*
X152329789Y-75139086D01*
X152479786Y-75030109D01*
X152479788Y-75030106D01*
X152479792Y-75030104D01*
X152630104Y-74879792D01*
X152630106Y-74879788D01*
X152630109Y-74879786D01*
X152753903Y-74709396D01*
X152755051Y-74707816D01*
X152851557Y-74518412D01*
X152895652Y-74382701D01*
X152935087Y-74325029D01*
X152999445Y-74297830D01*
X153068292Y-74309744D01*
X153101262Y-74333341D01*
X153189707Y-74421786D01*
X153189711Y-74421789D01*
X153320814Y-74509390D01*
X153320827Y-74509397D01*
X153466498Y-74569735D01*
X153466503Y-74569737D01*
X153621153Y-74600499D01*
X153621156Y-74600500D01*
X153621158Y-74600500D01*
X153778844Y-74600500D01*
X153778845Y-74600499D01*
X153933497Y-74569737D01*
X154057403Y-74518414D01*
X154079172Y-74509397D01*
X154079172Y-74509396D01*
X154079179Y-74509394D01*
X154210289Y-74421789D01*
X154321789Y-74310289D01*
X154409394Y-74179179D01*
X154469737Y-74033497D01*
X154500500Y-73878842D01*
X154500500Y-73721158D01*
X154500500Y-73721155D01*
X154500499Y-73721153D01*
X154500246Y-73719880D01*
X154469737Y-73566503D01*
X154437929Y-73489711D01*
X154409397Y-73420827D01*
X154409390Y-73420814D01*
X154321789Y-73289711D01*
X154321786Y-73289707D01*
X154210292Y-73178213D01*
X154210288Y-73178210D01*
X154079185Y-73090609D01*
X154079172Y-73090602D01*
X153933501Y-73030264D01*
X153933489Y-73030261D01*
X153778845Y-72999500D01*
X153778842Y-72999500D01*
X153621158Y-72999500D01*
X153621155Y-72999500D01*
X153466510Y-73030261D01*
X153466498Y-73030264D01*
X153320827Y-73090602D01*
X153320814Y-73090609D01*
X153189711Y-73178210D01*
X153189707Y-73178213D01*
X153078213Y-73289707D01*
X153078210Y-73289711D01*
X153011687Y-73389269D01*
X152958074Y-73434074D01*
X152888749Y-73442781D01*
X152825722Y-73412626D01*
X152798100Y-73376673D01*
X152795381Y-73371336D01*
X152755051Y-73292184D01*
X152755049Y-73292181D01*
X152755048Y-73292179D01*
X152630109Y-73120213D01*
X152479786Y-72969890D01*
X152307820Y-72844951D01*
X152307115Y-72844591D01*
X152299054Y-72840485D01*
X152248259Y-72792512D01*
X152231463Y-72724692D01*
X152253999Y-72658556D01*
X152299054Y-72619515D01*
X152307816Y-72615051D01*
X152368913Y-72570662D01*
X152479786Y-72490109D01*
X152479788Y-72490106D01*
X152479792Y-72490104D01*
X152630104Y-72339792D01*
X152630106Y-72339788D01*
X152630109Y-72339786D01*
X152755048Y-72167820D01*
X152755047Y-72167820D01*
X152755051Y-72167816D01*
X152851557Y-71978412D01*
X152917246Y-71776243D01*
X152950500Y-71566287D01*
X152950500Y-71421153D01*
X159699500Y-71421153D01*
X159699500Y-71578846D01*
X159730261Y-71733489D01*
X159730264Y-71733501D01*
X159790602Y-71879172D01*
X159790609Y-71879185D01*
X159878210Y-72010288D01*
X159878213Y-72010292D01*
X159989707Y-72121786D01*
X159989711Y-72121789D01*
X160120814Y-72209390D01*
X160120827Y-72209397D01*
X160266498Y-72269735D01*
X160266503Y-72269737D01*
X160421153Y-72300499D01*
X160421156Y-72300500D01*
X160421158Y-72300500D01*
X160578844Y-72300500D01*
X160578845Y-72300499D01*
X160733497Y-72269737D01*
X160879179Y-72209394D01*
X161010289Y-72121789D01*
X161121789Y-72010289D01*
X161209394Y-71879179D01*
X161269737Y-71733497D01*
X161300500Y-71578842D01*
X161300500Y-71421158D01*
X161300500Y-71421155D01*
X161300499Y-71421153D01*
X161292150Y-71379179D01*
X161269737Y-71266503D01*
X161242398Y-71200500D01*
X161209397Y-71120827D01*
X161209390Y-71120814D01*
X161121789Y-70989711D01*
X161121786Y-70989707D01*
X161010292Y-70878213D01*
X161010288Y-70878210D01*
X160879185Y-70790609D01*
X160879172Y-70790602D01*
X160733501Y-70730264D01*
X160733489Y-70730261D01*
X160578845Y-70699500D01*
X160578842Y-70699500D01*
X160421158Y-70699500D01*
X160421155Y-70699500D01*
X160266510Y-70730261D01*
X160266498Y-70730264D01*
X160120827Y-70790602D01*
X160120814Y-70790609D01*
X159989711Y-70878210D01*
X159989707Y-70878213D01*
X159878213Y-70989707D01*
X159878210Y-70989711D01*
X159790609Y-71120814D01*
X159790602Y-71120827D01*
X159730264Y-71266498D01*
X159730261Y-71266510D01*
X159699500Y-71421153D01*
X152950500Y-71421153D01*
X152950500Y-71353713D01*
X152917246Y-71143757D01*
X152851557Y-70941588D01*
X152755051Y-70752184D01*
X152755049Y-70752181D01*
X152755048Y-70752179D01*
X152630109Y-70580213D01*
X152479792Y-70429896D01*
X152460513Y-70415889D01*
X152460509Y-70415886D01*
X152330119Y-70321153D01*
X153299500Y-70321153D01*
X153299500Y-70478846D01*
X153330261Y-70633489D01*
X153330264Y-70633501D01*
X153390602Y-70779172D01*
X153390609Y-70779185D01*
X153478210Y-70910288D01*
X153478213Y-70910292D01*
X153589707Y-71021786D01*
X153589711Y-71021789D01*
X153720814Y-71109390D01*
X153720827Y-71109397D01*
X153803781Y-71143757D01*
X153866503Y-71169737D01*
X154021153Y-71200499D01*
X154021156Y-71200500D01*
X154021158Y-71200500D01*
X154178844Y-71200500D01*
X154178845Y-71200499D01*
X154333497Y-71169737D01*
X154451592Y-71120821D01*
X154479172Y-71109397D01*
X154479172Y-71109396D01*
X154479179Y-71109394D01*
X154610289Y-71021789D01*
X154721789Y-70910289D01*
X154809394Y-70779179D01*
X154869737Y-70633497D01*
X154900500Y-70478842D01*
X154900500Y-70421153D01*
X157199500Y-70421153D01*
X157199500Y-70578846D01*
X157230261Y-70733489D01*
X157230264Y-70733501D01*
X157290602Y-70879172D01*
X157290609Y-70879185D01*
X157378210Y-71010288D01*
X157378213Y-71010292D01*
X157489707Y-71121786D01*
X157489711Y-71121789D01*
X157620814Y-71209390D01*
X157620827Y-71209397D01*
X157758683Y-71266498D01*
X157766503Y-71269737D01*
X157921153Y-71300499D01*
X157921156Y-71300500D01*
X157921158Y-71300500D01*
X158078844Y-71300500D01*
X158078845Y-71300499D01*
X158089179Y-71298443D01*
X158114287Y-71293450D01*
X158114292Y-71293449D01*
X158199800Y-71276439D01*
X158233497Y-71269737D01*
X158379179Y-71209394D01*
X158510289Y-71121789D01*
X158621789Y-71010289D01*
X158709394Y-70879179D01*
X158769737Y-70733497D01*
X158800500Y-70578842D01*
X158800500Y-70421158D01*
X158800500Y-70421155D01*
X158800499Y-70421153D01*
X158782937Y-70332863D01*
X158769737Y-70266503D01*
X158760298Y-70243714D01*
X158709397Y-70120827D01*
X158709390Y-70120814D01*
X158621789Y-69989711D01*
X158621786Y-69989707D01*
X158620885Y-69988806D01*
X158620563Y-69988217D01*
X158617924Y-69985001D01*
X158618533Y-69984500D01*
X158587400Y-69927483D01*
X158592384Y-69857791D01*
X158634256Y-69801858D01*
X158684372Y-69779508D01*
X158733497Y-69769737D01*
X158852388Y-69720491D01*
X158879172Y-69709397D01*
X158879172Y-69709396D01*
X158879179Y-69709394D01*
X159010289Y-69621789D01*
X159121789Y-69510289D01*
X159209394Y-69379179D01*
X159209397Y-69379172D01*
X159235439Y-69316301D01*
X159279279Y-69261897D01*
X159345573Y-69239832D01*
X159413273Y-69257111D01*
X159460884Y-69308248D01*
X159464561Y-69316301D01*
X159490602Y-69379172D01*
X159490609Y-69379185D01*
X159578210Y-69510288D01*
X159578213Y-69510292D01*
X159689707Y-69621786D01*
X159689711Y-69621789D01*
X159820814Y-69709390D01*
X159820827Y-69709397D01*
X159918969Y-69750048D01*
X159966503Y-69769737D01*
X160082468Y-69792804D01*
X160121153Y-69800499D01*
X160121156Y-69800500D01*
X160121158Y-69800500D01*
X160278844Y-69800500D01*
X160278845Y-69800499D01*
X160433497Y-69769737D01*
X160552388Y-69720491D01*
X160579172Y-69709397D01*
X160579172Y-69709396D01*
X160579179Y-69709394D01*
X160694840Y-69632111D01*
X160761516Y-69611234D01*
X160828896Y-69629718D01*
X160832584Y-69632088D01*
X160918813Y-69689704D01*
X160918815Y-69689705D01*
X160918819Y-69689707D01*
X161016734Y-69730264D01*
X161064495Y-69750047D01*
X161219145Y-69780809D01*
X161219148Y-69780810D01*
X161219150Y-69780810D01*
X161376836Y-69780810D01*
X161376837Y-69780809D01*
X161531489Y-69750047D01*
X161623226Y-69712048D01*
X161692691Y-69704580D01*
X161718128Y-69712049D01*
X161718495Y-69712201D01*
X161718498Y-69712203D01*
X161864180Y-69772546D01*
X162011540Y-69801858D01*
X162018830Y-69803308D01*
X162018833Y-69803309D01*
X162176325Y-69803309D01*
X162243364Y-69822994D01*
X162287503Y-69873933D01*
X162287736Y-69873809D01*
X162288284Y-69874834D01*
X162289119Y-69875798D01*
X162290524Y-69879025D01*
X162290609Y-69879185D01*
X162378210Y-70010288D01*
X162378213Y-70010292D01*
X162489707Y-70121786D01*
X162489710Y-70121788D01*
X162489711Y-70121789D01*
X162498245Y-70127491D01*
X162527289Y-70146898D01*
X162572093Y-70200511D01*
X162580800Y-70269836D01*
X162550645Y-70332863D01*
X162527289Y-70353102D01*
X162489707Y-70378213D01*
X162378213Y-70489707D01*
X162378210Y-70489711D01*
X162290609Y-70620814D01*
X162290602Y-70620827D01*
X162230264Y-70766498D01*
X162230261Y-70766510D01*
X162199500Y-70921153D01*
X162199500Y-71078846D01*
X162230261Y-71233489D01*
X162230264Y-71233501D01*
X162290602Y-71379172D01*
X162290609Y-71379185D01*
X162378210Y-71510288D01*
X162378213Y-71510292D01*
X162398009Y-71530088D01*
X162431494Y-71591411D01*
X162426510Y-71661103D01*
X162413432Y-71686657D01*
X162390610Y-71720814D01*
X162390602Y-71720828D01*
X162330264Y-71866498D01*
X162330261Y-71866510D01*
X162299500Y-72021153D01*
X162299500Y-72178846D01*
X162330260Y-72333488D01*
X162330261Y-72333489D01*
X162330263Y-72333497D01*
X162363192Y-72412995D01*
X162370660Y-72482464D01*
X162351733Y-72529336D01*
X162290608Y-72620816D01*
X162290602Y-72620827D01*
X162230264Y-72766498D01*
X162230261Y-72766510D01*
X162199500Y-72921153D01*
X162199500Y-73078846D01*
X162230261Y-73233489D01*
X162230263Y-73233497D01*
X162249575Y-73280120D01*
X162257043Y-73349590D01*
X162225767Y-73412069D01*
X162165678Y-73447721D01*
X162095853Y-73445226D01*
X162047332Y-73415253D01*
X162010292Y-73378213D01*
X162010288Y-73378210D01*
X161879185Y-73290609D01*
X161879172Y-73290602D01*
X161733501Y-73230264D01*
X161733489Y-73230261D01*
X161578845Y-73199500D01*
X161578842Y-73199500D01*
X161421158Y-73199500D01*
X161421155Y-73199500D01*
X161266510Y-73230261D01*
X161266498Y-73230264D01*
X161120827Y-73290602D01*
X161120814Y-73290609D01*
X161068891Y-73325304D01*
X161002214Y-73346182D01*
X160934833Y-73327698D01*
X160931109Y-73325304D01*
X160879185Y-73290609D01*
X160879172Y-73290602D01*
X160733501Y-73230264D01*
X160733489Y-73230261D01*
X160578845Y-73199500D01*
X160578842Y-73199500D01*
X160421158Y-73199500D01*
X160421155Y-73199500D01*
X160266510Y-73230261D01*
X160266498Y-73230264D01*
X160120827Y-73290602D01*
X160120814Y-73290609D01*
X160068891Y-73325304D01*
X160002214Y-73346182D01*
X159934833Y-73327698D01*
X159931109Y-73325304D01*
X159879185Y-73290609D01*
X159879172Y-73290602D01*
X159733501Y-73230264D01*
X159733489Y-73230261D01*
X159578845Y-73199500D01*
X159578842Y-73199500D01*
X159421158Y-73199500D01*
X159421155Y-73199500D01*
X159266510Y-73230261D01*
X159266498Y-73230264D01*
X159120827Y-73290602D01*
X159120814Y-73290609D01*
X158989711Y-73378210D01*
X158989706Y-73378214D01*
X158952666Y-73415254D01*
X158891343Y-73448739D01*
X158821651Y-73443753D01*
X158765718Y-73401881D01*
X158741302Y-73336417D01*
X158750425Y-73280120D01*
X158769737Y-73233497D01*
X158800500Y-73078842D01*
X158800500Y-72921158D01*
X158800500Y-72921155D01*
X158800499Y-72921153D01*
X158776688Y-72801447D01*
X158769737Y-72766503D01*
X158762256Y-72748443D01*
X158709397Y-72620827D01*
X158709390Y-72620814D01*
X158621789Y-72489711D01*
X158621786Y-72489707D01*
X158510292Y-72378213D01*
X158510288Y-72378210D01*
X158379185Y-72290609D01*
X158379172Y-72290602D01*
X158233501Y-72230264D01*
X158233489Y-72230261D01*
X158078845Y-72199500D01*
X158078842Y-72199500D01*
X157921158Y-72199500D01*
X157921155Y-72199500D01*
X157766510Y-72230261D01*
X157766498Y-72230264D01*
X157620827Y-72290602D01*
X157620814Y-72290609D01*
X157489711Y-72378210D01*
X157489707Y-72378213D01*
X157378213Y-72489707D01*
X157378210Y-72489711D01*
X157290609Y-72620814D01*
X157290602Y-72620827D01*
X157230264Y-72766498D01*
X157230261Y-72766510D01*
X157199500Y-72921153D01*
X157199500Y-73078846D01*
X157230261Y-73233489D01*
X157230264Y-73233501D01*
X157290602Y-73379172D01*
X157290609Y-73379185D01*
X157325304Y-73431109D01*
X157346182Y-73497786D01*
X157327698Y-73565167D01*
X157325304Y-73568891D01*
X157290609Y-73620814D01*
X157290602Y-73620827D01*
X157230264Y-73766498D01*
X157230261Y-73766510D01*
X157199500Y-73921153D01*
X157199500Y-74078846D01*
X157230261Y-74233489D01*
X157230264Y-74233501D01*
X157290602Y-74379172D01*
X157290609Y-74379185D01*
X157378210Y-74510288D01*
X157378213Y-74510292D01*
X157489707Y-74621786D01*
X157489711Y-74621789D01*
X157620814Y-74709390D01*
X157620827Y-74709397D01*
X157766498Y-74769735D01*
X157766503Y-74769737D01*
X157921153Y-74800499D01*
X157921156Y-74800500D01*
X157921158Y-74800500D01*
X158078844Y-74800500D01*
X158078845Y-74800499D01*
X158233497Y-74769737D01*
X158379179Y-74709394D01*
X158510289Y-74621789D01*
X158621789Y-74510289D01*
X158629145Y-74499279D01*
X158646898Y-74472712D01*
X158700510Y-74427906D01*
X158769835Y-74419199D01*
X158832862Y-74449353D01*
X158853102Y-74472712D01*
X158878207Y-74510284D01*
X158878213Y-74510292D01*
X158989707Y-74621786D01*
X158989711Y-74621789D01*
X159120814Y-74709390D01*
X159120827Y-74709397D01*
X159266498Y-74769735D01*
X159266503Y-74769737D01*
X159421153Y-74800499D01*
X159421156Y-74800500D01*
X159421158Y-74800500D01*
X159578844Y-74800500D01*
X159578845Y-74800499D01*
X159733497Y-74769737D01*
X159879179Y-74709394D01*
X159931110Y-74674694D01*
X159997785Y-74653816D01*
X160065165Y-74672300D01*
X160068863Y-74674676D01*
X160120821Y-74709394D01*
X160120823Y-74709395D01*
X160120825Y-74709396D01*
X160266498Y-74769735D01*
X160266503Y-74769737D01*
X160421153Y-74800499D01*
X160421156Y-74800500D01*
X160421158Y-74800500D01*
X160578844Y-74800500D01*
X160578845Y-74800499D01*
X160733497Y-74769737D01*
X160879179Y-74709394D01*
X160931110Y-74674694D01*
X160997785Y-74653816D01*
X161065165Y-74672300D01*
X161068863Y-74674676D01*
X161120821Y-74709394D01*
X161120823Y-74709395D01*
X161120825Y-74709396D01*
X161266498Y-74769735D01*
X161266503Y-74769737D01*
X161421153Y-74800499D01*
X161421156Y-74800500D01*
X161421158Y-74800500D01*
X161578844Y-74800500D01*
X161578845Y-74800499D01*
X161733497Y-74769737D01*
X161879179Y-74709394D01*
X162010289Y-74621789D01*
X162121789Y-74510289D01*
X162209394Y-74379179D01*
X162269737Y-74233497D01*
X162300500Y-74078842D01*
X162300500Y-73921158D01*
X162300500Y-73921155D01*
X162300499Y-73921153D01*
X162295041Y-73893713D01*
X162269737Y-73766503D01*
X162250424Y-73719879D01*
X162242956Y-73650410D01*
X162274231Y-73587931D01*
X162334320Y-73552279D01*
X162404145Y-73554773D01*
X162452667Y-73584746D01*
X162489707Y-73621786D01*
X162489711Y-73621789D01*
X162620814Y-73709390D01*
X162620827Y-73709397D01*
X162758683Y-73766498D01*
X162766503Y-73769737D01*
X162921153Y-73800499D01*
X162921156Y-73800500D01*
X162921158Y-73800500D01*
X163078844Y-73800500D01*
X163078845Y-73800499D01*
X163233497Y-73769737D01*
X163379179Y-73709394D01*
X163510289Y-73621789D01*
X163621789Y-73510289D01*
X163709394Y-73379179D01*
X163769737Y-73233497D01*
X163800500Y-73078842D01*
X163800500Y-72921158D01*
X163800500Y-72921155D01*
X163800499Y-72921153D01*
X163776688Y-72801447D01*
X163769737Y-72766503D01*
X163736807Y-72687005D01*
X163729339Y-72617536D01*
X163748267Y-72570662D01*
X163809390Y-72479185D01*
X163809390Y-72479184D01*
X163809394Y-72479179D01*
X163869737Y-72333497D01*
X163900500Y-72178842D01*
X163900500Y-72021158D01*
X163900500Y-72021155D01*
X163900499Y-72021153D01*
X163891997Y-71978412D01*
X163869737Y-71866503D01*
X163869735Y-71866498D01*
X163809397Y-71720827D01*
X163809390Y-71720814D01*
X163721789Y-71589711D01*
X163721786Y-71589707D01*
X163701989Y-71569910D01*
X163668504Y-71508587D01*
X163673488Y-71438895D01*
X163686563Y-71413347D01*
X163709394Y-71379179D01*
X163769737Y-71233497D01*
X163800500Y-71078842D01*
X163800500Y-70921158D01*
X163800500Y-70921155D01*
X163800499Y-70921153D01*
X163774531Y-70790606D01*
X163769737Y-70766503D01*
X163756062Y-70733489D01*
X163709397Y-70620827D01*
X163709390Y-70620814D01*
X163621789Y-70489711D01*
X163621786Y-70489707D01*
X163510292Y-70378213D01*
X163510284Y-70378207D01*
X163472712Y-70353102D01*
X163427906Y-70299490D01*
X163419199Y-70230165D01*
X163449353Y-70167138D01*
X163472712Y-70146898D01*
X163501755Y-70127491D01*
X163510289Y-70121789D01*
X163621789Y-70010289D01*
X163709394Y-69879179D01*
X163710795Y-69875798D01*
X163740820Y-69803309D01*
X163769737Y-69733497D01*
X163800500Y-69578842D01*
X163800500Y-69421158D01*
X163800500Y-69421155D01*
X163800499Y-69421153D01*
X163783061Y-69333489D01*
X163769737Y-69266503D01*
X163733427Y-69178842D01*
X163709397Y-69120827D01*
X163709390Y-69120814D01*
X163684763Y-69083957D01*
X163642798Y-69021153D01*
X166499500Y-69021153D01*
X166499500Y-69178846D01*
X166530261Y-69333489D01*
X166530264Y-69333501D01*
X166590602Y-69479172D01*
X166590609Y-69479185D01*
X166678210Y-69610288D01*
X166678213Y-69610292D01*
X166789707Y-69721786D01*
X166789711Y-69721789D01*
X166920814Y-69809390D01*
X166920827Y-69809397D01*
X167066498Y-69869735D01*
X167066503Y-69869737D01*
X167221153Y-69900499D01*
X167221156Y-69900500D01*
X167221158Y-69900500D01*
X167378844Y-69900500D01*
X167378845Y-69900499D01*
X167533497Y-69869737D01*
X167679179Y-69809394D01*
X167810289Y-69721789D01*
X167921789Y-69610289D01*
X168009394Y-69479179D01*
X168069737Y-69333497D01*
X168100500Y-69178842D01*
X168100500Y-69021158D01*
X168100500Y-69021155D01*
X168100499Y-69021153D01*
X168094244Y-68989707D01*
X168069737Y-68866503D01*
X168025692Y-68760167D01*
X168009397Y-68720827D01*
X168009390Y-68720814D01*
X167921789Y-68589711D01*
X167921786Y-68589707D01*
X167810292Y-68478213D01*
X167810288Y-68478210D01*
X167679185Y-68390609D01*
X167679172Y-68390602D01*
X167533501Y-68330264D01*
X167533489Y-68330261D01*
X167378845Y-68299500D01*
X167378842Y-68299500D01*
X167221158Y-68299500D01*
X167221155Y-68299500D01*
X167066510Y-68330261D01*
X167066498Y-68330264D01*
X166920827Y-68390602D01*
X166920814Y-68390609D01*
X166789711Y-68478210D01*
X166789707Y-68478213D01*
X166678213Y-68589707D01*
X166678210Y-68589711D01*
X166590609Y-68720814D01*
X166590602Y-68720827D01*
X166530264Y-68866498D01*
X166530261Y-68866510D01*
X166499500Y-69021153D01*
X163642798Y-69021153D01*
X163621789Y-68989711D01*
X163621786Y-68989707D01*
X163510292Y-68878213D01*
X163510288Y-68878210D01*
X163379185Y-68790609D01*
X163379172Y-68790602D01*
X163233501Y-68730264D01*
X163233489Y-68730261D01*
X163078845Y-68699500D01*
X163078842Y-68699500D01*
X162921352Y-68699500D01*
X162854313Y-68679815D01*
X162810173Y-68628875D01*
X162809941Y-68629000D01*
X162809392Y-68627974D01*
X162808558Y-68627011D01*
X162807152Y-68623783D01*
X162807067Y-68623623D01*
X162719466Y-68492520D01*
X162719463Y-68492516D01*
X162607969Y-68381022D01*
X162607965Y-68381019D01*
X162476862Y-68293418D01*
X162476849Y-68293411D01*
X162331178Y-68233073D01*
X162331166Y-68233070D01*
X162176522Y-68202309D01*
X162176519Y-68202309D01*
X162018835Y-68202309D01*
X162018832Y-68202309D01*
X161864187Y-68233070D01*
X161864180Y-68233072D01*
X161772444Y-68271069D01*
X161702975Y-68278536D01*
X161677541Y-68271068D01*
X161531493Y-68210574D01*
X161531481Y-68210571D01*
X161376837Y-68179810D01*
X161376834Y-68179810D01*
X161219150Y-68179810D01*
X161219147Y-68179810D01*
X161064502Y-68210571D01*
X161064490Y-68210574D01*
X160918819Y-68270912D01*
X160918801Y-68270922D01*
X160803151Y-68348197D01*
X160736474Y-68369075D01*
X160669094Y-68350590D01*
X160665370Y-68348197D01*
X160579184Y-68290609D01*
X160579172Y-68290602D01*
X160433501Y-68230264D01*
X160433489Y-68230261D01*
X160278845Y-68199500D01*
X160278842Y-68199500D01*
X160121158Y-68199500D01*
X160121155Y-68199500D01*
X159966510Y-68230261D01*
X159966498Y-68230264D01*
X159820827Y-68290602D01*
X159820814Y-68290609D01*
X159689711Y-68378210D01*
X159689707Y-68378213D01*
X159578213Y-68489707D01*
X159578210Y-68489711D01*
X159490609Y-68620814D01*
X159490604Y-68620823D01*
X159464561Y-68683699D01*
X159420720Y-68738102D01*
X159354426Y-68760167D01*
X159286727Y-68742888D01*
X159239116Y-68691751D01*
X159235439Y-68683699D01*
X159209395Y-68620823D01*
X159209390Y-68620814D01*
X159121789Y-68489711D01*
X159121786Y-68489707D01*
X159010292Y-68378213D01*
X159010288Y-68378210D01*
X158879185Y-68290609D01*
X158879172Y-68290602D01*
X158733501Y-68230264D01*
X158733489Y-68230261D01*
X158578845Y-68199500D01*
X158578842Y-68199500D01*
X158421158Y-68199500D01*
X158421155Y-68199500D01*
X158266510Y-68230261D01*
X158266498Y-68230264D01*
X158120827Y-68290602D01*
X158120814Y-68290609D01*
X157989711Y-68378210D01*
X157989707Y-68378213D01*
X157878213Y-68489707D01*
X157878210Y-68489711D01*
X157790609Y-68620814D01*
X157790602Y-68620827D01*
X157730264Y-68766498D01*
X157730261Y-68766510D01*
X157699500Y-68921153D01*
X157699500Y-69078846D01*
X157730261Y-69233489D01*
X157730264Y-69233501D01*
X157790602Y-69379172D01*
X157790609Y-69379185D01*
X157878210Y-69510288D01*
X157878213Y-69510292D01*
X157879114Y-69511193D01*
X157879435Y-69511780D01*
X157882076Y-69514999D01*
X157881465Y-69515499D01*
X157912599Y-69572516D01*
X157907615Y-69642208D01*
X157865743Y-69698141D01*
X157815626Y-69720491D01*
X157766507Y-69730261D01*
X157766498Y-69730264D01*
X157620827Y-69790602D01*
X157620814Y-69790609D01*
X157489711Y-69878210D01*
X157489707Y-69878213D01*
X157378213Y-69989707D01*
X157378210Y-69989711D01*
X157290609Y-70120814D01*
X157290602Y-70120827D01*
X157230264Y-70266498D01*
X157230261Y-70266510D01*
X157199500Y-70421153D01*
X154900500Y-70421153D01*
X154900500Y-70321158D01*
X154900500Y-70321155D01*
X154900499Y-70321153D01*
X154878455Y-70210332D01*
X154869737Y-70166503D01*
X154869735Y-70166498D01*
X154809397Y-70020827D01*
X154809390Y-70020814D01*
X154721789Y-69889711D01*
X154721786Y-69889707D01*
X154610292Y-69778213D01*
X154610288Y-69778210D01*
X154479185Y-69690609D01*
X154479172Y-69690602D01*
X154333501Y-69630264D01*
X154333489Y-69630261D01*
X154178845Y-69599500D01*
X154178842Y-69599500D01*
X154021158Y-69599500D01*
X154021155Y-69599500D01*
X153866510Y-69630261D01*
X153866498Y-69630264D01*
X153720827Y-69690602D01*
X153720814Y-69690609D01*
X153589711Y-69778210D01*
X153589707Y-69778213D01*
X153478213Y-69889707D01*
X153478210Y-69889711D01*
X153390609Y-70020814D01*
X153390602Y-70020827D01*
X153330264Y-70166498D01*
X153330261Y-70166510D01*
X153299500Y-70321153D01*
X152330119Y-70321153D01*
X152307816Y-70304949D01*
X152291141Y-70296452D01*
X152283888Y-70291338D01*
X152267463Y-70270649D01*
X152248259Y-70252512D01*
X152246080Y-70243714D01*
X152240445Y-70236616D01*
X152237812Y-70210332D01*
X152231463Y-70184692D01*
X152234386Y-70176113D01*
X152233483Y-70167094D01*
X152245478Y-70143560D01*
X152253999Y-70118556D01*
X152261566Y-70111998D01*
X152265213Y-70104845D01*
X152279327Y-70096608D01*
X152299054Y-70079515D01*
X152307816Y-70075051D01*
X152329789Y-70059086D01*
X152479786Y-69950109D01*
X152479788Y-69950106D01*
X152479792Y-69950104D01*
X152630104Y-69799792D01*
X152630106Y-69799788D01*
X152630109Y-69799786D01*
X152755048Y-69627820D01*
X152755047Y-69627820D01*
X152755051Y-69627816D01*
X152851557Y-69438412D01*
X152917246Y-69236243D01*
X152950500Y-69026287D01*
X152950500Y-68813713D01*
X152917246Y-68603757D01*
X152851557Y-68401588D01*
X152755051Y-68212184D01*
X152755049Y-68212181D01*
X152755048Y-68212179D01*
X152630109Y-68040213D01*
X152479786Y-67889890D01*
X152307820Y-67764951D01*
X152307115Y-67764591D01*
X152299054Y-67760485D01*
X152248259Y-67712512D01*
X152231463Y-67644692D01*
X152253999Y-67578556D01*
X152299054Y-67539515D01*
X152307816Y-67535051D01*
X152329789Y-67519086D01*
X152479786Y-67410109D01*
X152479788Y-67410106D01*
X152479792Y-67410104D01*
X152630104Y-67259792D01*
X152630106Y-67259788D01*
X152630109Y-67259786D01*
X152755048Y-67087820D01*
X152755047Y-67087820D01*
X152755051Y-67087816D01*
X152851557Y-66898412D01*
X152917246Y-66696243D01*
X152950500Y-66486287D01*
X152950500Y-66273713D01*
X152917246Y-66063757D01*
X152851557Y-65861588D01*
X152755051Y-65672184D01*
X152755050Y-65672182D01*
X152739772Y-65651153D01*
X156087212Y-65651153D01*
X156087212Y-65808846D01*
X156117973Y-65963489D01*
X156117976Y-65963501D01*
X156178314Y-66109172D01*
X156178321Y-66109185D01*
X156265922Y-66240288D01*
X156265925Y-66240292D01*
X156359096Y-66333463D01*
X156392581Y-66394786D01*
X156387597Y-66464478D01*
X156359096Y-66508825D01*
X156278213Y-66589707D01*
X156278210Y-66589711D01*
X156190609Y-66720814D01*
X156190602Y-66720827D01*
X156130264Y-66866498D01*
X156130261Y-66866510D01*
X156099500Y-67021153D01*
X156099500Y-67178846D01*
X156130261Y-67333489D01*
X156130264Y-67333501D01*
X156190602Y-67479172D01*
X156190609Y-67479185D01*
X156278210Y-67610288D01*
X156278213Y-67610292D01*
X156389707Y-67721786D01*
X156389711Y-67721789D01*
X156520814Y-67809390D01*
X156520827Y-67809397D01*
X156666498Y-67869735D01*
X156666503Y-67869737D01*
X156821153Y-67900499D01*
X156821156Y-67900500D01*
X156821158Y-67900500D01*
X156978844Y-67900500D01*
X156978845Y-67900499D01*
X157133497Y-67869737D01*
X157279179Y-67809394D01*
X157410289Y-67721789D01*
X157521789Y-67610289D01*
X157609394Y-67479179D01*
X157662560Y-67350822D01*
X157706398Y-67296423D01*
X157772691Y-67274357D01*
X157801311Y-67276661D01*
X157921155Y-67300500D01*
X157921158Y-67300500D01*
X158078844Y-67300500D01*
X158078845Y-67300499D01*
X158233497Y-67269737D01*
X158379179Y-67209394D01*
X158510289Y-67121789D01*
X158621789Y-67010289D01*
X158709394Y-66879179D01*
X158710276Y-66877051D01*
X158748011Y-66785949D01*
X158769737Y-66733497D01*
X158800500Y-66578842D01*
X158800500Y-66421158D01*
X158800500Y-66421155D01*
X158800499Y-66421153D01*
X158795039Y-66393702D01*
X158769737Y-66266503D01*
X158758879Y-66240289D01*
X158709397Y-66120827D01*
X158709390Y-66120814D01*
X158621789Y-65989711D01*
X158621786Y-65989707D01*
X158510292Y-65878213D01*
X158510288Y-65878210D01*
X158379185Y-65790609D01*
X158379172Y-65790602D01*
X158233501Y-65730264D01*
X158233489Y-65730261D01*
X158078845Y-65699500D01*
X158078842Y-65699500D01*
X157921158Y-65699500D01*
X157921153Y-65699500D01*
X157827945Y-65718040D01*
X157758353Y-65711813D01*
X157703176Y-65668949D01*
X157682137Y-65620614D01*
X157657450Y-65496510D01*
X157657449Y-65496503D01*
X157650135Y-65478846D01*
X157597109Y-65350827D01*
X157597102Y-65350814D01*
X157509501Y-65219711D01*
X157509498Y-65219707D01*
X157398004Y-65108213D01*
X157398000Y-65108210D01*
X157266897Y-65020609D01*
X157266884Y-65020602D01*
X157121213Y-64960264D01*
X157121201Y-64960261D01*
X156966557Y-64929500D01*
X156966554Y-64929500D01*
X156808870Y-64929500D01*
X156808867Y-64929500D01*
X156654222Y-64960261D01*
X156654210Y-64960264D01*
X156508539Y-65020602D01*
X156508526Y-65020609D01*
X156377423Y-65108210D01*
X156377419Y-65108213D01*
X156265925Y-65219707D01*
X156265922Y-65219711D01*
X156178321Y-65350814D01*
X156178314Y-65350827D01*
X156117976Y-65496498D01*
X156117973Y-65496510D01*
X156087212Y-65651153D01*
X152739772Y-65651153D01*
X152630109Y-65500213D01*
X152479786Y-65349890D01*
X152307820Y-65224951D01*
X152307115Y-65224591D01*
X152299054Y-65220485D01*
X152248259Y-65172512D01*
X152231463Y-65104692D01*
X152253999Y-65038556D01*
X152299054Y-64999515D01*
X152307816Y-64995051D01*
X152402351Y-64926368D01*
X152479786Y-64870109D01*
X152479788Y-64870106D01*
X152479792Y-64870104D01*
X152630104Y-64719792D01*
X152630106Y-64719788D01*
X152630109Y-64719786D01*
X152755048Y-64547820D01*
X152755047Y-64547820D01*
X152755051Y-64547816D01*
X152851557Y-64358412D01*
X152917246Y-64156243D01*
X152922804Y-64121153D01*
X157399500Y-64121153D01*
X157399500Y-64278846D01*
X157430261Y-64433489D01*
X157430264Y-64433501D01*
X157490602Y-64579172D01*
X157490609Y-64579185D01*
X157578210Y-64710288D01*
X157578213Y-64710292D01*
X157689707Y-64821786D01*
X157689711Y-64821789D01*
X157820814Y-64909390D01*
X157820827Y-64909397D01*
X157943633Y-64960264D01*
X157966503Y-64969737D01*
X158116201Y-64999514D01*
X158121153Y-65000499D01*
X158121156Y-65000500D01*
X158121158Y-65000500D01*
X158278844Y-65000500D01*
X158278845Y-65000499D01*
X158433497Y-64969737D01*
X158579179Y-64909394D01*
X158710289Y-64821789D01*
X158810925Y-64721153D01*
X159299500Y-64721153D01*
X159299500Y-64878846D01*
X159330261Y-65033489D01*
X159330264Y-65033501D01*
X159390602Y-65179172D01*
X159390609Y-65179185D01*
X159478210Y-65310288D01*
X159478213Y-65310292D01*
X159589707Y-65421786D01*
X159589711Y-65421789D01*
X159720814Y-65509390D01*
X159720827Y-65509397D01*
X159866498Y-65569735D01*
X159866503Y-65569737D01*
X159958498Y-65588036D01*
X160021153Y-65600499D01*
X160021156Y-65600500D01*
X160021158Y-65600500D01*
X160178844Y-65600500D01*
X160178845Y-65600499D01*
X160333497Y-65569737D01*
X160479179Y-65509394D01*
X160610289Y-65421789D01*
X160721789Y-65310289D01*
X160809394Y-65179179D01*
X160814643Y-65166508D01*
X160845688Y-65091557D01*
X160869737Y-65033497D01*
X160900500Y-64878842D01*
X160900500Y-64721158D01*
X160900500Y-64721155D01*
X160900499Y-64721153D01*
X160882419Y-64630261D01*
X160869737Y-64566503D01*
X160856062Y-64533489D01*
X160809397Y-64420827D01*
X160809390Y-64420814D01*
X160721789Y-64289711D01*
X160721786Y-64289707D01*
X160610292Y-64178213D01*
X160610288Y-64178210D01*
X160479185Y-64090609D01*
X160479172Y-64090602D01*
X160333501Y-64030264D01*
X160333489Y-64030261D01*
X160178845Y-63999500D01*
X160178842Y-63999500D01*
X160021158Y-63999500D01*
X159866503Y-64030263D01*
X159841852Y-64040473D01*
X159841846Y-64040475D01*
X159720823Y-64090604D01*
X159720814Y-64090609D01*
X159589711Y-64178210D01*
X159589707Y-64178213D01*
X159478213Y-64289707D01*
X159478210Y-64289711D01*
X159390609Y-64420814D01*
X159390602Y-64420827D01*
X159330264Y-64566498D01*
X159330261Y-64566510D01*
X159299500Y-64721153D01*
X158810925Y-64721153D01*
X158821789Y-64710289D01*
X158909394Y-64579179D01*
X158969737Y-64433497D01*
X159000500Y-64278842D01*
X159000500Y-64121158D01*
X159000500Y-64121155D01*
X159000499Y-64121153D01*
X158982419Y-64030261D01*
X158969737Y-63966503D01*
X158911197Y-63825173D01*
X158909397Y-63820827D01*
X158909390Y-63820814D01*
X158821789Y-63689711D01*
X158821786Y-63689707D01*
X158710292Y-63578213D01*
X158710288Y-63578210D01*
X158608767Y-63510375D01*
X158598163Y-63497686D01*
X158584223Y-63488795D01*
X158576221Y-63471431D01*
X158563962Y-63456762D01*
X158561901Y-63440356D01*
X158554981Y-63425339D01*
X158557637Y-63406404D01*
X158555255Y-63387437D01*
X158562390Y-63372522D01*
X158564688Y-63356147D01*
X158577159Y-63341654D01*
X158585410Y-63324410D01*
X158599870Y-63315263D01*
X158610263Y-63303187D01*
X158634535Y-63293337D01*
X158642317Y-63288416D01*
X158647824Y-63286778D01*
X158733497Y-63269737D01*
X158805648Y-63239850D01*
X158811810Y-63238019D01*
X158840570Y-63237920D01*
X158869167Y-63234846D01*
X158875073Y-63237802D01*
X158881679Y-63237780D01*
X158905928Y-63253247D01*
X158931646Y-63266121D01*
X158936046Y-63272458D01*
X158940586Y-63275354D01*
X158945577Y-63286185D01*
X158961712Y-63309423D01*
X158990604Y-63379176D01*
X158990609Y-63379185D01*
X159078210Y-63510288D01*
X159078213Y-63510292D01*
X159189707Y-63621786D01*
X159189711Y-63621789D01*
X159320814Y-63709390D01*
X159320827Y-63709397D01*
X159423334Y-63751856D01*
X159466503Y-63769737D01*
X159621153Y-63800499D01*
X159621156Y-63800500D01*
X159621158Y-63800500D01*
X159778750Y-63800500D01*
X159778842Y-63800500D01*
X159933497Y-63769737D01*
X160032294Y-63728814D01*
X160079173Y-63709397D01*
X160079176Y-63709395D01*
X160079179Y-63709394D01*
X160210289Y-63621789D01*
X160321789Y-63510289D01*
X160409394Y-63379179D01*
X160411198Y-63374825D01*
X160441984Y-63300500D01*
X160469737Y-63233497D01*
X160500500Y-63078842D01*
X160500500Y-62921158D01*
X160500500Y-62921155D01*
X160484209Y-62839258D01*
X160484209Y-62839257D01*
X160480608Y-62821153D01*
X160799500Y-62821153D01*
X160799500Y-62978846D01*
X160830261Y-63133489D01*
X160830264Y-63133501D01*
X160890602Y-63279172D01*
X160890609Y-63279185D01*
X160978210Y-63410288D01*
X160978213Y-63410292D01*
X161089707Y-63521786D01*
X161089711Y-63521789D01*
X161220814Y-63609390D01*
X161220827Y-63609397D01*
X161298865Y-63641721D01*
X161353269Y-63685561D01*
X161375334Y-63751856D01*
X161358055Y-63819555D01*
X161354515Y-63825173D01*
X161290609Y-63920814D01*
X161290602Y-63920827D01*
X161230264Y-64066498D01*
X161230261Y-64066510D01*
X161199500Y-64221153D01*
X161199500Y-64378846D01*
X161230261Y-64533489D01*
X161230264Y-64533501D01*
X161290602Y-64679172D01*
X161290609Y-64679185D01*
X161378210Y-64810288D01*
X161378213Y-64810292D01*
X161380240Y-64812319D01*
X161380962Y-64813642D01*
X161382076Y-64814999D01*
X161381818Y-64815210D01*
X161413725Y-64873642D01*
X161408741Y-64943334D01*
X161382001Y-64984939D01*
X161382076Y-64985001D01*
X161381552Y-64985639D01*
X161380240Y-64987681D01*
X161378213Y-64989707D01*
X161378210Y-64989711D01*
X161290609Y-65120814D01*
X161290602Y-65120827D01*
X161230264Y-65266498D01*
X161230261Y-65266510D01*
X161199500Y-65421153D01*
X161199500Y-65578846D01*
X161230261Y-65733489D01*
X161230264Y-65733501D01*
X161290602Y-65879172D01*
X161290609Y-65879185D01*
X161378210Y-66010288D01*
X161378213Y-66010292D01*
X161489707Y-66121786D01*
X161489711Y-66121789D01*
X161620814Y-66209390D01*
X161620827Y-66209397D01*
X161766498Y-66269735D01*
X161766503Y-66269737D01*
X161921153Y-66300499D01*
X161921156Y-66300500D01*
X161921158Y-66300500D01*
X162078844Y-66300500D01*
X162078845Y-66300499D01*
X162233497Y-66269737D01*
X162379179Y-66209394D01*
X162510289Y-66121789D01*
X162621789Y-66010289D01*
X162681348Y-65921153D01*
X163199500Y-65921153D01*
X163199500Y-66078846D01*
X163230261Y-66233489D01*
X163230264Y-66233501D01*
X163290602Y-66379172D01*
X163290609Y-66379185D01*
X163378210Y-66510288D01*
X163378213Y-66510292D01*
X163489707Y-66621786D01*
X163489711Y-66621789D01*
X163620814Y-66709390D01*
X163620827Y-66709397D01*
X163766498Y-66769735D01*
X163766503Y-66769737D01*
X163921153Y-66800499D01*
X163921156Y-66800500D01*
X164075162Y-66800500D01*
X164142201Y-66820185D01*
X164187956Y-66872989D01*
X164189715Y-66877030D01*
X164190606Y-66879179D01*
X164190607Y-66879180D01*
X164190609Y-66879185D01*
X164278210Y-67010288D01*
X164278213Y-67010292D01*
X164389707Y-67121786D01*
X164389711Y-67121789D01*
X164520814Y-67209390D01*
X164520827Y-67209397D01*
X164642479Y-67259786D01*
X164666503Y-67269737D01*
X164800662Y-67296423D01*
X164821153Y-67300499D01*
X164821156Y-67300500D01*
X164821158Y-67300500D01*
X164978844Y-67300500D01*
X164978845Y-67300499D01*
X165133497Y-67269737D01*
X165279179Y-67209394D01*
X165410289Y-67121789D01*
X165521789Y-67010289D01*
X165609394Y-66879179D01*
X165610276Y-66877051D01*
X165648011Y-66785949D01*
X165669737Y-66733497D01*
X165700500Y-66578842D01*
X165700500Y-66421158D01*
X165695038Y-66393700D01*
X165701264Y-66324110D01*
X165744126Y-66268932D01*
X165769203Y-66254947D01*
X165879173Y-66209397D01*
X165879176Y-66209395D01*
X165879179Y-66209394D01*
X166010289Y-66121789D01*
X166121789Y-66010289D01*
X166209394Y-65879179D01*
X166269737Y-65733497D01*
X166288352Y-65639912D01*
X166320735Y-65578006D01*
X166381450Y-65543431D01*
X166451220Y-65547170D01*
X166507892Y-65588036D01*
X166528626Y-65628102D01*
X166530263Y-65633499D01*
X166590602Y-65779172D01*
X166590609Y-65779185D01*
X166678210Y-65910288D01*
X166678213Y-65910292D01*
X166789707Y-66021786D01*
X166789711Y-66021789D01*
X166920814Y-66109390D01*
X166920827Y-66109397D01*
X167066496Y-66169734D01*
X167066503Y-66169737D01*
X167160085Y-66188351D01*
X167221994Y-66220735D01*
X167256568Y-66281451D01*
X167252829Y-66351220D01*
X167211963Y-66407892D01*
X167171900Y-66428625D01*
X167166502Y-66430262D01*
X167020827Y-66490602D01*
X167020814Y-66490609D01*
X166889711Y-66578210D01*
X166889707Y-66578213D01*
X166778213Y-66689707D01*
X166778210Y-66689711D01*
X166690609Y-66820814D01*
X166690602Y-66820827D01*
X166630264Y-66966498D01*
X166630261Y-66966510D01*
X166599500Y-67121153D01*
X166599500Y-67278846D01*
X166630261Y-67433489D01*
X166630264Y-67433501D01*
X166690602Y-67579172D01*
X166690609Y-67579185D01*
X166778210Y-67710288D01*
X166778213Y-67710292D01*
X166889707Y-67821786D01*
X166889711Y-67821789D01*
X167020814Y-67909390D01*
X167020827Y-67909397D01*
X167166498Y-67969735D01*
X167166503Y-67969737D01*
X167321153Y-68000499D01*
X167321156Y-68000500D01*
X167321158Y-68000500D01*
X167478844Y-68000500D01*
X167478845Y-68000499D01*
X167633497Y-67969737D01*
X167779179Y-67909394D01*
X167910289Y-67821789D01*
X168021789Y-67710289D01*
X168109394Y-67579179D01*
X168169737Y-67433497D01*
X168200500Y-67278842D01*
X168200500Y-67121158D01*
X168200500Y-67121155D01*
X168200499Y-67121153D01*
X168193868Y-67087816D01*
X168169737Y-66966503D01*
X168133567Y-66879180D01*
X168109397Y-66820827D01*
X168109390Y-66820814D01*
X168021789Y-66689711D01*
X168021786Y-66689707D01*
X167910292Y-66578213D01*
X167910288Y-66578210D01*
X167779185Y-66490609D01*
X167779172Y-66490602D01*
X167633501Y-66430264D01*
X167633489Y-66430261D01*
X167539916Y-66411648D01*
X167478005Y-66379263D01*
X167443431Y-66318548D01*
X167447170Y-66248778D01*
X167488037Y-66192106D01*
X167528112Y-66171370D01*
X167533485Y-66169739D01*
X167533497Y-66169737D01*
X167679179Y-66109394D01*
X167810289Y-66021789D01*
X167921789Y-65910289D01*
X168009394Y-65779179D01*
X168069737Y-65633497D01*
X168100500Y-65478842D01*
X168100500Y-65321158D01*
X168100500Y-65321155D01*
X168100499Y-65321153D01*
X168089627Y-65266498D01*
X168069737Y-65166503D01*
X168045592Y-65108211D01*
X168009397Y-65020827D01*
X168009390Y-65020814D01*
X167921789Y-64889711D01*
X167921786Y-64889707D01*
X167810292Y-64778213D01*
X167810288Y-64778210D01*
X167679185Y-64690609D01*
X167679172Y-64690602D01*
X167533501Y-64630264D01*
X167533489Y-64630261D01*
X167378845Y-64599500D01*
X167378842Y-64599500D01*
X167221158Y-64599500D01*
X167221155Y-64599500D01*
X167066510Y-64630261D01*
X167066498Y-64630264D01*
X166920827Y-64690602D01*
X166920814Y-64690609D01*
X166789711Y-64778210D01*
X166789707Y-64778213D01*
X166678213Y-64889707D01*
X166678210Y-64889711D01*
X166590609Y-65020814D01*
X166590602Y-65020827D01*
X166530264Y-65166498D01*
X166530261Y-65166508D01*
X166511648Y-65260084D01*
X166479263Y-65321994D01*
X166418547Y-65356569D01*
X166348778Y-65352829D01*
X166292106Y-65311962D01*
X166271371Y-65271890D01*
X166269735Y-65266498D01*
X166209397Y-65120827D01*
X166209390Y-65120814D01*
X166121789Y-64989711D01*
X166121786Y-64989707D01*
X166010292Y-64878213D01*
X166010288Y-64878210D01*
X165879185Y-64790609D01*
X165879172Y-64790602D01*
X165733501Y-64730264D01*
X165733489Y-64730261D01*
X165578845Y-64699500D01*
X165578842Y-64699500D01*
X165421158Y-64699500D01*
X165421155Y-64699500D01*
X165266510Y-64730261D01*
X165266498Y-64730264D01*
X165120827Y-64790602D01*
X165120814Y-64790609D01*
X164989711Y-64878210D01*
X164989707Y-64878213D01*
X164878213Y-64989707D01*
X164878210Y-64989711D01*
X164790609Y-65120814D01*
X164790602Y-65120827D01*
X164730264Y-65266498D01*
X164730261Y-65266507D01*
X164720491Y-65315626D01*
X164688105Y-65377536D01*
X164627389Y-65412110D01*
X164557620Y-65408369D01*
X164515303Y-65381704D01*
X164514999Y-65382076D01*
X164512040Y-65379647D01*
X164511193Y-65379114D01*
X164510292Y-65378213D01*
X164510288Y-65378210D01*
X164379185Y-65290609D01*
X164379172Y-65290602D01*
X164233501Y-65230264D01*
X164233489Y-65230261D01*
X164078845Y-65199500D01*
X164078842Y-65199500D01*
X163921158Y-65199500D01*
X163921155Y-65199500D01*
X163766510Y-65230261D01*
X163766498Y-65230264D01*
X163620827Y-65290602D01*
X163620814Y-65290609D01*
X163489711Y-65378210D01*
X163489707Y-65378213D01*
X163378213Y-65489707D01*
X163378210Y-65489711D01*
X163290609Y-65620814D01*
X163290602Y-65620827D01*
X163230264Y-65766498D01*
X163230261Y-65766510D01*
X163199500Y-65921153D01*
X162681348Y-65921153D01*
X162709394Y-65879179D01*
X162769737Y-65733497D01*
X162800500Y-65578842D01*
X162800500Y-65421158D01*
X162800500Y-65421155D01*
X162800499Y-65421153D01*
X162786509Y-65350821D01*
X162769737Y-65266503D01*
X162767078Y-65260084D01*
X162709397Y-65120827D01*
X162709390Y-65120814D01*
X162621789Y-64989711D01*
X162619766Y-64987688D01*
X162619043Y-64986365D01*
X162617924Y-64985001D01*
X162618182Y-64984788D01*
X162586276Y-64926368D01*
X162591255Y-64856676D01*
X162617999Y-64815060D01*
X162617924Y-64814999D01*
X162618454Y-64814351D01*
X162619766Y-64812312D01*
X162621789Y-64810289D01*
X162709394Y-64679179D01*
X162769737Y-64533497D01*
X162800500Y-64378842D01*
X162800500Y-64221158D01*
X162800500Y-64221155D01*
X162800499Y-64221153D01*
X162791957Y-64178210D01*
X162769737Y-64066503D01*
X162758956Y-64040475D01*
X162709397Y-63920827D01*
X162709390Y-63920814D01*
X162621789Y-63789711D01*
X162621786Y-63789707D01*
X162510292Y-63678213D01*
X162510288Y-63678210D01*
X162379185Y-63590609D01*
X162379175Y-63590604D01*
X162301133Y-63558278D01*
X162246730Y-63514437D01*
X162224665Y-63448143D01*
X162241944Y-63380443D01*
X162245462Y-63374859D01*
X162309394Y-63279179D01*
X162369737Y-63133497D01*
X162400500Y-62978842D01*
X162400500Y-62921153D01*
X164699500Y-62921153D01*
X164699500Y-63078846D01*
X164730261Y-63233489D01*
X164730264Y-63233501D01*
X164790602Y-63379172D01*
X164790609Y-63379185D01*
X164878210Y-63510288D01*
X164878213Y-63510292D01*
X164989707Y-63621786D01*
X164989711Y-63621789D01*
X165120814Y-63709390D01*
X165120827Y-63709397D01*
X165223334Y-63751856D01*
X165266503Y-63769737D01*
X165421153Y-63800499D01*
X165421156Y-63800500D01*
X165421158Y-63800500D01*
X165578844Y-63800500D01*
X165578845Y-63800499D01*
X165733497Y-63769737D01*
X165879179Y-63709394D01*
X166010289Y-63621789D01*
X166121789Y-63510289D01*
X166209394Y-63379179D01*
X166211198Y-63374825D01*
X166241984Y-63300500D01*
X166269737Y-63233497D01*
X166300500Y-63078842D01*
X166300500Y-62921158D01*
X166300500Y-62921155D01*
X166300499Y-62921153D01*
X166284209Y-62839257D01*
X166269737Y-62766503D01*
X166256062Y-62733489D01*
X166209397Y-62620827D01*
X166209390Y-62620814D01*
X166121789Y-62489711D01*
X166121786Y-62489707D01*
X166010292Y-62378213D01*
X166010288Y-62378210D01*
X165879185Y-62290609D01*
X165879172Y-62290602D01*
X165733501Y-62230264D01*
X165733489Y-62230261D01*
X165578845Y-62199500D01*
X165578842Y-62199500D01*
X165421158Y-62199500D01*
X165421155Y-62199500D01*
X165266510Y-62230261D01*
X165266498Y-62230264D01*
X165120827Y-62290602D01*
X165120814Y-62290609D01*
X164989711Y-62378210D01*
X164989707Y-62378213D01*
X164878213Y-62489707D01*
X164878210Y-62489711D01*
X164790609Y-62620814D01*
X164790602Y-62620827D01*
X164730264Y-62766498D01*
X164730261Y-62766510D01*
X164699500Y-62921153D01*
X162400500Y-62921153D01*
X162400500Y-62821158D01*
X162400500Y-62821155D01*
X162400499Y-62821153D01*
X162383061Y-62733489D01*
X162369737Y-62666503D01*
X162331965Y-62575312D01*
X162309397Y-62520827D01*
X162309393Y-62520820D01*
X162288801Y-62490002D01*
X162267923Y-62423324D01*
X162286407Y-62355944D01*
X162338386Y-62309253D01*
X162407356Y-62298077D01*
X162416084Y-62299490D01*
X162421158Y-62300500D01*
X162421160Y-62300500D01*
X162578844Y-62300500D01*
X162578845Y-62300499D01*
X162733497Y-62269737D01*
X162879179Y-62209394D01*
X163010289Y-62121789D01*
X163121789Y-62010289D01*
X163209394Y-61879179D01*
X163269737Y-61733497D01*
X163300500Y-61578842D01*
X163300500Y-61421158D01*
X163300500Y-61421155D01*
X163300499Y-61421153D01*
X163269738Y-61266510D01*
X163269737Y-61266503D01*
X163239587Y-61193713D01*
X163209397Y-61120827D01*
X163209390Y-61120814D01*
X163121789Y-60989711D01*
X163121786Y-60989707D01*
X163010292Y-60878213D01*
X163010288Y-60878210D01*
X162879185Y-60790609D01*
X162879172Y-60790602D01*
X162733501Y-60730264D01*
X162733489Y-60730261D01*
X162578845Y-60699500D01*
X162578842Y-60699500D01*
X162421158Y-60699500D01*
X162421155Y-60699500D01*
X162266510Y-60730261D01*
X162266498Y-60730264D01*
X162120827Y-60790602D01*
X162120814Y-60790609D01*
X161989711Y-60878210D01*
X161989707Y-60878213D01*
X161878213Y-60989707D01*
X161878210Y-60989711D01*
X161790609Y-61120814D01*
X161790602Y-61120827D01*
X161730264Y-61266498D01*
X161730261Y-61266510D01*
X161699500Y-61421153D01*
X161699500Y-61578846D01*
X161730261Y-61733489D01*
X161730264Y-61733501D01*
X161790602Y-61879172D01*
X161790609Y-61879185D01*
X161811198Y-61909998D01*
X161832076Y-61976676D01*
X161813592Y-62044056D01*
X161761613Y-62090746D01*
X161692643Y-62101922D01*
X161683909Y-62100507D01*
X161678846Y-62099500D01*
X161678842Y-62099500D01*
X161521158Y-62099500D01*
X161521155Y-62099500D01*
X161366510Y-62130261D01*
X161366498Y-62130264D01*
X161220827Y-62190602D01*
X161220814Y-62190609D01*
X161089711Y-62278210D01*
X161089707Y-62278213D01*
X160978213Y-62389707D01*
X160978210Y-62389711D01*
X160890609Y-62520814D01*
X160890602Y-62520827D01*
X160830264Y-62666498D01*
X160830261Y-62666510D01*
X160799500Y-62821153D01*
X160480608Y-62821153D01*
X160469738Y-62766510D01*
X160469737Y-62766503D01*
X160456062Y-62733489D01*
X160409397Y-62620827D01*
X160409390Y-62620814D01*
X160321789Y-62489711D01*
X160321786Y-62489707D01*
X160210292Y-62378213D01*
X160210288Y-62378210D01*
X160079185Y-62290609D01*
X160079172Y-62290602D01*
X159933501Y-62230264D01*
X159933489Y-62230261D01*
X159778845Y-62199500D01*
X159778842Y-62199500D01*
X159621158Y-62199500D01*
X159621155Y-62199500D01*
X159466510Y-62230261D01*
X159466503Y-62230263D01*
X159400299Y-62257685D01*
X159330830Y-62265153D01*
X159268351Y-62233877D01*
X159238287Y-62190575D01*
X159209397Y-62120827D01*
X159209390Y-62120814D01*
X159121789Y-61989711D01*
X159121786Y-61989707D01*
X159010292Y-61878213D01*
X159010288Y-61878210D01*
X158879185Y-61790609D01*
X158879172Y-61790602D01*
X158733501Y-61730264D01*
X158733489Y-61730261D01*
X158578845Y-61699500D01*
X158578842Y-61699500D01*
X158421158Y-61699500D01*
X158421155Y-61699500D01*
X158266510Y-61730261D01*
X158266498Y-61730264D01*
X158120827Y-61790602D01*
X158120814Y-61790609D01*
X157989711Y-61878210D01*
X157989707Y-61878213D01*
X157878213Y-61989707D01*
X157878210Y-61989711D01*
X157790609Y-62120814D01*
X157790602Y-62120827D01*
X157730264Y-62266498D01*
X157730261Y-62266510D01*
X157699500Y-62421153D01*
X157699500Y-62578846D01*
X157730261Y-62733489D01*
X157730264Y-62733501D01*
X157790602Y-62879172D01*
X157790609Y-62879185D01*
X157878210Y-63010288D01*
X157878213Y-63010292D01*
X157989707Y-63121786D01*
X157989711Y-63121789D01*
X158091232Y-63189624D01*
X158136037Y-63243236D01*
X158144744Y-63312561D01*
X158114589Y-63375589D01*
X158055146Y-63412308D01*
X158046533Y-63414343D01*
X157966508Y-63430261D01*
X157966498Y-63430264D01*
X157820827Y-63490602D01*
X157820814Y-63490609D01*
X157689711Y-63578210D01*
X157689707Y-63578213D01*
X157578213Y-63689707D01*
X157578210Y-63689711D01*
X157490609Y-63820814D01*
X157490602Y-63820827D01*
X157430264Y-63966498D01*
X157430261Y-63966510D01*
X157399500Y-64121153D01*
X152922804Y-64121153D01*
X152950500Y-63946287D01*
X152950500Y-63733713D01*
X152917246Y-63523757D01*
X152851557Y-63321588D01*
X152755051Y-63132184D01*
X152755049Y-63132181D01*
X152755048Y-63132179D01*
X152630109Y-62960213D01*
X152479786Y-62809890D01*
X152307820Y-62684951D01*
X152307115Y-62684591D01*
X152299054Y-62680485D01*
X152248259Y-62632512D01*
X152231463Y-62564692D01*
X152253999Y-62498556D01*
X152299054Y-62459515D01*
X152307816Y-62455051D01*
X152354473Y-62421153D01*
X152479786Y-62330109D01*
X152479788Y-62330106D01*
X152479792Y-62330104D01*
X152630104Y-62179792D01*
X152630106Y-62179788D01*
X152630109Y-62179786D01*
X152755048Y-62007820D01*
X152755047Y-62007820D01*
X152755051Y-62007816D01*
X152851557Y-61818412D01*
X152917246Y-61616243D01*
X152950500Y-61406287D01*
X152950500Y-61193713D01*
X152917246Y-60983757D01*
X152851557Y-60781588D01*
X152755051Y-60592184D01*
X152755049Y-60592181D01*
X152755048Y-60592179D01*
X152630109Y-60420213D01*
X152479786Y-60269890D01*
X152307820Y-60144951D01*
X152307115Y-60144591D01*
X152299054Y-60140485D01*
X152248259Y-60092512D01*
X152231463Y-60024692D01*
X152253999Y-59958556D01*
X152299054Y-59919515D01*
X152307816Y-59915051D01*
X152362572Y-59875269D01*
X152479786Y-59790109D01*
X152479788Y-59790106D01*
X152479792Y-59790104D01*
X152548743Y-59721153D01*
X155699500Y-59721153D01*
X155699500Y-59878846D01*
X155730261Y-60033489D01*
X155730264Y-60033501D01*
X155790602Y-60179172D01*
X155790609Y-60179185D01*
X155878210Y-60310288D01*
X155878213Y-60310292D01*
X155989707Y-60421786D01*
X155989711Y-60421789D01*
X156120814Y-60509390D01*
X156120827Y-60509397D01*
X156266498Y-60569735D01*
X156266503Y-60569737D01*
X156379326Y-60592179D01*
X156421153Y-60600499D01*
X156421156Y-60600500D01*
X156421158Y-60600500D01*
X156578844Y-60600500D01*
X156578845Y-60600499D01*
X156733497Y-60569737D01*
X156879179Y-60509394D01*
X157010289Y-60421789D01*
X157121789Y-60310289D01*
X157209394Y-60179179D01*
X157269737Y-60033497D01*
X157300500Y-59878842D01*
X157300500Y-59721158D01*
X157300500Y-59721155D01*
X157300499Y-59721153D01*
X165799500Y-59721153D01*
X165799500Y-59878846D01*
X165830261Y-60033489D01*
X165830264Y-60033501D01*
X165890602Y-60179172D01*
X165890609Y-60179185D01*
X165978210Y-60310288D01*
X165978213Y-60310292D01*
X166089707Y-60421786D01*
X166089711Y-60421789D01*
X166220814Y-60509390D01*
X166220827Y-60509397D01*
X166366498Y-60569735D01*
X166366503Y-60569737D01*
X166479326Y-60592179D01*
X166521153Y-60600499D01*
X166521156Y-60600500D01*
X166521158Y-60600500D01*
X166678844Y-60600500D01*
X166678845Y-60600499D01*
X166833497Y-60569737D01*
X166979179Y-60509394D01*
X167110289Y-60421789D01*
X167221789Y-60310289D01*
X167309394Y-60179179D01*
X167369737Y-60033497D01*
X167400500Y-59878842D01*
X167400500Y-59721158D01*
X167400500Y-59721155D01*
X167400499Y-59721153D01*
X167369738Y-59566510D01*
X167369737Y-59566503D01*
X167328750Y-59467550D01*
X167309397Y-59420827D01*
X167309390Y-59420814D01*
X167221789Y-59289711D01*
X167221786Y-59289707D01*
X167110292Y-59178213D01*
X167110288Y-59178210D01*
X166979185Y-59090609D01*
X166979172Y-59090602D01*
X166833501Y-59030264D01*
X166833489Y-59030261D01*
X166678845Y-58999500D01*
X166678842Y-58999500D01*
X166521158Y-58999500D01*
X166521155Y-58999500D01*
X166366510Y-59030261D01*
X166366498Y-59030264D01*
X166220827Y-59090602D01*
X166220814Y-59090609D01*
X166089711Y-59178210D01*
X166089707Y-59178213D01*
X165978213Y-59289707D01*
X165978210Y-59289711D01*
X165890609Y-59420814D01*
X165890602Y-59420827D01*
X165830264Y-59566498D01*
X165830261Y-59566510D01*
X165799500Y-59721153D01*
X157300499Y-59721153D01*
X157269738Y-59566510D01*
X157269737Y-59566503D01*
X157228750Y-59467550D01*
X157209397Y-59420827D01*
X157209390Y-59420814D01*
X157121789Y-59289711D01*
X157121786Y-59289707D01*
X157010292Y-59178213D01*
X157010288Y-59178210D01*
X156879185Y-59090609D01*
X156879172Y-59090602D01*
X156733501Y-59030264D01*
X156733489Y-59030261D01*
X156578845Y-58999500D01*
X156578842Y-58999500D01*
X156421158Y-58999500D01*
X156421155Y-58999500D01*
X156266510Y-59030261D01*
X156266498Y-59030264D01*
X156120827Y-59090602D01*
X156120814Y-59090609D01*
X155989711Y-59178210D01*
X155989707Y-59178213D01*
X155878213Y-59289707D01*
X155878210Y-59289711D01*
X155790609Y-59420814D01*
X155790602Y-59420827D01*
X155730264Y-59566498D01*
X155730261Y-59566510D01*
X155699500Y-59721153D01*
X152548743Y-59721153D01*
X152630104Y-59639792D01*
X152755051Y-59467816D01*
X152851557Y-59278412D01*
X152917246Y-59076243D01*
X152950500Y-58866287D01*
X152950500Y-58653713D01*
X152917246Y-58443757D01*
X152851557Y-58241588D01*
X152755051Y-58052184D01*
X152755049Y-58052181D01*
X152755048Y-58052179D01*
X152630109Y-57880213D01*
X152479786Y-57729890D01*
X152307820Y-57604951D01*
X152307115Y-57604591D01*
X152299054Y-57600485D01*
X152248259Y-57552512D01*
X152231463Y-57484692D01*
X152253999Y-57418556D01*
X152299054Y-57379515D01*
X152307816Y-57375051D01*
X152329789Y-57359086D01*
X152479786Y-57250109D01*
X152479788Y-57250106D01*
X152479792Y-57250104D01*
X152630104Y-57099792D01*
X152630106Y-57099788D01*
X152630109Y-57099786D01*
X152755048Y-56927820D01*
X152755049Y-56927819D01*
X152755051Y-56927816D01*
X152851557Y-56738412D01*
X152917246Y-56536243D01*
X152950500Y-56326287D01*
X152950500Y-56113713D01*
X152944545Y-56076112D01*
X152922110Y-55934464D01*
X152920001Y-55921153D01*
X155699500Y-55921153D01*
X155699500Y-56078846D01*
X155730261Y-56233489D01*
X155730264Y-56233501D01*
X155790602Y-56379172D01*
X155790609Y-56379185D01*
X155878210Y-56510288D01*
X155878213Y-56510292D01*
X155989707Y-56621786D01*
X155989711Y-56621789D01*
X156120814Y-56709390D01*
X156120827Y-56709397D01*
X156266498Y-56769735D01*
X156266503Y-56769737D01*
X156421153Y-56800499D01*
X156421156Y-56800500D01*
X156421158Y-56800500D01*
X156578844Y-56800500D01*
X156578845Y-56800499D01*
X156733497Y-56769737D01*
X156879179Y-56709394D01*
X157010289Y-56621789D01*
X157121789Y-56510289D01*
X157209394Y-56379179D01*
X157269737Y-56233497D01*
X157300500Y-56078842D01*
X157300500Y-55921158D01*
X157300500Y-55921155D01*
X157300499Y-55921153D01*
X160199500Y-55921153D01*
X160199500Y-56078846D01*
X160230261Y-56233489D01*
X160230264Y-56233501D01*
X160290602Y-56379172D01*
X160290609Y-56379185D01*
X160378210Y-56510288D01*
X160378213Y-56510292D01*
X160489707Y-56621786D01*
X160489711Y-56621789D01*
X160620814Y-56709390D01*
X160620827Y-56709397D01*
X160766498Y-56769735D01*
X160766503Y-56769737D01*
X160921153Y-56800499D01*
X160921156Y-56800500D01*
X160921158Y-56800500D01*
X161078844Y-56800500D01*
X161078845Y-56800499D01*
X161233497Y-56769737D01*
X161379179Y-56709394D01*
X161510289Y-56621789D01*
X161621789Y-56510289D01*
X161681348Y-56421153D01*
X162199500Y-56421153D01*
X162199500Y-56578846D01*
X162230261Y-56733489D01*
X162230264Y-56733501D01*
X162290602Y-56879172D01*
X162290609Y-56879185D01*
X162378210Y-57010288D01*
X162378213Y-57010292D01*
X162489707Y-57121786D01*
X162489711Y-57121789D01*
X162620814Y-57209390D01*
X162620827Y-57209397D01*
X162662635Y-57226714D01*
X162766503Y-57269737D01*
X162883172Y-57292944D01*
X162945083Y-57325328D01*
X162979657Y-57386044D01*
X162975918Y-57455814D01*
X162973543Y-57462012D01*
X162930263Y-57566503D01*
X162930261Y-57566510D01*
X162899500Y-57721153D01*
X162899500Y-57878846D01*
X162930261Y-58033489D01*
X162930264Y-58033501D01*
X162990602Y-58179172D01*
X162990609Y-58179185D01*
X163078210Y-58310288D01*
X163078213Y-58310292D01*
X163189707Y-58421786D01*
X163189711Y-58421789D01*
X163320814Y-58509390D01*
X163320827Y-58509397D01*
X163435427Y-58556865D01*
X163466503Y-58569737D01*
X163621153Y-58600499D01*
X163621156Y-58600500D01*
X163621158Y-58600500D01*
X163778844Y-58600500D01*
X163778845Y-58600499D01*
X163933497Y-58569737D01*
X163969373Y-58554876D01*
X164019003Y-58534320D01*
X164079172Y-58509397D01*
X164079172Y-58509396D01*
X164079179Y-58509394D01*
X164210289Y-58421789D01*
X164321789Y-58310289D01*
X164409394Y-58179179D01*
X164469737Y-58033497D01*
X164500500Y-57878842D01*
X164500500Y-57721158D01*
X164500500Y-57721155D01*
X164500499Y-57721153D01*
X164485297Y-57644727D01*
X164469737Y-57566503D01*
X164463942Y-57552512D01*
X164409397Y-57420827D01*
X164409390Y-57420814D01*
X164321789Y-57289711D01*
X164321786Y-57289707D01*
X164210292Y-57178213D01*
X164210288Y-57178210D01*
X164079185Y-57090609D01*
X164079172Y-57090602D01*
X163933501Y-57030264D01*
X163933491Y-57030261D01*
X163816826Y-57007055D01*
X163754915Y-56974670D01*
X163720341Y-56913954D01*
X163724081Y-56844185D01*
X163726457Y-56837986D01*
X163767701Y-56738412D01*
X163769737Y-56733497D01*
X163800500Y-56578842D01*
X163800500Y-56421158D01*
X163800500Y-56421155D01*
X163800499Y-56421153D01*
X163789849Y-56367611D01*
X163769737Y-56266503D01*
X163709794Y-56121786D01*
X163709397Y-56120827D01*
X163709390Y-56120814D01*
X163621789Y-55989711D01*
X163621786Y-55989707D01*
X163510292Y-55878213D01*
X163510288Y-55878210D01*
X163379185Y-55790609D01*
X163379172Y-55790602D01*
X163233501Y-55730264D01*
X163233489Y-55730261D01*
X163078845Y-55699500D01*
X163078842Y-55699500D01*
X162921158Y-55699500D01*
X162921155Y-55699500D01*
X162766510Y-55730261D01*
X162766498Y-55730264D01*
X162620827Y-55790602D01*
X162620814Y-55790609D01*
X162489711Y-55878210D01*
X162489707Y-55878213D01*
X162378213Y-55989707D01*
X162378210Y-55989711D01*
X162290609Y-56120814D01*
X162290602Y-56120827D01*
X162230264Y-56266498D01*
X162230261Y-56266510D01*
X162199500Y-56421153D01*
X161681348Y-56421153D01*
X161709394Y-56379179D01*
X161769737Y-56233497D01*
X161800500Y-56078842D01*
X161800500Y-55921158D01*
X161800500Y-55921155D01*
X161800499Y-55921153D01*
X161774531Y-55790604D01*
X161769737Y-55766503D01*
X161756062Y-55733489D01*
X161709397Y-55620827D01*
X161709390Y-55620814D01*
X161621789Y-55489711D01*
X161621786Y-55489707D01*
X161510292Y-55378213D01*
X161510288Y-55378210D01*
X161379185Y-55290609D01*
X161379172Y-55290602D01*
X161233501Y-55230264D01*
X161233489Y-55230261D01*
X161078845Y-55199500D01*
X161078842Y-55199500D01*
X160921158Y-55199500D01*
X160921155Y-55199500D01*
X160766510Y-55230261D01*
X160766498Y-55230264D01*
X160620827Y-55290602D01*
X160620814Y-55290609D01*
X160489711Y-55378210D01*
X160489707Y-55378213D01*
X160378213Y-55489707D01*
X160378210Y-55489711D01*
X160290609Y-55620814D01*
X160290602Y-55620827D01*
X160230264Y-55766498D01*
X160230261Y-55766510D01*
X160199500Y-55921153D01*
X157300499Y-55921153D01*
X157274531Y-55790604D01*
X157269737Y-55766503D01*
X157256062Y-55733489D01*
X157209397Y-55620827D01*
X157209390Y-55620814D01*
X157121789Y-55489711D01*
X157121786Y-55489707D01*
X157010292Y-55378213D01*
X157010288Y-55378210D01*
X156879185Y-55290609D01*
X156879172Y-55290602D01*
X156733501Y-55230264D01*
X156733489Y-55230261D01*
X156578845Y-55199500D01*
X156578842Y-55199500D01*
X156421158Y-55199500D01*
X156421155Y-55199500D01*
X156266510Y-55230261D01*
X156266498Y-55230264D01*
X156120827Y-55290602D01*
X156120814Y-55290609D01*
X155989711Y-55378210D01*
X155989707Y-55378213D01*
X155878213Y-55489707D01*
X155878210Y-55489711D01*
X155790609Y-55620814D01*
X155790602Y-55620827D01*
X155730264Y-55766498D01*
X155730261Y-55766510D01*
X155699500Y-55921153D01*
X152920001Y-55921153D01*
X152917246Y-55903759D01*
X152917246Y-55903757D01*
X152851557Y-55701588D01*
X152755051Y-55512184D01*
X152755049Y-55512181D01*
X152755048Y-55512179D01*
X152630109Y-55340213D01*
X152479786Y-55189890D01*
X152307820Y-55064951D01*
X152307115Y-55064591D01*
X152299054Y-55060485D01*
X152248259Y-55012512D01*
X152231463Y-54944692D01*
X152253999Y-54878556D01*
X152299054Y-54839515D01*
X152307816Y-54835051D01*
X152368995Y-54790602D01*
X152479786Y-54710109D01*
X152479788Y-54710106D01*
X152479792Y-54710104D01*
X152630104Y-54559792D01*
X152630106Y-54559788D01*
X152630109Y-54559786D01*
X152755048Y-54387820D01*
X152755047Y-54387820D01*
X152755051Y-54387816D01*
X152851557Y-54198412D01*
X152917246Y-53996243D01*
X152950500Y-53786287D01*
X152950500Y-53733543D01*
X155179499Y-53733543D01*
X155217947Y-53926829D01*
X155217950Y-53926839D01*
X155293364Y-54108907D01*
X155293371Y-54108920D01*
X155402860Y-54272781D01*
X155402863Y-54272785D01*
X155542214Y-54412136D01*
X155542218Y-54412139D01*
X155706079Y-54521628D01*
X155706092Y-54521635D01*
X155888160Y-54597049D01*
X155888165Y-54597051D01*
X155888169Y-54597051D01*
X155888170Y-54597052D01*
X156081456Y-54635500D01*
X156081459Y-54635500D01*
X156278543Y-54635500D01*
X156408582Y-54609632D01*
X156471835Y-54597051D01*
X156653914Y-54521632D01*
X156817782Y-54412139D01*
X156957139Y-54272782D01*
X157066632Y-54108914D01*
X157142051Y-53926835D01*
X157180500Y-53733541D01*
X157180500Y-53186333D01*
X157200185Y-53119294D01*
X157252989Y-53073539D01*
X157322147Y-53063595D01*
X157366501Y-53078947D01*
X157387859Y-53091278D01*
X157387860Y-53091278D01*
X157387865Y-53091281D01*
X157534234Y-53130500D01*
X157534236Y-53130500D01*
X157685764Y-53130500D01*
X157685766Y-53130500D01*
X157832135Y-53091281D01*
X157963365Y-53015515D01*
X158070515Y-52908365D01*
X158146281Y-52777135D01*
X158185500Y-52630766D01*
X158185500Y-52479234D01*
X158146281Y-52332865D01*
X158070515Y-52201635D01*
X157963365Y-52094485D01*
X157897750Y-52056602D01*
X157832136Y-52018719D01*
X157758950Y-51999109D01*
X157685766Y-51979500D01*
X157534234Y-51979500D01*
X157387863Y-52018719D01*
X157256627Y-52094489D01*
X157250502Y-52099190D01*
X157185333Y-52124383D01*
X157116888Y-52110343D01*
X157070976Y-52065509D01*
X157070017Y-52066151D01*
X157066982Y-52061609D01*
X157066899Y-52061528D01*
X157066766Y-52061286D01*
X156957139Y-51897218D01*
X156957136Y-51897214D01*
X156817785Y-51757863D01*
X156817781Y-51757860D01*
X156653920Y-51648371D01*
X156653907Y-51648364D01*
X156471839Y-51572950D01*
X156471829Y-51572947D01*
X156278543Y-51534500D01*
X156278541Y-51534500D01*
X156081459Y-51534500D01*
X156081457Y-51534500D01*
X155888170Y-51572947D01*
X155888160Y-51572950D01*
X155706092Y-51648364D01*
X155706079Y-51648371D01*
X155542218Y-51757860D01*
X155542214Y-51757863D01*
X155402863Y-51897214D01*
X155402860Y-51897218D01*
X155293371Y-52061079D01*
X155293364Y-52061092D01*
X155217950Y-52243160D01*
X155217947Y-52243170D01*
X155179500Y-52436456D01*
X155179500Y-52436459D01*
X155179500Y-53733541D01*
X155179500Y-53733543D01*
X155179499Y-53733543D01*
X152950500Y-53733543D01*
X152950500Y-53573713D01*
X152917246Y-53363757D01*
X152851557Y-53161588D01*
X152755051Y-52972184D01*
X152755049Y-52972181D01*
X152755048Y-52972179D01*
X152630109Y-52800213D01*
X152479786Y-52649890D01*
X152319667Y-52533558D01*
X152319656Y-52533551D01*
X152307816Y-52524949D01*
X152294718Y-52518275D01*
X152290576Y-52515738D01*
X152270264Y-52493294D01*
X152248259Y-52472512D01*
X152247054Y-52467648D01*
X152243693Y-52463934D01*
X152238739Y-52434075D01*
X152231463Y-52404692D01*
X152233079Y-52399949D01*
X152232259Y-52395006D01*
X152244234Y-52367211D01*
X152253999Y-52338556D01*
X152258119Y-52334985D01*
X152259906Y-52330839D01*
X152273377Y-52321764D01*
X152299054Y-52299515D01*
X152307816Y-52295051D01*
X152379225Y-52243170D01*
X152479786Y-52170109D01*
X152479788Y-52170106D01*
X152479792Y-52170104D01*
X152630104Y-52019792D01*
X152630106Y-52019788D01*
X152630109Y-52019786D01*
X152755048Y-51847820D01*
X152755049Y-51847819D01*
X152755051Y-51847816D01*
X152851557Y-51658412D01*
X152917246Y-51456243D01*
X152950500Y-51246287D01*
X152950500Y-51033713D01*
X152932672Y-50921153D01*
X153199500Y-50921153D01*
X153199500Y-51078846D01*
X153230261Y-51233489D01*
X153230264Y-51233501D01*
X153290602Y-51379172D01*
X153290609Y-51379185D01*
X153378210Y-51510288D01*
X153378213Y-51510292D01*
X153489707Y-51621786D01*
X153489711Y-51621789D01*
X153620814Y-51709390D01*
X153620827Y-51709397D01*
X153766498Y-51769735D01*
X153766503Y-51769737D01*
X153921153Y-51800499D01*
X153921156Y-51800500D01*
X153921158Y-51800500D01*
X154078844Y-51800500D01*
X154078845Y-51800499D01*
X154233497Y-51769737D01*
X154379179Y-51709394D01*
X154510289Y-51621789D01*
X154621789Y-51510289D01*
X154709394Y-51379179D01*
X154769737Y-51233497D01*
X154800500Y-51078842D01*
X154800500Y-50921158D01*
X154800500Y-50921155D01*
X154800499Y-50921153D01*
X154781126Y-50823760D01*
X154769737Y-50766503D01*
X154709712Y-50621588D01*
X154709397Y-50620827D01*
X154709390Y-50620814D01*
X154621789Y-50489711D01*
X154621786Y-50489707D01*
X154510292Y-50378213D01*
X154510288Y-50378210D01*
X154379185Y-50290609D01*
X154379172Y-50290602D01*
X154233501Y-50230264D01*
X154233489Y-50230261D01*
X154078845Y-50199500D01*
X154078842Y-50199500D01*
X153921158Y-50199500D01*
X153921155Y-50199500D01*
X153766510Y-50230261D01*
X153766498Y-50230264D01*
X153620827Y-50290602D01*
X153620814Y-50290609D01*
X153489711Y-50378210D01*
X153489707Y-50378213D01*
X153378213Y-50489707D01*
X153378210Y-50489711D01*
X153290609Y-50620814D01*
X153290602Y-50620827D01*
X153230264Y-50766498D01*
X153230261Y-50766510D01*
X153199500Y-50921153D01*
X152932672Y-50921153D01*
X152917246Y-50823757D01*
X152851557Y-50621588D01*
X152755051Y-50432184D01*
X152755049Y-50432181D01*
X152755048Y-50432179D01*
X152630109Y-50260213D01*
X152516569Y-50146673D01*
X152483084Y-50085350D01*
X152488068Y-50015658D01*
X152529940Y-49959725D01*
X152560915Y-49942810D01*
X152692331Y-49893796D01*
X152807546Y-49807546D01*
X152893796Y-49692331D01*
X152944091Y-49557483D01*
X152950500Y-49497873D01*
X152950499Y-47874499D01*
X152970184Y-47807461D01*
X153022987Y-47761706D01*
X153074499Y-47750500D01*
X155320216Y-47750500D01*
X155387255Y-47770185D01*
G37*
%TD.AperFunction*%
%TD*%
M02*
