%TF.GenerationSoftware,KiCad,Pcbnew,9.0.5*%
%TF.CreationDate,2025-12-05T18:53:18-06:00*%
%TF.ProjectId,JollyDevboard,4a6f6c6c-7944-4657-9662-6f6172642e6b,rev?*%
%TF.SameCoordinates,Original*%
%TF.FileFunction,Copper,L4,Bot*%
%TF.FilePolarity,Positive*%
%FSLAX46Y46*%
G04 Gerber Fmt 4.6, Leading zero omitted, Abs format (unit mm)*
G04 Created by KiCad (PCBNEW 9.0.5) date 2025-12-05 18:53:18*
%MOMM*%
%LPD*%
G01*
G04 APERTURE LIST*
%TA.AperFunction,ComponentPad*%
%ADD10R,1.700000X1.700000*%
%TD*%
%TA.AperFunction,ComponentPad*%
%ADD11C,1.700000*%
%TD*%
%TA.AperFunction,HeatsinkPad*%
%ADD12O,1.000000X2.100000*%
%TD*%
%TA.AperFunction,HeatsinkPad*%
%ADD13O,1.000000X1.600000*%
%TD*%
%TA.AperFunction,ViaPad*%
%ADD14C,0.600000*%
%TD*%
%TA.AperFunction,Conductor*%
%ADD15C,0.200000*%
%TD*%
G04 APERTURE END LIST*
D10*
%TO.P,J3,1,Pin_1*%
%TO.N,VBUS*%
X169700000Y-48600000D03*
D11*
%TO.P,J3,2,Pin_2*%
%TO.N,GPIO29_ADC3*%
X169700000Y-51140000D03*
%TO.P,J3,3,Pin_3*%
%TO.N,GND*%
X169700000Y-53680000D03*
%TO.P,J3,4,Pin_4*%
%TO.N,GPIO28_ADC2*%
X169700000Y-56220000D03*
%TO.P,J3,5,Pin_5*%
%TO.N,+3V3*%
X169700000Y-58760000D03*
%TO.P,J3,6,Pin_6*%
%TO.N,GPIO27_ADC1*%
X169700000Y-61300000D03*
%TO.P,J3,7,Pin_7*%
%TO.N,GPIO26_ADC0*%
X169700000Y-63840000D03*
%TO.P,J3,8,Pin_8*%
%TO.N,GND*%
X169700000Y-66380000D03*
%TO.P,J3,9,Pin_9*%
%TO.N,GPIO24*%
X169700000Y-68920000D03*
%TO.P,J3,10,Pin_10*%
%TO.N,GPIO23*%
X169700000Y-71460000D03*
%TO.P,J3,11,Pin_11*%
%TO.N,RUN*%
X169700000Y-74000000D03*
%TO.P,J3,12,Pin_12*%
%TO.N,GPIO22*%
X169700000Y-76540000D03*
%TO.P,J3,13,Pin_13*%
%TO.N,GND*%
X169700000Y-79080000D03*
%TO.P,J3,14,Pin_14*%
%TO.N,GPIO21*%
X169700000Y-81620000D03*
%TO.P,J3,15,Pin_15*%
%TO.N,GPIO20*%
X169700000Y-84160000D03*
%TO.P,J3,16,Pin_16*%
%TO.N,GPIO19*%
X169700000Y-86700000D03*
%TO.P,J3,17,Pin_17*%
%TO.N,GPIO18*%
X169700000Y-89240000D03*
%TO.P,J3,18,Pin_18*%
%TO.N,GND*%
X169700000Y-91780000D03*
%TO.P,J3,19,Pin_19*%
%TO.N,GPIO17*%
X169700000Y-94320000D03*
%TO.P,J3,20,Pin_20*%
%TO.N,GPIO16*%
X169700000Y-96860000D03*
%TD*%
D10*
%TO.P,J4,1,Pin_1*%
%TO.N,SWD*%
X157500000Y-96500000D03*
D11*
%TO.P,J4,2,Pin_2*%
%TO.N,GND*%
X160040000Y-96500000D03*
%TO.P,J4,3,Pin_3*%
%TO.N,SWCLK*%
X162580000Y-96500000D03*
%TD*%
D10*
%TO.P,J2,1,Pin_1*%
%TO.N,GPIO0*%
X151600000Y-48600000D03*
D11*
%TO.P,J2,2,Pin_2*%
%TO.N,GPIO1*%
X151600000Y-51140000D03*
%TO.P,J2,3,Pin_3*%
%TO.N,GND*%
X151600000Y-53680000D03*
%TO.P,J2,4,Pin_4*%
%TO.N,GPIO2*%
X151600000Y-56220000D03*
%TO.P,J2,5,Pin_5*%
%TO.N,GPIO3*%
X151600000Y-58760000D03*
%TO.P,J2,6,Pin_6*%
%TO.N,GPIO4*%
X151600000Y-61300000D03*
%TO.P,J2,7,Pin_7*%
%TO.N,GPIO5*%
X151600000Y-63840000D03*
%TO.P,J2,8,Pin_8*%
%TO.N,GND*%
X151600000Y-66380000D03*
%TO.P,J2,9,Pin_9*%
%TO.N,GPIO6*%
X151600000Y-68920000D03*
%TO.P,J2,10,Pin_10*%
%TO.N,GPIO7*%
X151600000Y-71460000D03*
%TO.P,J2,11,Pin_11*%
%TO.N,GPIO8*%
X151600000Y-74000000D03*
%TO.P,J2,12,Pin_12*%
%TO.N,GPIO9*%
X151600000Y-76540000D03*
%TO.P,J2,13,Pin_13*%
%TO.N,GND*%
X151600000Y-79080000D03*
%TO.P,J2,14,Pin_14*%
%TO.N,GPIO10*%
X151600000Y-81620000D03*
%TO.P,J2,15,Pin_15*%
%TO.N,GPIO11*%
X151600000Y-84160000D03*
%TO.P,J2,16,Pin_16*%
%TO.N,GPIO12*%
X151600000Y-86700000D03*
%TO.P,J2,17,Pin_17*%
%TO.N,GPIO13*%
X151600000Y-89240000D03*
%TO.P,J2,18,Pin_18*%
%TO.N,GND*%
X151600000Y-91780000D03*
%TO.P,J2,19,Pin_19*%
%TO.N,GPIO14*%
X151600000Y-94320000D03*
%TO.P,J2,20,Pin_20*%
%TO.N,GPIO15*%
X151600000Y-96860000D03*
%TD*%
D12*
%TO.P,J1,S1,SHIELD*%
%TO.N,GND*%
X164820000Y-53085000D03*
D13*
X164820000Y-48905000D03*
D12*
X156180000Y-53085000D03*
D13*
X156180000Y-48905000D03*
%TD*%
D14*
%TO.N,GND*%
X157000000Y-94500000D03*
X159500000Y-85500000D03*
X167500000Y-52000000D03*
X167300000Y-69100000D03*
X160500000Y-71500000D03*
X158700000Y-79300000D03*
X166900000Y-55500000D03*
X156500000Y-59800000D03*
X167400000Y-57700000D03*
X159500000Y-83500000D03*
X158000000Y-66500000D03*
X169000000Y-90500000D03*
X162500000Y-84500000D03*
X153400000Y-90200000D03*
X153700000Y-73800000D03*
X163700000Y-57800000D03*
X166600000Y-59800000D03*
X154000000Y-51000000D03*
X156500000Y-56000000D03*
X166000000Y-76000000D03*
%TO.N,+3V3*%
X158200000Y-59600000D03*
X160500000Y-78500000D03*
X155500000Y-55000000D03*
X154300000Y-72800000D03*
X167174501Y-64044758D03*
X167400000Y-72400000D03*
X156000000Y-68500000D03*
X160512478Y-66704284D03*
X155500000Y-59000000D03*
X160500000Y-89000000D03*
X166500000Y-62000000D03*
X165500000Y-68500000D03*
X165800000Y-67600000D03*
%TO.N,+1V1*%
X160200000Y-69000000D03*
X164900000Y-66500000D03*
X161500000Y-76500000D03*
X161500000Y-76500000D03*
X161500000Y-89000000D03*
%TO.N,VBUS*%
X165500000Y-55500000D03*
%TO.N,LED_DECORATION*%
X165000000Y-84500000D03*
X163000000Y-71000000D03*
%TO.N,USB_D-*%
X162000000Y-65500000D03*
X161000000Y-56000000D03*
%TO.N,Net-(J1-CC1)*%
X167500000Y-56500000D03*
X163000000Y-56500000D03*
%TO.N,GPIO0*%
X158000000Y-70500000D03*
%TO.N,GPIO13*%
X158000000Y-76000000D03*
%TO.N,GPIO15*%
X159500000Y-74000000D03*
%TO.N,GPIO5*%
X154100000Y-70400000D03*
%TO.N,GPIO12*%
X158000000Y-74000000D03*
%TO.N,GPIO14*%
X158000000Y-73000000D03*
%TO.N,GPIO21*%
X163000000Y-73000000D03*
%TO.N,GPIO29_ADC3*%
X163000000Y-69500000D03*
%TO.N,GPIO22*%
X163100000Y-72100000D03*
%TO.N,SWD*%
X161500000Y-74000000D03*
%TO.N,Net-(U1-USB_DP)*%
X161600000Y-62900000D03*
X161297992Y-68980310D03*
%TO.N,Net-(U1-USB_DM)*%
X162097677Y-69002809D03*
X164000000Y-66000000D03*
%TO.N,XOUT*%
X160500000Y-74000000D03*
X156500000Y-79000000D03*
%TO.N,Net-(R6-Pad1)*%
X162500000Y-61500000D03*
X156887712Y-65730000D03*
%TO.N,QSPI_SD2*%
X156900000Y-67100000D03*
X158200000Y-64200000D03*
%TO.N,QSPI_SD3*%
X165500000Y-63000000D03*
X165500000Y-65500000D03*
X167400000Y-67200000D03*
X167300000Y-65400000D03*
X160100000Y-64800000D03*
%TO.N,QSPI_SD0*%
X159700000Y-63000000D03*
X162000000Y-64300000D03*
%TO.N,QSPI_SD1*%
X158500000Y-62500000D03*
X158500000Y-69000000D03*
%TD*%
D15*
%TO.N,GND*%
X156807769Y-66500000D02*
X156286712Y-65978943D01*
X151600000Y-91720000D02*
X153120000Y-90200000D01*
X169700000Y-66380000D02*
X167300000Y-68780000D01*
X158650057Y-71500000D02*
X160500000Y-71500000D01*
X153700000Y-73800000D02*
X153700000Y-76980000D01*
X164820000Y-48905000D02*
X156180000Y-48905000D01*
X151600000Y-66380000D02*
X153300000Y-68080000D01*
X170000000Y-91680000D02*
X170000000Y-91500000D01*
X168100000Y-55600000D02*
X168100000Y-57000000D01*
X158000000Y-66500000D02*
X156807769Y-66500000D01*
X164820000Y-53085000D02*
X164820000Y-48905000D01*
X153300000Y-73400000D02*
X153700000Y-73800000D01*
X154000000Y-51000000D02*
X154000000Y-51220000D01*
X168000000Y-55500000D02*
X168100000Y-55600000D01*
X170000000Y-78980000D02*
X167020000Y-76000000D01*
X153700000Y-76980000D02*
X151600000Y-79080000D01*
X167300000Y-68780000D02*
X167300000Y-69100000D01*
X156286712Y-65978943D02*
X156286712Y-60013288D01*
X156350057Y-73800000D02*
X158650057Y-71500000D01*
X153120000Y-90200000D02*
X153400000Y-90200000D01*
X156180000Y-48905000D02*
X156180000Y-53085000D01*
X154000000Y-51220000D02*
X151600000Y-53620000D01*
X167020000Y-76000000D02*
X166000000Y-76000000D01*
X169000000Y-90500000D02*
X169000000Y-91180000D01*
X168100000Y-57000000D02*
X167400000Y-57700000D01*
X156286712Y-60013288D02*
X156500000Y-59800000D01*
X153700000Y-73800000D02*
X156350057Y-73800000D01*
X166900000Y-55500000D02*
X168000000Y-55500000D01*
X169000000Y-91180000D02*
X169500000Y-91680000D01*
X153300000Y-68080000D02*
X153300000Y-73400000D01*
%TO.N,+3V3*%
X170000000Y-58660000D02*
X170000000Y-58500000D01*
X170000000Y-58500000D02*
X169500000Y-58000000D01*
%TO.N,VBUS*%
X165500000Y-55500000D02*
X165621000Y-55379000D01*
X165621000Y-55379000D02*
X165621000Y-52879000D01*
X165621000Y-52879000D02*
X170000000Y-48500000D01*
%TO.N,LED_DECORATION*%
X165000000Y-84500000D02*
X162399000Y-81899000D01*
X162399000Y-71601000D02*
X163000000Y-71000000D01*
X162399000Y-81899000D02*
X162399000Y-71601000D01*
%TO.N,USB_D-*%
X161000000Y-56000000D02*
X163502000Y-58502000D01*
X163502000Y-58502000D02*
X163502000Y-63998000D01*
X163502000Y-63998000D02*
X162000000Y-65500000D01*
%TO.N,Net-(J1-CC1)*%
X163000000Y-56500000D02*
X167500000Y-56500000D01*
%TO.N,GPIO0*%
X155000000Y-68500000D02*
X155000000Y-67500000D01*
X154250000Y-49750000D02*
X153500000Y-49000000D01*
X153040000Y-48540000D02*
X151600000Y-48540000D01*
X155000000Y-67500000D02*
X154750000Y-67250000D01*
X157000000Y-70500000D02*
X155000000Y-68500000D01*
X158000000Y-70500000D02*
X157000000Y-70500000D01*
X154750000Y-67250000D02*
X154750000Y-50250000D01*
X154250000Y-49750000D02*
X153040000Y-48540000D01*
X151540000Y-48500000D02*
X151500000Y-48460000D01*
X154750000Y-50250000D02*
X154250000Y-49750000D01*
%TO.N,GPIO13*%
X156567100Y-76000000D02*
X153401000Y-79166100D01*
X153401000Y-79166100D02*
X153401000Y-87379000D01*
X153401000Y-87379000D02*
X151600000Y-89180000D01*
X158000000Y-76000000D02*
X156567100Y-76000000D01*
%TO.N,GPIO15*%
X154401000Y-93999000D02*
X151600000Y-96800000D01*
X154401000Y-79599000D02*
X154401000Y-93999000D01*
X156500000Y-77500000D02*
X154401000Y-79599000D01*
X159500000Y-75917043D02*
X157917043Y-77500000D01*
X157917043Y-77500000D02*
X156500000Y-77500000D01*
X159500000Y-74000000D02*
X159500000Y-75917043D01*
%TO.N,GPIO5*%
X154100000Y-66340000D02*
X151600000Y-63840000D01*
X154100000Y-70400000D02*
X154100000Y-66340000D01*
%TO.N,GPIO12*%
X153000000Y-85060000D02*
X151500000Y-86560000D01*
X158000000Y-74000000D02*
X153000000Y-79000000D01*
X153000000Y-79000000D02*
X153000000Y-85060000D01*
%TO.N,GPIO14*%
X158601000Y-76248943D02*
X158601000Y-73601000D01*
X153000000Y-94260000D02*
X154000000Y-93260000D01*
X158601000Y-73601000D02*
X158000000Y-73000000D01*
X154000000Y-93260000D02*
X154000000Y-79317100D01*
X154000000Y-79317100D02*
X156500000Y-76817100D01*
X158032843Y-76817100D02*
X158601000Y-76248943D01*
X151600000Y-94260000D02*
X153000000Y-94260000D01*
X156500000Y-76817100D02*
X158032843Y-76817100D01*
%TO.N,GPIO21*%
X163000000Y-73000000D02*
X163000000Y-74520000D01*
X163000000Y-74520000D02*
X170000000Y-81520000D01*
%TO.N,GPIO29_ADC3*%
X163000000Y-69500000D02*
X166000000Y-66500000D01*
X168500000Y-65500000D02*
X168500000Y-52500000D01*
X166000000Y-66500000D02*
X167500000Y-66500000D01*
X168500000Y-52500000D02*
X168540000Y-52500000D01*
X168540000Y-52500000D02*
X170000000Y-51040000D01*
X167500000Y-66500000D02*
X168500000Y-65500000D01*
%TO.N,GPIO22*%
X170000000Y-76440000D02*
X165660000Y-72100000D01*
X165660000Y-72100000D02*
X163100000Y-72100000D01*
%TO.N,SWD*%
X156000000Y-96500000D02*
X157500000Y-96500000D01*
X154802000Y-95302000D02*
X156000000Y-96500000D01*
X154802000Y-81749243D02*
X154802000Y-95302000D01*
X161500000Y-74000000D02*
X161500000Y-75051243D01*
X161500000Y-75051243D02*
X154802000Y-81749243D01*
%TO.N,Net-(U1-USB_DP)*%
X161297992Y-68980310D02*
X161297992Y-63202008D01*
X161297992Y-63202008D02*
X161600000Y-62900000D01*
%TO.N,Net-(U1-USB_DM)*%
X161900000Y-68805132D02*
X161900000Y-68100000D01*
X161900000Y-68100000D02*
X164000000Y-66000000D01*
X162097677Y-69002809D02*
X161900000Y-68805132D01*
%TO.N,XOUT*%
X157000000Y-78000000D02*
X156500000Y-78500000D01*
X157984143Y-78000000D02*
X157500000Y-78000000D01*
X156500000Y-78500000D02*
X156500000Y-79000000D01*
X160500000Y-74000000D02*
X160500000Y-75484143D01*
X160500000Y-75484143D02*
X157984143Y-78000000D01*
X157500000Y-78000000D02*
X157000000Y-78000000D01*
%TO.N,Net-(R6-Pad1)*%
X159000000Y-61500000D02*
X159500000Y-61500000D01*
X156916454Y-63233603D02*
X158650057Y-61500000D01*
X156916454Y-65701258D02*
X156916454Y-63233603D01*
X156887712Y-65730000D02*
X156916454Y-65701258D01*
X159000000Y-61500000D02*
X162500000Y-61500000D01*
X158650057Y-61500000D02*
X159000000Y-61500000D01*
%TO.N,QSPI_SD2*%
X158601000Y-64901000D02*
X158601000Y-64601000D01*
X158601000Y-64601000D02*
X158200000Y-64200000D01*
X156900000Y-67100000D02*
X158249943Y-67100000D01*
X158601000Y-66748943D02*
X158601000Y-64901000D01*
X158249943Y-67100000D02*
X158601000Y-66748943D01*
%TO.N,QSPI_SD3*%
X167400000Y-67449943D02*
X164748943Y-70101000D01*
X167000000Y-65700000D02*
X167300000Y-65400000D01*
X159599000Y-69248943D02*
X159599000Y-65301000D01*
X164748943Y-70101000D02*
X160451057Y-70101000D01*
X160451057Y-70101000D02*
X159599000Y-69248943D01*
X167400000Y-67200000D02*
X167400000Y-67449943D01*
X165500000Y-65500000D02*
X165700000Y-65700000D01*
X159599000Y-65301000D02*
X160100000Y-64800000D01*
X165500000Y-65500000D02*
X165500000Y-63000000D01*
X165700000Y-65700000D02*
X167000000Y-65700000D01*
%TO.N,QSPI_SD0*%
X160401000Y-62299000D02*
X159700000Y-63000000D01*
X162201000Y-64099000D02*
X162201000Y-62651057D01*
X162000000Y-64300000D02*
X162201000Y-64099000D01*
X162201000Y-62651057D02*
X161848943Y-62299000D01*
X161848943Y-62299000D02*
X160401000Y-62299000D01*
%TO.N,QSPI_SD1*%
X158750000Y-68750000D02*
X158500000Y-69000000D01*
X159099000Y-63099000D02*
X159099000Y-68400000D01*
X158750000Y-68750000D02*
X158750000Y-68749000D01*
X158750000Y-68749000D02*
X159099000Y-68400000D01*
X158500000Y-62500000D02*
X159099000Y-63099000D01*
%TD*%
%TA.AperFunction,Conductor*%
%TO.N,GND*%
G36*
X159574075Y-96692993D02*
G01*
X159639901Y-96807007D01*
X159732993Y-96900099D01*
X159847007Y-96965925D01*
X159910590Y-96982962D01*
X159278282Y-97615269D01*
X159278322Y-97615770D01*
X159275462Y-97629381D01*
X159277442Y-97643147D01*
X159268421Y-97662898D01*
X159263958Y-97684147D01*
X159254195Y-97694050D01*
X159248417Y-97706703D01*
X159230149Y-97718442D01*
X159214907Y-97733905D01*
X159200135Y-97737731D01*
X159189639Y-97744477D01*
X159154704Y-97749500D01*
X158913769Y-97749500D01*
X158846730Y-97729815D01*
X158800975Y-97677011D01*
X158791031Y-97607853D01*
X158797587Y-97582167D01*
X158802939Y-97567816D01*
X158844091Y-97457483D01*
X158850500Y-97397873D01*
X158850499Y-97387312D01*
X158870179Y-97320275D01*
X158886818Y-97299626D01*
X159557037Y-96629408D01*
X159574075Y-96692993D01*
G37*
%TD.AperFunction*%
%TA.AperFunction,Conductor*%
G36*
X161155270Y-97261717D02*
G01*
X161155270Y-97261716D01*
X161194622Y-97207555D01*
X161199232Y-97198507D01*
X161247205Y-97147709D01*
X161315025Y-97130912D01*
X161381161Y-97153447D01*
X161420204Y-97198504D01*
X161424949Y-97207817D01*
X161549890Y-97379786D01*
X161700210Y-97530106D01*
X161701507Y-97531214D01*
X161701862Y-97531758D01*
X161703653Y-97533549D01*
X161703276Y-97533925D01*
X161739698Y-97589723D01*
X161740193Y-97659591D01*
X161702836Y-97718635D01*
X161639488Y-97748110D01*
X161620971Y-97749500D01*
X160925296Y-97749500D01*
X160858257Y-97729815D01*
X160812502Y-97677011D01*
X160801678Y-97615772D01*
X160801717Y-97615270D01*
X160169408Y-96982962D01*
X160232993Y-96965925D01*
X160347007Y-96900099D01*
X160440099Y-96807007D01*
X160505925Y-96692993D01*
X160522962Y-96629408D01*
X161155270Y-97261717D01*
G37*
%TD.AperFunction*%
%TA.AperFunction,Conductor*%
G36*
X163204703Y-75574384D02*
G01*
X163211181Y-75580416D01*
X168480569Y-80849804D01*
X168514054Y-80911127D01*
X168509070Y-80980819D01*
X168503373Y-80993779D01*
X168448441Y-81101590D01*
X168448441Y-81101591D01*
X168382753Y-81303759D01*
X168349500Y-81513713D01*
X168349500Y-81726287D01*
X168382754Y-81936243D01*
X168419501Y-82049339D01*
X168448444Y-82138414D01*
X168544951Y-82327820D01*
X168669890Y-82499786D01*
X168820213Y-82650109D01*
X168992182Y-82775050D01*
X169000946Y-82779516D01*
X169051742Y-82827491D01*
X169068536Y-82895312D01*
X169045998Y-82961447D01*
X169000946Y-83000484D01*
X168992182Y-83004949D01*
X168820213Y-83129890D01*
X168669890Y-83280213D01*
X168544951Y-83452179D01*
X168448444Y-83641585D01*
X168382753Y-83843760D01*
X168359637Y-83989711D01*
X168349500Y-84053713D01*
X168349500Y-84266287D01*
X168349534Y-84266503D01*
X168374028Y-84421153D01*
X168382754Y-84476243D01*
X168416091Y-84578844D01*
X168448444Y-84678414D01*
X168544951Y-84867820D01*
X168669890Y-85039786D01*
X168820213Y-85190109D01*
X168992182Y-85315050D01*
X169000946Y-85319516D01*
X169051742Y-85367491D01*
X169068536Y-85435312D01*
X169045998Y-85501447D01*
X169000946Y-85540484D01*
X168992182Y-85544949D01*
X168820213Y-85669890D01*
X168669890Y-85820213D01*
X168544951Y-85992179D01*
X168448444Y-86181585D01*
X168382753Y-86383760D01*
X168349500Y-86593713D01*
X168349500Y-86806286D01*
X168382753Y-87016239D01*
X168448444Y-87218414D01*
X168544951Y-87407820D01*
X168669890Y-87579786D01*
X168820213Y-87730109D01*
X168992182Y-87855050D01*
X169000946Y-87859516D01*
X169051742Y-87907491D01*
X169068536Y-87975312D01*
X169045998Y-88041447D01*
X169000946Y-88080484D01*
X168992182Y-88084949D01*
X168820213Y-88209890D01*
X168669890Y-88360213D01*
X168544951Y-88532179D01*
X168448444Y-88721585D01*
X168382753Y-88923760D01*
X168349500Y-89133713D01*
X168349500Y-89346286D01*
X168375475Y-89510289D01*
X168382754Y-89556243D01*
X168420463Y-89672300D01*
X168448444Y-89758414D01*
X168544951Y-89947820D01*
X168669890Y-90119786D01*
X168820213Y-90270109D01*
X168992179Y-90395048D01*
X168992181Y-90395049D01*
X168992184Y-90395051D01*
X169001493Y-90399794D01*
X169052290Y-90447766D01*
X169069087Y-90515587D01*
X169046552Y-90581722D01*
X169001505Y-90620760D01*
X168992446Y-90625376D01*
X168992440Y-90625380D01*
X168938282Y-90664727D01*
X168938282Y-90664728D01*
X169570591Y-91297037D01*
X169507007Y-91314075D01*
X169392993Y-91379901D01*
X169299901Y-91472993D01*
X169234075Y-91587007D01*
X169217037Y-91650591D01*
X168584728Y-91018282D01*
X168584727Y-91018282D01*
X168545380Y-91072439D01*
X168448904Y-91261782D01*
X168383242Y-91463869D01*
X168383242Y-91463872D01*
X168350000Y-91673753D01*
X168350000Y-91886246D01*
X168383242Y-92096127D01*
X168383242Y-92096130D01*
X168448904Y-92298217D01*
X168545375Y-92487550D01*
X168584728Y-92541716D01*
X169217037Y-91909408D01*
X169234075Y-91972993D01*
X169299901Y-92087007D01*
X169392993Y-92180099D01*
X169507007Y-92245925D01*
X169570589Y-92262962D01*
X168938282Y-92895269D01*
X168938282Y-92895270D01*
X168992452Y-92934626D01*
X168992451Y-92934626D01*
X169001495Y-92939234D01*
X169052292Y-92987208D01*
X169069087Y-93055029D01*
X169046550Y-93121164D01*
X169001499Y-93160202D01*
X168992182Y-93164949D01*
X168820213Y-93289890D01*
X168669890Y-93440213D01*
X168544951Y-93612179D01*
X168448444Y-93801585D01*
X168382753Y-94003760D01*
X168349500Y-94213713D01*
X168349500Y-94426286D01*
X168382753Y-94636239D01*
X168448444Y-94838414D01*
X168544951Y-95027820D01*
X168669890Y-95199786D01*
X168820213Y-95350109D01*
X168992182Y-95475050D01*
X169000946Y-95479516D01*
X169051742Y-95527491D01*
X169068536Y-95595312D01*
X169045998Y-95661447D01*
X169000946Y-95700484D01*
X168992182Y-95704949D01*
X168820213Y-95829890D01*
X168669890Y-95980213D01*
X168544951Y-96152179D01*
X168448444Y-96341585D01*
X168382753Y-96543760D01*
X168349500Y-96753713D01*
X168349500Y-96966286D01*
X168382238Y-97172990D01*
X168382754Y-97176243D01*
X168448443Y-97378412D01*
X168532965Y-97544297D01*
X168545657Y-97569205D01*
X168558553Y-97637874D01*
X168532277Y-97702615D01*
X168475170Y-97742872D01*
X168435172Y-97749500D01*
X163539029Y-97749500D01*
X163471990Y-97729815D01*
X163426235Y-97677011D01*
X163416291Y-97607853D01*
X163445316Y-97544297D01*
X163458493Y-97531214D01*
X163459789Y-97530106D01*
X163459788Y-97530106D01*
X163459792Y-97530104D01*
X163610104Y-97379792D01*
X163610106Y-97379788D01*
X163610109Y-97379786D01*
X163735048Y-97207820D01*
X163735050Y-97207817D01*
X163735051Y-97207816D01*
X163831557Y-97018412D01*
X163897246Y-96816243D01*
X163930500Y-96606287D01*
X163930500Y-96393713D01*
X163897246Y-96183757D01*
X163831557Y-95981588D01*
X163735051Y-95792184D01*
X163735049Y-95792181D01*
X163735048Y-95792179D01*
X163610109Y-95620213D01*
X163459786Y-95469890D01*
X163287820Y-95344951D01*
X163098414Y-95248444D01*
X163098413Y-95248443D01*
X163098412Y-95248443D01*
X162896243Y-95182754D01*
X162896241Y-95182753D01*
X162896240Y-95182753D01*
X162734957Y-95157208D01*
X162686287Y-95149500D01*
X162473713Y-95149500D01*
X162425042Y-95157208D01*
X162263760Y-95182753D01*
X162162672Y-95215598D01*
X162130873Y-95225931D01*
X162061585Y-95248444D01*
X161872179Y-95344951D01*
X161700213Y-95469890D01*
X161549890Y-95620213D01*
X161424949Y-95792182D01*
X161420202Y-95801499D01*
X161372227Y-95852293D01*
X161304405Y-95869087D01*
X161238271Y-95846548D01*
X161199234Y-95801495D01*
X161194626Y-95792452D01*
X161155270Y-95738282D01*
X161155269Y-95738282D01*
X160522962Y-96370590D01*
X160505925Y-96307007D01*
X160440099Y-96192993D01*
X160347007Y-96099901D01*
X160232993Y-96034075D01*
X160169409Y-96017037D01*
X160801716Y-95384728D01*
X160747550Y-95345375D01*
X160558217Y-95248904D01*
X160356129Y-95183242D01*
X160146246Y-95150000D01*
X159933754Y-95150000D01*
X159723872Y-95183242D01*
X159723869Y-95183242D01*
X159521782Y-95248904D01*
X159332439Y-95345380D01*
X159278282Y-95384727D01*
X159278282Y-95384728D01*
X159910591Y-96017037D01*
X159847007Y-96034075D01*
X159732993Y-96099901D01*
X159639901Y-96192993D01*
X159574075Y-96307007D01*
X159557037Y-96370591D01*
X158886818Y-95700372D01*
X158853333Y-95639049D01*
X158853330Y-95639036D01*
X158850499Y-95626015D01*
X158850499Y-95602128D01*
X158844091Y-95542517D01*
X158815926Y-95467002D01*
X158793798Y-95407673D01*
X158793793Y-95407664D01*
X158707547Y-95292455D01*
X158707544Y-95292452D01*
X158592335Y-95206206D01*
X158592328Y-95206202D01*
X158457482Y-95155908D01*
X158457483Y-95155908D01*
X158397883Y-95149501D01*
X158397881Y-95149500D01*
X158397873Y-95149500D01*
X158397864Y-95149500D01*
X156602129Y-95149500D01*
X156602123Y-95149501D01*
X156542516Y-95155908D01*
X156407671Y-95206202D01*
X156407664Y-95206206D01*
X156292455Y-95292452D01*
X156292452Y-95292455D01*
X156206206Y-95407664D01*
X156206202Y-95407671D01*
X156153198Y-95549785D01*
X156151273Y-95549067D01*
X156121967Y-95600520D01*
X156060052Y-95632898D01*
X155990461Y-95626663D01*
X155948194Y-95598959D01*
X155438819Y-95089584D01*
X155405334Y-95028261D01*
X155402500Y-95001903D01*
X155402500Y-88921153D01*
X159699500Y-88921153D01*
X159699500Y-89078846D01*
X159730261Y-89233489D01*
X159730264Y-89233501D01*
X159790602Y-89379172D01*
X159790609Y-89379185D01*
X159878210Y-89510288D01*
X159878213Y-89510292D01*
X159989707Y-89621786D01*
X159989711Y-89621789D01*
X160120814Y-89709390D01*
X160120827Y-89709397D01*
X160266498Y-89769735D01*
X160266503Y-89769737D01*
X160421153Y-89800499D01*
X160421156Y-89800500D01*
X160421158Y-89800500D01*
X160578844Y-89800500D01*
X160578845Y-89800499D01*
X160733497Y-89769737D01*
X160879179Y-89709394D01*
X160931110Y-89674694D01*
X160997785Y-89653816D01*
X161065165Y-89672300D01*
X161068863Y-89674676D01*
X161120821Y-89709394D01*
X161120823Y-89709395D01*
X161120825Y-89709396D01*
X161266498Y-89769735D01*
X161266503Y-89769737D01*
X161421153Y-89800499D01*
X161421156Y-89800500D01*
X161421158Y-89800500D01*
X161578844Y-89800500D01*
X161578845Y-89800499D01*
X161733497Y-89769737D01*
X161879179Y-89709394D01*
X162010289Y-89621789D01*
X162121789Y-89510289D01*
X162209394Y-89379179D01*
X162269737Y-89233497D01*
X162300500Y-89078842D01*
X162300500Y-88921158D01*
X162300500Y-88921155D01*
X162300499Y-88921153D01*
X162269737Y-88766503D01*
X162251133Y-88721588D01*
X162209397Y-88620827D01*
X162209390Y-88620814D01*
X162121789Y-88489711D01*
X162121786Y-88489707D01*
X162010292Y-88378213D01*
X162010288Y-88378210D01*
X161879185Y-88290609D01*
X161879172Y-88290602D01*
X161733501Y-88230264D01*
X161733489Y-88230261D01*
X161578845Y-88199500D01*
X161578842Y-88199500D01*
X161421158Y-88199500D01*
X161421155Y-88199500D01*
X161266510Y-88230261D01*
X161266498Y-88230264D01*
X161120827Y-88290602D01*
X161120814Y-88290609D01*
X161068891Y-88325304D01*
X161002214Y-88346182D01*
X160934833Y-88327698D01*
X160931109Y-88325304D01*
X160879185Y-88290609D01*
X160879172Y-88290602D01*
X160733501Y-88230264D01*
X160733489Y-88230261D01*
X160578845Y-88199500D01*
X160578842Y-88199500D01*
X160421158Y-88199500D01*
X160421155Y-88199500D01*
X160266510Y-88230261D01*
X160266498Y-88230264D01*
X160120827Y-88290602D01*
X160120814Y-88290609D01*
X159989711Y-88378210D01*
X159989707Y-88378213D01*
X159878213Y-88489707D01*
X159878210Y-88489711D01*
X159790609Y-88620814D01*
X159790602Y-88620827D01*
X159730264Y-88766498D01*
X159730261Y-88766510D01*
X159699500Y-88921153D01*
X155402500Y-88921153D01*
X155402500Y-82049339D01*
X155422185Y-81982300D01*
X155438814Y-81961663D01*
X158979323Y-78421153D01*
X159699500Y-78421153D01*
X159699500Y-78578846D01*
X159730261Y-78733489D01*
X159730264Y-78733501D01*
X159790602Y-78879172D01*
X159790609Y-78879185D01*
X159878210Y-79010288D01*
X159878213Y-79010292D01*
X159989707Y-79121786D01*
X159989711Y-79121789D01*
X160120814Y-79209390D01*
X160120827Y-79209397D01*
X160231103Y-79255074D01*
X160266503Y-79269737D01*
X160421153Y-79300499D01*
X160421156Y-79300500D01*
X160421158Y-79300500D01*
X160578844Y-79300500D01*
X160578845Y-79300499D01*
X160733497Y-79269737D01*
X160879179Y-79209394D01*
X161010289Y-79121789D01*
X161121789Y-79010289D01*
X161209394Y-78879179D01*
X161210353Y-78876865D01*
X161235753Y-78815542D01*
X161269737Y-78733497D01*
X161300500Y-78578842D01*
X161300500Y-78421158D01*
X161300500Y-78421155D01*
X161300499Y-78421153D01*
X161281847Y-78327385D01*
X161269737Y-78266503D01*
X161269735Y-78266498D01*
X161209397Y-78120827D01*
X161209390Y-78120814D01*
X161121789Y-77989711D01*
X161121786Y-77989707D01*
X161010292Y-77878213D01*
X161010288Y-77878210D01*
X160879185Y-77790609D01*
X160879172Y-77790602D01*
X160733501Y-77730264D01*
X160733489Y-77730261D01*
X160578845Y-77699500D01*
X160578842Y-77699500D01*
X160421158Y-77699500D01*
X160421155Y-77699500D01*
X160266510Y-77730261D01*
X160266498Y-77730264D01*
X160120827Y-77790602D01*
X160120814Y-77790609D01*
X159989711Y-77878210D01*
X159989707Y-77878213D01*
X159878213Y-77989707D01*
X159878210Y-77989711D01*
X159790609Y-78120814D01*
X159790602Y-78120827D01*
X159730264Y-78266498D01*
X159730261Y-78266510D01*
X159699500Y-78421153D01*
X158979323Y-78421153D01*
X160580505Y-76819971D01*
X160641826Y-76786488D01*
X160711518Y-76791472D01*
X160767451Y-76833344D01*
X160782745Y-76860202D01*
X160790602Y-76879172D01*
X160790609Y-76879185D01*
X160878210Y-77010288D01*
X160878213Y-77010292D01*
X160989707Y-77121786D01*
X160989711Y-77121789D01*
X161120814Y-77209390D01*
X161120827Y-77209397D01*
X161213590Y-77247820D01*
X161266503Y-77269737D01*
X161380995Y-77292511D01*
X161421153Y-77300499D01*
X161421156Y-77300500D01*
X161421158Y-77300500D01*
X161578843Y-77300500D01*
X161595958Y-77297095D01*
X161650309Y-77286284D01*
X161719899Y-77292511D01*
X161775077Y-77335373D01*
X161798322Y-77401262D01*
X161798500Y-77407901D01*
X161798500Y-81812330D01*
X161798499Y-81812348D01*
X161798499Y-81978054D01*
X161798498Y-81978054D01*
X161839423Y-82130785D01*
X161868358Y-82180900D01*
X161868359Y-82180904D01*
X161868360Y-82180904D01*
X161918479Y-82267714D01*
X161918481Y-82267717D01*
X162037349Y-82386585D01*
X162037355Y-82386590D01*
X164165425Y-84514660D01*
X164198910Y-84575983D01*
X164199361Y-84578149D01*
X164230261Y-84733491D01*
X164230264Y-84733501D01*
X164290602Y-84879172D01*
X164290609Y-84879185D01*
X164378210Y-85010288D01*
X164378213Y-85010292D01*
X164489707Y-85121786D01*
X164489711Y-85121789D01*
X164620814Y-85209390D01*
X164620827Y-85209397D01*
X164766498Y-85269735D01*
X164766503Y-85269737D01*
X164921153Y-85300499D01*
X164921156Y-85300500D01*
X164921158Y-85300500D01*
X165078844Y-85300500D01*
X165078845Y-85300499D01*
X165233497Y-85269737D01*
X165379179Y-85209394D01*
X165510289Y-85121789D01*
X165621789Y-85010289D01*
X165709394Y-84879179D01*
X165769737Y-84733497D01*
X165800500Y-84578842D01*
X165800500Y-84421158D01*
X165800500Y-84421155D01*
X165800499Y-84421153D01*
X165769738Y-84266510D01*
X165769737Y-84266503D01*
X165769647Y-84266286D01*
X165709397Y-84120827D01*
X165709390Y-84120814D01*
X165621789Y-83989711D01*
X165621786Y-83989707D01*
X165510292Y-83878213D01*
X165510288Y-83878210D01*
X165379185Y-83790609D01*
X165379172Y-83790602D01*
X165233501Y-83730264D01*
X165233491Y-83730261D01*
X165078149Y-83699361D01*
X165016238Y-83666976D01*
X165014660Y-83665425D01*
X163035819Y-81686584D01*
X163002334Y-81625261D01*
X162999500Y-81598903D01*
X162999500Y-75668097D01*
X163019185Y-75601058D01*
X163071989Y-75555303D01*
X163141147Y-75545359D01*
X163204703Y-75574384D01*
G37*
%TD.AperFunction*%
%TA.AperFunction,Conductor*%
G36*
X153318834Y-88412914D02*
G01*
X153374767Y-88454786D01*
X153399184Y-88520250D01*
X153399500Y-88529096D01*
X153399500Y-92959902D01*
X153379815Y-93026941D01*
X153363181Y-93047583D01*
X152876030Y-93534733D01*
X152814707Y-93568218D01*
X152745015Y-93563234D01*
X152689082Y-93521362D01*
X152688031Y-93519937D01*
X152630109Y-93440214D01*
X152630105Y-93440209D01*
X152479786Y-93289890D01*
X152307817Y-93164949D01*
X152298504Y-93160204D01*
X152247707Y-93112230D01*
X152230912Y-93044409D01*
X152253449Y-92978274D01*
X152298507Y-92939232D01*
X152307555Y-92934622D01*
X152361716Y-92895270D01*
X152361717Y-92895270D01*
X151729409Y-92262962D01*
X151792993Y-92245925D01*
X151907007Y-92180099D01*
X152000099Y-92087007D01*
X152065925Y-91972993D01*
X152082962Y-91909409D01*
X152715270Y-92541717D01*
X152715270Y-92541716D01*
X152754622Y-92487554D01*
X152851095Y-92298217D01*
X152916757Y-92096130D01*
X152916757Y-92096127D01*
X152950000Y-91886246D01*
X152950000Y-91673753D01*
X152916757Y-91463872D01*
X152916757Y-91463869D01*
X152851095Y-91261782D01*
X152754624Y-91072449D01*
X152715270Y-91018282D01*
X152715269Y-91018282D01*
X152082962Y-91650590D01*
X152065925Y-91587007D01*
X152000099Y-91472993D01*
X151907007Y-91379901D01*
X151792993Y-91314075D01*
X151729407Y-91297036D01*
X152361716Y-90664728D01*
X152307547Y-90625373D01*
X152307547Y-90625372D01*
X152298500Y-90620763D01*
X152247706Y-90572788D01*
X152230912Y-90504966D01*
X152253451Y-90438832D01*
X152298508Y-90399793D01*
X152307816Y-90395051D01*
X152387007Y-90337515D01*
X152479786Y-90270109D01*
X152479788Y-90270106D01*
X152479792Y-90270104D01*
X152630104Y-90119792D01*
X152630106Y-90119788D01*
X152630109Y-90119786D01*
X152755048Y-89947820D01*
X152755047Y-89947820D01*
X152755051Y-89947816D01*
X152851557Y-89758412D01*
X152917246Y-89556243D01*
X152950500Y-89346287D01*
X152950500Y-89133713D01*
X152917246Y-88923757D01*
X152888792Y-88836188D01*
X152886798Y-88766348D01*
X152919041Y-88710192D01*
X153187820Y-88441414D01*
X153249142Y-88407930D01*
X153318834Y-88412914D01*
G37*
%TD.AperFunction*%
%TA.AperFunction,Conductor*%
G36*
X165426942Y-72720185D02*
G01*
X165447584Y-72736819D01*
X168480569Y-75769804D01*
X168514054Y-75831127D01*
X168509070Y-75900819D01*
X168503373Y-75913779D01*
X168448441Y-76021590D01*
X168448441Y-76021591D01*
X168382753Y-76223759D01*
X168349500Y-76433713D01*
X168349500Y-76646287D01*
X168382754Y-76856243D01*
X168432806Y-77010288D01*
X168448444Y-77058414D01*
X168544951Y-77247820D01*
X168669890Y-77419786D01*
X168820213Y-77570109D01*
X168992179Y-77695048D01*
X168992181Y-77695049D01*
X168992184Y-77695051D01*
X169001493Y-77699794D01*
X169052290Y-77747766D01*
X169069087Y-77815587D01*
X169046552Y-77881722D01*
X169001505Y-77920760D01*
X168992446Y-77925376D01*
X168992440Y-77925380D01*
X168938282Y-77964727D01*
X168938282Y-77964728D01*
X169570591Y-78597037D01*
X169507007Y-78614075D01*
X169392993Y-78679901D01*
X169299901Y-78772993D01*
X169234075Y-78887007D01*
X169217037Y-78950591D01*
X168584728Y-78318282D01*
X168584727Y-78318282D01*
X168545380Y-78372439D01*
X168448904Y-78561782D01*
X168383242Y-78763869D01*
X168383241Y-78763876D01*
X168381641Y-78773976D01*
X168351709Y-78837109D01*
X168292395Y-78874038D01*
X168222533Y-78873036D01*
X168171488Y-78842253D01*
X163636819Y-74307584D01*
X163603334Y-74246261D01*
X163600500Y-74219903D01*
X163600500Y-73579765D01*
X163620185Y-73512726D01*
X163621398Y-73510874D01*
X163709390Y-73379185D01*
X163709390Y-73379184D01*
X163709394Y-73379179D01*
X163769737Y-73233497D01*
X163800500Y-73078842D01*
X163800500Y-72921158D01*
X163800500Y-72921155D01*
X163800499Y-72921153D01*
X163786086Y-72848691D01*
X163792313Y-72779100D01*
X163835176Y-72723922D01*
X163901066Y-72700678D01*
X163907703Y-72700500D01*
X165359903Y-72700500D01*
X165426942Y-72720185D01*
G37*
%TD.AperFunction*%
%TA.AperFunction,Conductor*%
G36*
X153155203Y-66244884D02*
G01*
X153161681Y-66250916D01*
X153463181Y-66552416D01*
X153496666Y-66613739D01*
X153499500Y-66640097D01*
X153499500Y-69820234D01*
X153479815Y-69887273D01*
X153478602Y-69889125D01*
X153390609Y-70020814D01*
X153390602Y-70020827D01*
X153330264Y-70166498D01*
X153330261Y-70166510D01*
X153299500Y-70321153D01*
X153299500Y-70478846D01*
X153330261Y-70633489D01*
X153330264Y-70633501D01*
X153390602Y-70779172D01*
X153390609Y-70779185D01*
X153478210Y-70910288D01*
X153478213Y-70910292D01*
X153589707Y-71021786D01*
X153589711Y-71021789D01*
X153720814Y-71109390D01*
X153720827Y-71109397D01*
X153803781Y-71143757D01*
X153866503Y-71169737D01*
X154021153Y-71200499D01*
X154021156Y-71200500D01*
X154021158Y-71200500D01*
X154178844Y-71200500D01*
X154178845Y-71200499D01*
X154333497Y-71169737D01*
X154479179Y-71109394D01*
X154610289Y-71021789D01*
X154721789Y-70910289D01*
X154809394Y-70779179D01*
X154869737Y-70633497D01*
X154900500Y-70478842D01*
X154900500Y-70321158D01*
X154900500Y-70321155D01*
X154900499Y-70321153D01*
X154878079Y-70208443D01*
X154869737Y-70166503D01*
X154833706Y-70079516D01*
X154809397Y-70020827D01*
X154809390Y-70020814D01*
X154721398Y-69889125D01*
X154700520Y-69822447D01*
X154700500Y-69820234D01*
X154700500Y-69349097D01*
X154720185Y-69282058D01*
X154772989Y-69236303D01*
X154842147Y-69226359D01*
X154905703Y-69255384D01*
X154912181Y-69261416D01*
X156515139Y-70864374D01*
X156515149Y-70864385D01*
X156519479Y-70868715D01*
X156519480Y-70868716D01*
X156631284Y-70980520D01*
X156702765Y-71021789D01*
X156768215Y-71059577D01*
X156920943Y-71100500D01*
X157420234Y-71100500D01*
X157487273Y-71120185D01*
X157489125Y-71121398D01*
X157620814Y-71209390D01*
X157620827Y-71209397D01*
X157766498Y-71269735D01*
X157766503Y-71269737D01*
X157921153Y-71300499D01*
X157921156Y-71300500D01*
X157921158Y-71300500D01*
X158078844Y-71300500D01*
X158078845Y-71300499D01*
X158233497Y-71269737D01*
X158379179Y-71209394D01*
X158510289Y-71121789D01*
X158621789Y-71010289D01*
X158709394Y-70879179D01*
X158769737Y-70733497D01*
X158800500Y-70578842D01*
X158800500Y-70421158D01*
X158800500Y-70421155D01*
X158800499Y-70421153D01*
X158769737Y-70266503D01*
X158735850Y-70184692D01*
X158709397Y-70120827D01*
X158709390Y-70120814D01*
X158621789Y-69989711D01*
X158621786Y-69989707D01*
X158620885Y-69988806D01*
X158620563Y-69988217D01*
X158617924Y-69985001D01*
X158618533Y-69984500D01*
X158587400Y-69927483D01*
X158592384Y-69857791D01*
X158634256Y-69801858D01*
X158684372Y-69779508D01*
X158733497Y-69769737D01*
X158879179Y-69709394D01*
X158879184Y-69709390D01*
X158879187Y-69709389D01*
X158913138Y-69686703D01*
X158993007Y-69633336D01*
X159023295Y-69623851D01*
X159053050Y-69612754D01*
X159056405Y-69613483D01*
X159059682Y-69612458D01*
X159090293Y-69620855D01*
X159121323Y-69627605D01*
X159125038Y-69630386D01*
X159127063Y-69630942D01*
X159149573Y-69648752D01*
X159230284Y-69729463D01*
X159230286Y-69729464D01*
X160082341Y-70581520D01*
X160082343Y-70581521D01*
X160082347Y-70581524D01*
X160219266Y-70660573D01*
X160219269Y-70660575D01*
X160219273Y-70660577D01*
X160372000Y-70701501D01*
X160372002Y-70701501D01*
X160537711Y-70701501D01*
X160537727Y-70701500D01*
X162092098Y-70701500D01*
X162112313Y-70707435D01*
X162133353Y-70708564D01*
X162145165Y-70717082D01*
X162159137Y-70721185D01*
X162172932Y-70737105D01*
X162190024Y-70749431D01*
X162195356Y-70762984D01*
X162204892Y-70773989D01*
X162207890Y-70794840D01*
X162215605Y-70814449D01*
X162214275Y-70839246D01*
X162214836Y-70843147D01*
X162213715Y-70849691D01*
X162213715Y-70849693D01*
X162199361Y-70921850D01*
X162166975Y-70983761D01*
X162165426Y-70985338D01*
X162105421Y-71045343D01*
X162030286Y-71120478D01*
X161918481Y-71232282D01*
X161918479Y-71232285D01*
X161896858Y-71269735D01*
X161879097Y-71300499D01*
X161868361Y-71319094D01*
X161868359Y-71319096D01*
X161839425Y-71369209D01*
X161839424Y-71369210D01*
X161839423Y-71369215D01*
X161798499Y-71521943D01*
X161798499Y-71521945D01*
X161798499Y-71690046D01*
X161798500Y-71690059D01*
X161798500Y-73092098D01*
X161778815Y-73159137D01*
X161726011Y-73204892D01*
X161656853Y-73214836D01*
X161650309Y-73213715D01*
X161578845Y-73199500D01*
X161578842Y-73199500D01*
X161421158Y-73199500D01*
X161421155Y-73199500D01*
X161266510Y-73230261D01*
X161266498Y-73230264D01*
X161120827Y-73290602D01*
X161120814Y-73290609D01*
X161068891Y-73325304D01*
X161002214Y-73346182D01*
X160934833Y-73327698D01*
X160931109Y-73325304D01*
X160879185Y-73290609D01*
X160879172Y-73290602D01*
X160733501Y-73230264D01*
X160733489Y-73230261D01*
X160578845Y-73199500D01*
X160578842Y-73199500D01*
X160421158Y-73199500D01*
X160421155Y-73199500D01*
X160266510Y-73230261D01*
X160266498Y-73230264D01*
X160120827Y-73290602D01*
X160120814Y-73290609D01*
X160068891Y-73325304D01*
X160002214Y-73346182D01*
X159934833Y-73327698D01*
X159931109Y-73325304D01*
X159879185Y-73290609D01*
X159879172Y-73290602D01*
X159733501Y-73230264D01*
X159733489Y-73230261D01*
X159578845Y-73199500D01*
X159578842Y-73199500D01*
X159421158Y-73199500D01*
X159421155Y-73199500D01*
X159266510Y-73230261D01*
X159266507Y-73230262D01*
X159266506Y-73230262D01*
X159266503Y-73230263D01*
X159210816Y-73253329D01*
X159190939Y-73255465D01*
X159172212Y-73262451D01*
X159156915Y-73259123D01*
X159141347Y-73260797D01*
X159123468Y-73251847D01*
X159103939Y-73247599D01*
X159081646Y-73230911D01*
X159078868Y-73229521D01*
X159075712Y-73226476D01*
X158969716Y-73120480D01*
X158969713Y-73120478D01*
X158834574Y-72985339D01*
X158801089Y-72924016D01*
X158800638Y-72921849D01*
X158776688Y-72801447D01*
X158769737Y-72766503D01*
X158757442Y-72736819D01*
X158709397Y-72620827D01*
X158709390Y-72620814D01*
X158621789Y-72489711D01*
X158621786Y-72489707D01*
X158510292Y-72378213D01*
X158510288Y-72378210D01*
X158379185Y-72290609D01*
X158379172Y-72290602D01*
X158233501Y-72230264D01*
X158233489Y-72230261D01*
X158078845Y-72199500D01*
X158078842Y-72199500D01*
X157921158Y-72199500D01*
X157921155Y-72199500D01*
X157766510Y-72230261D01*
X157766498Y-72230264D01*
X157620827Y-72290602D01*
X157620814Y-72290609D01*
X157489711Y-72378210D01*
X157489707Y-72378213D01*
X157378213Y-72489707D01*
X157378210Y-72489711D01*
X157290609Y-72620814D01*
X157290602Y-72620827D01*
X157230264Y-72766498D01*
X157230261Y-72766510D01*
X157199500Y-72921153D01*
X157199500Y-73078846D01*
X157230261Y-73233489D01*
X157230264Y-73233501D01*
X157290602Y-73379172D01*
X157290609Y-73379185D01*
X157325304Y-73431109D01*
X157346182Y-73497786D01*
X157327698Y-73565167D01*
X157325304Y-73568891D01*
X157290609Y-73620814D01*
X157290602Y-73620827D01*
X157230264Y-73766498D01*
X157230261Y-73766508D01*
X157199361Y-73921850D01*
X157166976Y-73983761D01*
X157165425Y-73985339D01*
X152864350Y-78286412D01*
X152803027Y-78319897D01*
X152766940Y-78322349D01*
X152715269Y-78318282D01*
X152082962Y-78950589D01*
X152065925Y-78887007D01*
X152000099Y-78772993D01*
X151907007Y-78679901D01*
X151792993Y-78614075D01*
X151729407Y-78597036D01*
X152361716Y-77964728D01*
X152307547Y-77925373D01*
X152307547Y-77925372D01*
X152298500Y-77920763D01*
X152247706Y-77872788D01*
X152230912Y-77804966D01*
X152253451Y-77738832D01*
X152298508Y-77699793D01*
X152307816Y-77695051D01*
X152387007Y-77637515D01*
X152479786Y-77570109D01*
X152479788Y-77570106D01*
X152479792Y-77570104D01*
X152630104Y-77419792D01*
X152630106Y-77419788D01*
X152630109Y-77419786D01*
X152755048Y-77247820D01*
X152755047Y-77247820D01*
X152755051Y-77247816D01*
X152851557Y-77058412D01*
X152917246Y-76856243D01*
X152950500Y-76646287D01*
X152950500Y-76433713D01*
X152917246Y-76223757D01*
X152851557Y-76021588D01*
X152755051Y-75832184D01*
X152755049Y-75832181D01*
X152755048Y-75832179D01*
X152630109Y-75660213D01*
X152479786Y-75509890D01*
X152307820Y-75384951D01*
X152307115Y-75384591D01*
X152299054Y-75380485D01*
X152248259Y-75332512D01*
X152231463Y-75264692D01*
X152253999Y-75198556D01*
X152299054Y-75159515D01*
X152307816Y-75155051D01*
X152329789Y-75139086D01*
X152479786Y-75030109D01*
X152479788Y-75030106D01*
X152479792Y-75030104D01*
X152630104Y-74879792D01*
X152630106Y-74879788D01*
X152630109Y-74879786D01*
X152755048Y-74707820D01*
X152755047Y-74707820D01*
X152755051Y-74707816D01*
X152851557Y-74518412D01*
X152917246Y-74316243D01*
X152950500Y-74106287D01*
X152950500Y-73893713D01*
X152917246Y-73683757D01*
X152851557Y-73481588D01*
X152755051Y-73292184D01*
X152755049Y-73292181D01*
X152755048Y-73292179D01*
X152630109Y-73120213D01*
X152479786Y-72969890D01*
X152307820Y-72844951D01*
X152307115Y-72844591D01*
X152299054Y-72840485D01*
X152292331Y-72834134D01*
X152283586Y-72831124D01*
X152267334Y-72810527D01*
X152248259Y-72792512D01*
X152246035Y-72783533D01*
X152240306Y-72776272D01*
X152237769Y-72750157D01*
X152231463Y-72724692D01*
X152232669Y-72721153D01*
X153499500Y-72721153D01*
X153499500Y-72878846D01*
X153530261Y-73033489D01*
X153530264Y-73033501D01*
X153590602Y-73179172D01*
X153590609Y-73179185D01*
X153678210Y-73310288D01*
X153678213Y-73310292D01*
X153789707Y-73421786D01*
X153789711Y-73421789D01*
X153920814Y-73509390D01*
X153920827Y-73509397D01*
X154066498Y-73569735D01*
X154066503Y-73569737D01*
X154221153Y-73600499D01*
X154221156Y-73600500D01*
X154221158Y-73600500D01*
X154378844Y-73600500D01*
X154378845Y-73600499D01*
X154533497Y-73569737D01*
X154679179Y-73509394D01*
X154810289Y-73421789D01*
X154921789Y-73310289D01*
X155009394Y-73179179D01*
X155069737Y-73033497D01*
X155100500Y-72878842D01*
X155100500Y-72721158D01*
X155100500Y-72721155D01*
X155100499Y-72721153D01*
X155089825Y-72667491D01*
X155069737Y-72566503D01*
X155037929Y-72489711D01*
X155009397Y-72420827D01*
X155009390Y-72420814D01*
X154921789Y-72289711D01*
X154921786Y-72289707D01*
X154810292Y-72178213D01*
X154810288Y-72178210D01*
X154679185Y-72090609D01*
X154679172Y-72090602D01*
X154533501Y-72030264D01*
X154533489Y-72030261D01*
X154378845Y-71999500D01*
X154378842Y-71999500D01*
X154221158Y-71999500D01*
X154221155Y-71999500D01*
X154066510Y-72030261D01*
X154066498Y-72030264D01*
X153920827Y-72090602D01*
X153920814Y-72090609D01*
X153789711Y-72178210D01*
X153789707Y-72178213D01*
X153678213Y-72289707D01*
X153678210Y-72289711D01*
X153590609Y-72420814D01*
X153590602Y-72420827D01*
X153530264Y-72566498D01*
X153530261Y-72566510D01*
X153499500Y-72721153D01*
X152232669Y-72721153D01*
X152234446Y-72715937D01*
X152233552Y-72706730D01*
X152245536Y-72683391D01*
X152253999Y-72658556D01*
X152262091Y-72651152D01*
X152265468Y-72644576D01*
X152286128Y-72629159D01*
X152293175Y-72622713D01*
X152296060Y-72621040D01*
X152307816Y-72615051D01*
X152339095Y-72592324D01*
X152479786Y-72490109D01*
X152479788Y-72490106D01*
X152479792Y-72490104D01*
X152630104Y-72339792D01*
X152630106Y-72339788D01*
X152630109Y-72339786D01*
X152755048Y-72167820D01*
X152755047Y-72167820D01*
X152755051Y-72167816D01*
X152851557Y-71978412D01*
X152917246Y-71776243D01*
X152950500Y-71566287D01*
X152950500Y-71353713D01*
X152917246Y-71143757D01*
X152851557Y-70941588D01*
X152755051Y-70752184D01*
X152755049Y-70752181D01*
X152755048Y-70752179D01*
X152630109Y-70580213D01*
X152479786Y-70429890D01*
X152307820Y-70304951D01*
X152307115Y-70304591D01*
X152299054Y-70300485D01*
X152248259Y-70252512D01*
X152231463Y-70184692D01*
X152253999Y-70118556D01*
X152299054Y-70079515D01*
X152307816Y-70075051D01*
X152329789Y-70059086D01*
X152479786Y-69950109D01*
X152479788Y-69950106D01*
X152479792Y-69950104D01*
X152630104Y-69799792D01*
X152630106Y-69799788D01*
X152630109Y-69799786D01*
X152755048Y-69627820D01*
X152755047Y-69627820D01*
X152755051Y-69627816D01*
X152851557Y-69438412D01*
X152917246Y-69236243D01*
X152950500Y-69026287D01*
X152950500Y-68813713D01*
X152917246Y-68603757D01*
X152851557Y-68401588D01*
X152755051Y-68212184D01*
X152755049Y-68212181D01*
X152755048Y-68212179D01*
X152630109Y-68040213D01*
X152479786Y-67889890D01*
X152307817Y-67764949D01*
X152298504Y-67760204D01*
X152247707Y-67712230D01*
X152230912Y-67644409D01*
X152253449Y-67578274D01*
X152298507Y-67539232D01*
X152307555Y-67534622D01*
X152361716Y-67495270D01*
X152361717Y-67495270D01*
X151729409Y-66862962D01*
X151792993Y-66845925D01*
X151907007Y-66780099D01*
X152000099Y-66687007D01*
X152065925Y-66572993D01*
X152082962Y-66509409D01*
X152715270Y-67141717D01*
X152715270Y-67141716D01*
X152754622Y-67087554D01*
X152851095Y-66898217D01*
X152916757Y-66696130D01*
X152916757Y-66696127D01*
X152950000Y-66486246D01*
X152950000Y-66338597D01*
X152969685Y-66271558D01*
X153022489Y-66225803D01*
X153091647Y-66215859D01*
X153155203Y-66244884D01*
G37*
%TD.AperFunction*%
%TA.AperFunction,Conductor*%
G36*
X169234075Y-66572993D02*
G01*
X169299901Y-66687007D01*
X169392993Y-66780099D01*
X169507007Y-66845925D01*
X169570589Y-66862962D01*
X168938282Y-67495269D01*
X168938282Y-67495270D01*
X168992452Y-67534626D01*
X168992451Y-67534626D01*
X169001495Y-67539234D01*
X169052292Y-67587208D01*
X169069087Y-67655029D01*
X169046550Y-67721164D01*
X169001499Y-67760202D01*
X168992182Y-67764949D01*
X168820213Y-67889890D01*
X168669890Y-68040213D01*
X168544951Y-68212179D01*
X168448444Y-68401585D01*
X168382753Y-68603760D01*
X168349500Y-68813713D01*
X168349500Y-69026286D01*
X168382319Y-69233501D01*
X168382754Y-69236243D01*
X168445063Y-69428011D01*
X168448444Y-69438414D01*
X168544951Y-69627820D01*
X168669890Y-69799786D01*
X168820213Y-69950109D01*
X168992182Y-70075050D01*
X169000946Y-70079516D01*
X169051742Y-70127491D01*
X169068536Y-70195312D01*
X169045998Y-70261447D01*
X169000946Y-70300484D01*
X168992182Y-70304949D01*
X168820213Y-70429890D01*
X168669890Y-70580213D01*
X168544951Y-70752179D01*
X168448444Y-70941585D01*
X168382753Y-71143760D01*
X168362800Y-71269738D01*
X168349500Y-71353713D01*
X168349500Y-71566287D01*
X168357924Y-71619475D01*
X168376752Y-71738352D01*
X168382754Y-71776243D01*
X168383393Y-71778211D01*
X168448444Y-71978414D01*
X168544951Y-72167820D01*
X168669890Y-72339786D01*
X168820213Y-72490109D01*
X168992182Y-72615050D01*
X169000946Y-72619516D01*
X169051742Y-72667491D01*
X169068536Y-72735312D01*
X169045998Y-72801447D01*
X169000946Y-72840484D01*
X168992182Y-72844949D01*
X168820213Y-72969890D01*
X168669890Y-73120213D01*
X168544951Y-73292179D01*
X168448444Y-73481585D01*
X168382754Y-73683757D01*
X168381205Y-73693537D01*
X168351273Y-73756671D01*
X168291960Y-73793600D01*
X168222098Y-73792600D01*
X168171051Y-73761816D01*
X167726166Y-73316931D01*
X167692681Y-73255608D01*
X167697665Y-73185916D01*
X167739537Y-73129983D01*
X167766395Y-73114689D01*
X167779179Y-73109394D01*
X167910289Y-73021789D01*
X168021789Y-72910289D01*
X168109394Y-72779179D01*
X168169737Y-72633497D01*
X168200500Y-72478842D01*
X168200500Y-72321158D01*
X168200500Y-72321155D01*
X168200499Y-72321153D01*
X168178783Y-72211981D01*
X168169737Y-72166503D01*
X168138298Y-72090602D01*
X168109397Y-72020827D01*
X168109390Y-72020814D01*
X168021789Y-71889711D01*
X168021786Y-71889707D01*
X167910292Y-71778213D01*
X167910288Y-71778210D01*
X167779185Y-71690609D01*
X167779172Y-71690602D01*
X167633501Y-71630264D01*
X167633489Y-71630261D01*
X167478845Y-71599500D01*
X167478842Y-71599500D01*
X167321158Y-71599500D01*
X167321155Y-71599500D01*
X167166510Y-71630261D01*
X167166498Y-71630264D01*
X167020827Y-71690602D01*
X167020814Y-71690609D01*
X166889711Y-71778210D01*
X166889707Y-71778213D01*
X166778213Y-71889707D01*
X166778210Y-71889711D01*
X166690609Y-72020814D01*
X166690603Y-72020826D01*
X166685309Y-72033607D01*
X166641467Y-72088010D01*
X166575172Y-72110073D01*
X166507473Y-72092792D01*
X166483068Y-72073833D01*
X166147590Y-71738355D01*
X166147588Y-71738352D01*
X166028717Y-71619481D01*
X166028709Y-71619475D01*
X165923167Y-71558541D01*
X165923164Y-71558540D01*
X165891787Y-71540424D01*
X165891786Y-71540423D01*
X165891785Y-71540423D01*
X165739057Y-71499499D01*
X165580943Y-71499499D01*
X165573347Y-71499499D01*
X165573331Y-71499500D01*
X163845134Y-71499500D01*
X163778095Y-71479815D01*
X163732340Y-71427011D01*
X163722396Y-71357853D01*
X163730573Y-71328047D01*
X163734281Y-71319095D01*
X163769737Y-71233497D01*
X163800500Y-71078842D01*
X163800500Y-70921158D01*
X163800500Y-70921155D01*
X163800499Y-70921153D01*
X163786285Y-70849691D01*
X163792512Y-70780100D01*
X163835375Y-70724922D01*
X163901265Y-70701678D01*
X163907902Y-70701500D01*
X164662274Y-70701500D01*
X164662290Y-70701501D01*
X164669886Y-70701501D01*
X164827997Y-70701501D01*
X164828000Y-70701501D01*
X164980728Y-70660577D01*
X165049587Y-70620821D01*
X165117659Y-70581520D01*
X165229463Y-70469716D01*
X165229463Y-70469714D01*
X165239667Y-70459511D01*
X165239671Y-70459506D01*
X167802507Y-67896669D01*
X167821287Y-67881256D01*
X167910289Y-67821789D01*
X168021789Y-67710289D01*
X168109394Y-67579179D01*
X168110184Y-67577273D01*
X168144150Y-67495269D01*
X168169737Y-67433497D01*
X168200500Y-67278842D01*
X168200500Y-67121158D01*
X168200500Y-67121155D01*
X168200499Y-67121153D01*
X168191135Y-67074077D01*
X168169737Y-66966503D01*
X168133907Y-66880000D01*
X168117382Y-66840105D01*
X168115245Y-66820229D01*
X168108259Y-66801499D01*
X168111586Y-66786202D01*
X168109913Y-66770636D01*
X168118861Y-66752758D01*
X168123111Y-66733226D01*
X168139796Y-66710937D01*
X168141188Y-66708157D01*
X168144232Y-66705002D01*
X168183723Y-66665511D01*
X168245044Y-66632028D01*
X168314736Y-66637012D01*
X168370669Y-66678884D01*
X168389333Y-66714876D01*
X168448904Y-66898217D01*
X168545375Y-67087550D01*
X168584728Y-67141716D01*
X169217036Y-66509407D01*
X169234075Y-66572993D01*
G37*
%TD.AperFunction*%
%TA.AperFunction,Conductor*%
G36*
X164027962Y-47770185D02*
G01*
X164073717Y-47822989D01*
X164083661Y-47892147D01*
X164054636Y-47955703D01*
X164048604Y-47962181D01*
X164043251Y-47967533D01*
X164043248Y-47967537D01*
X163933814Y-48131315D01*
X163933807Y-48131328D01*
X163858430Y-48313306D01*
X163858427Y-48313318D01*
X163820000Y-48506504D01*
X163820000Y-48655000D01*
X164520000Y-48655000D01*
X164520000Y-49155000D01*
X163820000Y-49155000D01*
X163820000Y-49303495D01*
X163858427Y-49496681D01*
X163858430Y-49496693D01*
X163933807Y-49678671D01*
X163933814Y-49678684D01*
X164043248Y-49842462D01*
X164043251Y-49842466D01*
X164182533Y-49981748D01*
X164182537Y-49981751D01*
X164346315Y-50091185D01*
X164346328Y-50091192D01*
X164528308Y-50166569D01*
X164570000Y-50174862D01*
X164570000Y-49371988D01*
X164579940Y-49389205D01*
X164635795Y-49445060D01*
X164704204Y-49484556D01*
X164780504Y-49505000D01*
X164859496Y-49505000D01*
X164935796Y-49484556D01*
X165004205Y-49445060D01*
X165060060Y-49389205D01*
X165070000Y-49371988D01*
X165070000Y-50174862D01*
X165111690Y-50166569D01*
X165111692Y-50166569D01*
X165293671Y-50091192D01*
X165293684Y-50091185D01*
X165457462Y-49981751D01*
X165457466Y-49981748D01*
X165596748Y-49842466D01*
X165596751Y-49842462D01*
X165706185Y-49678684D01*
X165706192Y-49678671D01*
X165781569Y-49496693D01*
X165781572Y-49496681D01*
X165819999Y-49303495D01*
X165820000Y-49303492D01*
X165820000Y-49155000D01*
X165120000Y-49155000D01*
X165120000Y-48655000D01*
X165820000Y-48655000D01*
X165820000Y-48506508D01*
X165819999Y-48506504D01*
X165781572Y-48313318D01*
X165781569Y-48313306D01*
X165706192Y-48131328D01*
X165706185Y-48131315D01*
X165596751Y-47967537D01*
X165596748Y-47967533D01*
X165591396Y-47962181D01*
X165557911Y-47900858D01*
X165562895Y-47831166D01*
X165604767Y-47775233D01*
X165670231Y-47750816D01*
X165679077Y-47750500D01*
X168225500Y-47750500D01*
X168292539Y-47770185D01*
X168338294Y-47822989D01*
X168349500Y-47874500D01*
X168349500Y-49249901D01*
X168329815Y-49316940D01*
X168313181Y-49337582D01*
X165762670Y-51888093D01*
X165701347Y-51921578D01*
X165631655Y-51916594D01*
X165587308Y-51888093D01*
X165457466Y-51758251D01*
X165457462Y-51758248D01*
X165293684Y-51648814D01*
X165293671Y-51648807D01*
X165111691Y-51573429D01*
X165111683Y-51573427D01*
X165070000Y-51565135D01*
X165070000Y-52368011D01*
X165060060Y-52350795D01*
X165004205Y-52294940D01*
X164935796Y-52255444D01*
X164859496Y-52235000D01*
X164780504Y-52235000D01*
X164704204Y-52255444D01*
X164635795Y-52294940D01*
X164579940Y-52350795D01*
X164570000Y-52368011D01*
X164570000Y-51565136D01*
X164569999Y-51565135D01*
X164528316Y-51573427D01*
X164528308Y-51573429D01*
X164346328Y-51648807D01*
X164346315Y-51648814D01*
X164182537Y-51758248D01*
X164182533Y-51758251D01*
X164043248Y-51897536D01*
X163930427Y-52066387D01*
X163929003Y-52065435D01*
X163885742Y-52109451D01*
X163817600Y-52124892D01*
X163751927Y-52101041D01*
X163749907Y-52099306D01*
X163749811Y-52099432D01*
X163743367Y-52094487D01*
X163743365Y-52094485D01*
X163677750Y-52056602D01*
X163612136Y-52018719D01*
X163538950Y-51999109D01*
X163465766Y-51979500D01*
X163314234Y-51979500D01*
X163167863Y-52018719D01*
X163036635Y-52094485D01*
X163036632Y-52094487D01*
X162929487Y-52201632D01*
X162929485Y-52201635D01*
X162853719Y-52332863D01*
X162834400Y-52404966D01*
X162814500Y-52479234D01*
X162814500Y-52630766D01*
X162834109Y-52703950D01*
X162853719Y-52777136D01*
X162891602Y-52842750D01*
X162929485Y-52908365D01*
X163036635Y-53015515D01*
X163167865Y-53091281D01*
X163314234Y-53130500D01*
X163314236Y-53130500D01*
X163465764Y-53130500D01*
X163465766Y-53130500D01*
X163612135Y-53091281D01*
X163743365Y-53015515D01*
X163850515Y-52908365D01*
X163857077Y-52897000D01*
X163907644Y-52848784D01*
X163964464Y-52835000D01*
X164520000Y-52835000D01*
X164520000Y-53335000D01*
X163820000Y-53335000D01*
X163820000Y-53733495D01*
X163858427Y-53926681D01*
X163858430Y-53926693D01*
X163933807Y-54108671D01*
X163933814Y-54108684D01*
X164043248Y-54272462D01*
X164043251Y-54272466D01*
X164182533Y-54411748D01*
X164182537Y-54411751D01*
X164346315Y-54521185D01*
X164346328Y-54521192D01*
X164528308Y-54596569D01*
X164570000Y-54604862D01*
X164570000Y-53801988D01*
X164579940Y-53819205D01*
X164635795Y-53875060D01*
X164704204Y-53914556D01*
X164780504Y-53935000D01*
X164859496Y-53935000D01*
X164935796Y-53914556D01*
X165004205Y-53875060D01*
X165020500Y-53858765D01*
X165020500Y-54796059D01*
X165000815Y-54863098D01*
X164984181Y-54883740D01*
X164878213Y-54989707D01*
X164878210Y-54989711D01*
X164790609Y-55120814D01*
X164790602Y-55120827D01*
X164730264Y-55266498D01*
X164730261Y-55266510D01*
X164699500Y-55421153D01*
X164699500Y-55578846D01*
X164730261Y-55733489D01*
X164732031Y-55739324D01*
X164729279Y-55740158D01*
X164735503Y-55797359D01*
X164704309Y-55859878D01*
X164644266Y-55895608D01*
X164613445Y-55899500D01*
X163579766Y-55899500D01*
X163512727Y-55879815D01*
X163510875Y-55878602D01*
X163379185Y-55790609D01*
X163379172Y-55790602D01*
X163233501Y-55730264D01*
X163233489Y-55730261D01*
X163078845Y-55699500D01*
X163078842Y-55699500D01*
X162921158Y-55699500D01*
X162921155Y-55699500D01*
X162766510Y-55730261D01*
X162766498Y-55730264D01*
X162620827Y-55790602D01*
X162620814Y-55790609D01*
X162489711Y-55878210D01*
X162489707Y-55878213D01*
X162378213Y-55989707D01*
X162378210Y-55989711D01*
X162290609Y-56120814D01*
X162290601Y-56120829D01*
X162267735Y-56176032D01*
X162223893Y-56230435D01*
X162157599Y-56252499D01*
X162089900Y-56235219D01*
X162065494Y-56216259D01*
X161834574Y-55985339D01*
X161801089Y-55924016D01*
X161800638Y-55921849D01*
X161776499Y-55800499D01*
X161769737Y-55766503D01*
X161756062Y-55733489D01*
X161709397Y-55620827D01*
X161709390Y-55620814D01*
X161621789Y-55489711D01*
X161621786Y-55489707D01*
X161510292Y-55378213D01*
X161510288Y-55378210D01*
X161379185Y-55290609D01*
X161379172Y-55290602D01*
X161233501Y-55230264D01*
X161233489Y-55230261D01*
X161078845Y-55199500D01*
X161078842Y-55199500D01*
X160921158Y-55199500D01*
X160921155Y-55199500D01*
X160766510Y-55230261D01*
X160766498Y-55230264D01*
X160620827Y-55290602D01*
X160620814Y-55290609D01*
X160489711Y-55378210D01*
X160489707Y-55378213D01*
X160378213Y-55489707D01*
X160378210Y-55489711D01*
X160290609Y-55620814D01*
X160290602Y-55620827D01*
X160230264Y-55766498D01*
X160230261Y-55766510D01*
X160199500Y-55921153D01*
X160199500Y-56078846D01*
X160230261Y-56233489D01*
X160230264Y-56233501D01*
X160290602Y-56379172D01*
X160290609Y-56379185D01*
X160378210Y-56510288D01*
X160378213Y-56510292D01*
X160489707Y-56621786D01*
X160489711Y-56621789D01*
X160620814Y-56709390D01*
X160620827Y-56709397D01*
X160766498Y-56769735D01*
X160766503Y-56769737D01*
X160831147Y-56782595D01*
X160921849Y-56800638D01*
X160983760Y-56833023D01*
X160985339Y-56834574D01*
X162865181Y-58714416D01*
X162898666Y-58775739D01*
X162901500Y-58802097D01*
X162901500Y-60614273D01*
X162881815Y-60681312D01*
X162829011Y-60727067D01*
X162759853Y-60737011D01*
X162739506Y-60731429D01*
X162739324Y-60732031D01*
X162733500Y-60730264D01*
X162733497Y-60730263D01*
X162733492Y-60730262D01*
X162733489Y-60730261D01*
X162578845Y-60699500D01*
X162578842Y-60699500D01*
X162421158Y-60699500D01*
X162421155Y-60699500D01*
X162266510Y-60730261D01*
X162266498Y-60730264D01*
X162120827Y-60790602D01*
X162120814Y-60790609D01*
X161989125Y-60878602D01*
X161922447Y-60899480D01*
X161920234Y-60899500D01*
X158736726Y-60899500D01*
X158736710Y-60899499D01*
X158729114Y-60899499D01*
X158571000Y-60899499D01*
X158463644Y-60928265D01*
X158418267Y-60940424D01*
X158418266Y-60940425D01*
X158368153Y-60969359D01*
X158368152Y-60969360D01*
X158324746Y-60994420D01*
X158281342Y-61019479D01*
X158281339Y-61019481D01*
X156435935Y-62864885D01*
X156435934Y-62864887D01*
X156394917Y-62935931D01*
X156356877Y-63001818D01*
X156315953Y-63154546D01*
X156315953Y-63154548D01*
X156315953Y-63322649D01*
X156315954Y-63322662D01*
X156315954Y-65118317D01*
X156296269Y-65185356D01*
X156279635Y-65205998D01*
X156265925Y-65219707D01*
X156265922Y-65219711D01*
X156178321Y-65350814D01*
X156178314Y-65350827D01*
X156117976Y-65496498D01*
X156117973Y-65496510D01*
X156087212Y-65651153D01*
X156087212Y-65808846D01*
X156117973Y-65963489D01*
X156117976Y-65963501D01*
X156178314Y-66109172D01*
X156178321Y-66109185D01*
X156265922Y-66240288D01*
X156265925Y-66240292D01*
X156359096Y-66333463D01*
X156392581Y-66394786D01*
X156387597Y-66464478D01*
X156359096Y-66508825D01*
X156278213Y-66589707D01*
X156278210Y-66589711D01*
X156190609Y-66720814D01*
X156190602Y-66720827D01*
X156130264Y-66866498D01*
X156130261Y-66866510D01*
X156099500Y-67021153D01*
X156099500Y-67178846D01*
X156130261Y-67333489D01*
X156130264Y-67333501D01*
X156190602Y-67479172D01*
X156190609Y-67479185D01*
X156211198Y-67509998D01*
X156232076Y-67576676D01*
X156213592Y-67644056D01*
X156161613Y-67690746D01*
X156092643Y-67701922D01*
X156083909Y-67700507D01*
X156078846Y-67699500D01*
X156078842Y-67699500D01*
X155921158Y-67699500D01*
X155921155Y-67699500D01*
X155766510Y-67730261D01*
X155760676Y-67732031D01*
X155759873Y-67729385D01*
X155740693Y-67731379D01*
X155710126Y-67736608D01*
X155706247Y-67734960D01*
X155702056Y-67735396D01*
X155674367Y-67721414D01*
X155645821Y-67709285D01*
X155643449Y-67705801D01*
X155639687Y-67703902D01*
X155623951Y-67677168D01*
X155606495Y-67651533D01*
X155605631Y-67646043D01*
X155604245Y-67643689D01*
X155600544Y-67616745D01*
X155600500Y-67615092D01*
X155600500Y-67420943D01*
X155598553Y-67413678D01*
X155582773Y-67354784D01*
X155559577Y-67268216D01*
X155550372Y-67252273D01*
X155480524Y-67131290D01*
X155480521Y-67131286D01*
X155480520Y-67131284D01*
X155386818Y-67037582D01*
X155353334Y-66976258D01*
X155350500Y-66949901D01*
X155350500Y-59924500D01*
X155370185Y-59857461D01*
X155422989Y-59811706D01*
X155474500Y-59800500D01*
X155578844Y-59800500D01*
X155578845Y-59800499D01*
X155733497Y-59769737D01*
X155879179Y-59709394D01*
X156010289Y-59621789D01*
X156110925Y-59521153D01*
X157399500Y-59521153D01*
X157399500Y-59678846D01*
X157430261Y-59833489D01*
X157430264Y-59833501D01*
X157490602Y-59979172D01*
X157490609Y-59979185D01*
X157578210Y-60110288D01*
X157578213Y-60110292D01*
X157689707Y-60221786D01*
X157689711Y-60221789D01*
X157820814Y-60309390D01*
X157820827Y-60309397D01*
X157966498Y-60369735D01*
X157966503Y-60369737D01*
X158121153Y-60400499D01*
X158121156Y-60400500D01*
X158121158Y-60400500D01*
X158278844Y-60400500D01*
X158278845Y-60400499D01*
X158433497Y-60369737D01*
X158579179Y-60309394D01*
X158710289Y-60221789D01*
X158821789Y-60110289D01*
X158909394Y-59979179D01*
X158969737Y-59833497D01*
X159000500Y-59678842D01*
X159000500Y-59521158D01*
X159000500Y-59521155D01*
X159000499Y-59521153D01*
X158989890Y-59467820D01*
X158969737Y-59366503D01*
X158933249Y-59278412D01*
X158909397Y-59220827D01*
X158909390Y-59220814D01*
X158821789Y-59089711D01*
X158821786Y-59089707D01*
X158710292Y-58978213D01*
X158710288Y-58978210D01*
X158579185Y-58890609D01*
X158579172Y-58890602D01*
X158433501Y-58830264D01*
X158433489Y-58830261D01*
X158278845Y-58799500D01*
X158278842Y-58799500D01*
X158121158Y-58799500D01*
X158121155Y-58799500D01*
X157966510Y-58830261D01*
X157966498Y-58830264D01*
X157820827Y-58890602D01*
X157820814Y-58890609D01*
X157689711Y-58978210D01*
X157689707Y-58978213D01*
X157578213Y-59089707D01*
X157578210Y-59089711D01*
X157490609Y-59220814D01*
X157490602Y-59220827D01*
X157430264Y-59366498D01*
X157430261Y-59366510D01*
X157399500Y-59521153D01*
X156110925Y-59521153D01*
X156121789Y-59510289D01*
X156209394Y-59379179D01*
X156269737Y-59233497D01*
X156300500Y-59078842D01*
X156300500Y-58921158D01*
X156300500Y-58921155D01*
X156300499Y-58921153D01*
X156276817Y-58802097D01*
X156269737Y-58766503D01*
X156248162Y-58714416D01*
X156209397Y-58620827D01*
X156209390Y-58620814D01*
X156121789Y-58489711D01*
X156121786Y-58489707D01*
X156010292Y-58378213D01*
X156010288Y-58378210D01*
X155879185Y-58290609D01*
X155879172Y-58290602D01*
X155733501Y-58230264D01*
X155733489Y-58230261D01*
X155578845Y-58199500D01*
X155578842Y-58199500D01*
X155474500Y-58199500D01*
X155407461Y-58179815D01*
X155361706Y-58127011D01*
X155350500Y-58075500D01*
X155350500Y-55924500D01*
X155370185Y-55857461D01*
X155422989Y-55811706D01*
X155474500Y-55800500D01*
X155578844Y-55800500D01*
X155578845Y-55800499D01*
X155733497Y-55769737D01*
X155879179Y-55709394D01*
X156010289Y-55621789D01*
X156121789Y-55510289D01*
X156209394Y-55379179D01*
X156269737Y-55233497D01*
X156300500Y-55078842D01*
X156300500Y-54921158D01*
X156300500Y-54921155D01*
X156269099Y-54763298D01*
X156275326Y-54693706D01*
X156318189Y-54638529D01*
X156366526Y-54617488D01*
X156471689Y-54596570D01*
X156471693Y-54596569D01*
X156653671Y-54521192D01*
X156653684Y-54521185D01*
X156817462Y-54411751D01*
X156817466Y-54411748D01*
X156956748Y-54272466D01*
X156956751Y-54272462D01*
X157066185Y-54108684D01*
X157066192Y-54108671D01*
X157141569Y-53926693D01*
X157141572Y-53926681D01*
X157179999Y-53733495D01*
X157180000Y-53733492D01*
X157180000Y-53335000D01*
X156480000Y-53335000D01*
X156480000Y-52835000D01*
X157035536Y-52835000D01*
X157102575Y-52854685D01*
X157142923Y-52897000D01*
X157149482Y-52908361D01*
X157149484Y-52908364D01*
X157149485Y-52908365D01*
X157256635Y-53015515D01*
X157387865Y-53091281D01*
X157534234Y-53130500D01*
X157534236Y-53130500D01*
X157685764Y-53130500D01*
X157685766Y-53130500D01*
X157832135Y-53091281D01*
X157963365Y-53015515D01*
X158070515Y-52908365D01*
X158146281Y-52777135D01*
X158185500Y-52630766D01*
X158185500Y-52479234D01*
X158146281Y-52332865D01*
X158070515Y-52201635D01*
X157963365Y-52094485D01*
X157897750Y-52056602D01*
X157832136Y-52018719D01*
X157758950Y-51999109D01*
X157685766Y-51979500D01*
X157534234Y-51979500D01*
X157387863Y-52018719D01*
X157256635Y-52094485D01*
X157250189Y-52099432D01*
X157248099Y-52096709D01*
X157200217Y-52122466D01*
X157130558Y-52117043D01*
X157074888Y-52074821D01*
X157069299Y-52065976D01*
X156956751Y-51897537D01*
X156956748Y-51897533D01*
X156817466Y-51758251D01*
X156817462Y-51758248D01*
X156653684Y-51648814D01*
X156653671Y-51648807D01*
X156471691Y-51573429D01*
X156471683Y-51573427D01*
X156430000Y-51565135D01*
X156430000Y-52368011D01*
X156420060Y-52350795D01*
X156364205Y-52294940D01*
X156295796Y-52255444D01*
X156219496Y-52235000D01*
X156140504Y-52235000D01*
X156064204Y-52255444D01*
X155995795Y-52294940D01*
X155939940Y-52350795D01*
X155930000Y-52368011D01*
X155930000Y-51565136D01*
X155929999Y-51565135D01*
X155888316Y-51573427D01*
X155888308Y-51573429D01*
X155706328Y-51648807D01*
X155706315Y-51648814D01*
X155543391Y-51757678D01*
X155476714Y-51778556D01*
X155409333Y-51760072D01*
X155362643Y-51708093D01*
X155350500Y-51654576D01*
X155350500Y-50339060D01*
X155350501Y-50339047D01*
X155350501Y-50170944D01*
X155350500Y-50170940D01*
X155349329Y-50166569D01*
X155330736Y-50097180D01*
X155332397Y-50027332D01*
X155371559Y-49969469D01*
X155435787Y-49941964D01*
X155504690Y-49953550D01*
X155538191Y-49977406D01*
X155542533Y-49981748D01*
X155542537Y-49981751D01*
X155706315Y-50091185D01*
X155706328Y-50091192D01*
X155888308Y-50166569D01*
X155930000Y-50174862D01*
X155930000Y-49371988D01*
X155939940Y-49389205D01*
X155995795Y-49445060D01*
X156064204Y-49484556D01*
X156140504Y-49505000D01*
X156219496Y-49505000D01*
X156295796Y-49484556D01*
X156364205Y-49445060D01*
X156420060Y-49389205D01*
X156430000Y-49371988D01*
X156430000Y-50174862D01*
X156471690Y-50166569D01*
X156471692Y-50166569D01*
X156653671Y-50091192D01*
X156653684Y-50091185D01*
X156817462Y-49981751D01*
X156817466Y-49981748D01*
X156956748Y-49842466D01*
X156956751Y-49842462D01*
X157066185Y-49678684D01*
X157066192Y-49678671D01*
X157141569Y-49496693D01*
X157141572Y-49496681D01*
X157179999Y-49303495D01*
X157180000Y-49303492D01*
X157180000Y-49155000D01*
X156480000Y-49155000D01*
X156480000Y-48655000D01*
X157180000Y-48655000D01*
X157180000Y-48506508D01*
X157179999Y-48506504D01*
X157141572Y-48313318D01*
X157141569Y-48313306D01*
X157066192Y-48131328D01*
X157066185Y-48131315D01*
X156956751Y-47967537D01*
X156956748Y-47967533D01*
X156951396Y-47962181D01*
X156917911Y-47900858D01*
X156922895Y-47831166D01*
X156964767Y-47775233D01*
X157030231Y-47750816D01*
X157039077Y-47750500D01*
X163960923Y-47750500D01*
X164027962Y-47770185D01*
G37*
%TD.AperFunction*%
%TA.AperFunction,Conductor*%
G36*
X166987273Y-57120185D02*
G01*
X166989125Y-57121398D01*
X167120814Y-57209390D01*
X167120827Y-57209397D01*
X167266498Y-57269735D01*
X167266503Y-57269737D01*
X167396982Y-57295691D01*
X167421153Y-57300499D01*
X167421156Y-57300500D01*
X167421158Y-57300500D01*
X167578844Y-57300500D01*
X167578845Y-57300499D01*
X167733497Y-57269737D01*
X167733509Y-57269731D01*
X167739324Y-57267969D01*
X167740158Y-57270720D01*
X167797359Y-57264497D01*
X167859878Y-57295691D01*
X167895608Y-57355734D01*
X167899500Y-57386555D01*
X167899500Y-63338316D01*
X167879815Y-63405355D01*
X167827011Y-63451110D01*
X167757853Y-63461054D01*
X167694297Y-63432029D01*
X167687819Y-63425997D01*
X167684793Y-63422971D01*
X167684789Y-63422968D01*
X167553686Y-63335367D01*
X167553673Y-63335360D01*
X167408002Y-63275022D01*
X167407990Y-63275019D01*
X167253346Y-63244258D01*
X167253343Y-63244258D01*
X167095659Y-63244258D01*
X167095656Y-63244258D01*
X166941011Y-63275019D01*
X166940999Y-63275022D01*
X166795328Y-63335360D01*
X166795315Y-63335367D01*
X166664212Y-63422968D01*
X166664208Y-63422971D01*
X166552714Y-63534465D01*
X166552711Y-63534469D01*
X166465110Y-63665572D01*
X166465103Y-63665585D01*
X166404765Y-63811256D01*
X166404762Y-63811268D01*
X166374001Y-63965911D01*
X166374001Y-64123604D01*
X166404762Y-64278247D01*
X166404765Y-64278259D01*
X166465103Y-64423930D01*
X166465110Y-64423943D01*
X166552711Y-64555046D01*
X166552714Y-64555050D01*
X166664207Y-64666543D01*
X166664210Y-64666545D01*
X166664212Y-64666547D01*
X166680749Y-64677597D01*
X166725554Y-64731207D01*
X166734263Y-64800531D01*
X166713361Y-64851926D01*
X166707161Y-64860760D01*
X166678211Y-64889711D01*
X166590606Y-65020821D01*
X166584501Y-65035557D01*
X166576664Y-65046727D01*
X166559589Y-65060346D01*
X166545885Y-65077354D01*
X166532812Y-65081705D01*
X166522043Y-65090296D01*
X166500315Y-65092522D01*
X166479592Y-65099421D01*
X166475162Y-65099500D01*
X166261427Y-65099500D01*
X166194388Y-65079815D01*
X166158325Y-65044391D01*
X166132667Y-65005992D01*
X166121397Y-64989124D01*
X166100520Y-64922446D01*
X166100500Y-64920234D01*
X166100500Y-63579765D01*
X166120185Y-63512726D01*
X166121398Y-63510874D01*
X166209390Y-63379185D01*
X166209390Y-63379184D01*
X166209394Y-63379179D01*
X166269737Y-63233497D01*
X166300500Y-63078842D01*
X166300500Y-62924500D01*
X166320185Y-62857461D01*
X166372989Y-62811706D01*
X166424500Y-62800500D01*
X166578844Y-62800500D01*
X166578845Y-62800499D01*
X166733497Y-62769737D01*
X166879179Y-62709394D01*
X167010289Y-62621789D01*
X167121789Y-62510289D01*
X167209394Y-62379179D01*
X167269737Y-62233497D01*
X167300500Y-62078842D01*
X167300500Y-61921158D01*
X167300500Y-61921155D01*
X167300499Y-61921153D01*
X167269738Y-61766510D01*
X167269737Y-61766503D01*
X167269735Y-61766498D01*
X167209397Y-61620827D01*
X167209390Y-61620814D01*
X167121789Y-61489711D01*
X167121786Y-61489707D01*
X167010292Y-61378213D01*
X167010288Y-61378210D01*
X166879185Y-61290609D01*
X166879172Y-61290602D01*
X166733501Y-61230264D01*
X166733489Y-61230261D01*
X166578845Y-61199500D01*
X166578842Y-61199500D01*
X166421158Y-61199500D01*
X166421155Y-61199500D01*
X166266510Y-61230261D01*
X166266498Y-61230264D01*
X166120827Y-61290602D01*
X166120814Y-61290609D01*
X165989711Y-61378210D01*
X165989707Y-61378213D01*
X165878213Y-61489707D01*
X165878210Y-61489711D01*
X165790609Y-61620814D01*
X165790602Y-61620827D01*
X165730264Y-61766498D01*
X165730261Y-61766510D01*
X165699500Y-61921153D01*
X165699500Y-62075500D01*
X165679815Y-62142539D01*
X165627011Y-62188294D01*
X165575500Y-62199500D01*
X165421155Y-62199500D01*
X165266510Y-62230261D01*
X165266498Y-62230264D01*
X165120827Y-62290602D01*
X165120814Y-62290609D01*
X164989711Y-62378210D01*
X164989707Y-62378213D01*
X164878213Y-62489707D01*
X164878210Y-62489711D01*
X164790609Y-62620814D01*
X164790602Y-62620827D01*
X164730264Y-62766498D01*
X164730261Y-62766510D01*
X164699500Y-62921153D01*
X164699500Y-63078846D01*
X164730261Y-63233489D01*
X164730264Y-63233501D01*
X164790602Y-63379172D01*
X164790609Y-63379185D01*
X164878602Y-63510874D01*
X164899480Y-63577551D01*
X164899500Y-63579765D01*
X164899500Y-64920234D01*
X164879815Y-64987273D01*
X164878602Y-64989125D01*
X164790609Y-65120814D01*
X164790602Y-65120827D01*
X164730264Y-65266498D01*
X164730261Y-65266507D01*
X164720491Y-65315626D01*
X164688105Y-65377536D01*
X164627389Y-65412110D01*
X164557620Y-65408369D01*
X164515303Y-65381704D01*
X164514999Y-65382076D01*
X164512040Y-65379647D01*
X164511193Y-65379114D01*
X164510292Y-65378213D01*
X164510288Y-65378210D01*
X164379185Y-65290609D01*
X164379172Y-65290602D01*
X164233501Y-65230264D01*
X164233489Y-65230261D01*
X164078845Y-65199500D01*
X164078842Y-65199500D01*
X163921158Y-65199500D01*
X163921155Y-65199500D01*
X163766510Y-65230261D01*
X163766498Y-65230264D01*
X163620827Y-65290602D01*
X163620814Y-65290609D01*
X163489711Y-65378210D01*
X163489707Y-65378213D01*
X163378213Y-65489707D01*
X163378210Y-65489711D01*
X163290609Y-65620814D01*
X163290602Y-65620827D01*
X163230264Y-65766498D01*
X163230261Y-65766508D01*
X163199361Y-65921850D01*
X163166976Y-65983761D01*
X163165425Y-65985339D01*
X162110173Y-67040592D01*
X162048850Y-67074077D01*
X161979158Y-67069093D01*
X161923225Y-67027221D01*
X161898808Y-66961757D01*
X161898492Y-66952911D01*
X161898492Y-66424500D01*
X161918177Y-66357461D01*
X161970981Y-66311706D01*
X162022492Y-66300500D01*
X162078844Y-66300500D01*
X162078845Y-66300499D01*
X162233497Y-66269737D01*
X162379179Y-66209394D01*
X162510289Y-66121789D01*
X162621789Y-66010289D01*
X162709394Y-65879179D01*
X162769737Y-65733497D01*
X162792804Y-65617531D01*
X162800638Y-65578150D01*
X162833023Y-65516239D01*
X162834517Y-65514718D01*
X163982520Y-64366716D01*
X164061577Y-64229784D01*
X164102501Y-64077057D01*
X164102501Y-63918942D01*
X164102501Y-63911347D01*
X164102500Y-63911329D01*
X164102500Y-58422945D01*
X164102500Y-58422943D01*
X164061577Y-58270216D01*
X164038511Y-58230264D01*
X163982524Y-58133290D01*
X163982521Y-58133286D01*
X163982520Y-58133284D01*
X163870716Y-58021480D01*
X163870715Y-58021479D01*
X163866385Y-58017149D01*
X163866374Y-58017139D01*
X163283740Y-57434505D01*
X163271968Y-57412947D01*
X163256643Y-57393749D01*
X163255519Y-57382822D01*
X163250255Y-57373182D01*
X163252007Y-57348679D01*
X163249494Y-57324246D01*
X163254455Y-57314447D01*
X163255239Y-57303490D01*
X163269960Y-57283825D01*
X163281056Y-57261911D01*
X163292053Y-57254313D01*
X163297111Y-57247557D01*
X163308639Y-57239892D01*
X163316039Y-57235547D01*
X163379179Y-57209394D01*
X163510289Y-57121789D01*
X163510991Y-57121086D01*
X163516984Y-57117568D01*
X163547519Y-57109923D01*
X163577553Y-57100520D01*
X163579766Y-57100500D01*
X166920234Y-57100500D01*
X166987273Y-57120185D01*
G37*
%TD.AperFunction*%
%TA.AperFunction,Conductor*%
G36*
X157709844Y-64835241D02*
G01*
X157820821Y-64909394D01*
X157923954Y-64952113D01*
X157978355Y-64995951D01*
X158000421Y-65062244D01*
X158000500Y-65066672D01*
X158000500Y-66375500D01*
X157980815Y-66442539D01*
X157928011Y-66488294D01*
X157876500Y-66499500D01*
X157549653Y-66499500D01*
X157482614Y-66479815D01*
X157436859Y-66427011D01*
X157426915Y-66357853D01*
X157455940Y-66294297D01*
X157461972Y-66287819D01*
X157509498Y-66240292D01*
X157509501Y-66240289D01*
X157597106Y-66109179D01*
X157657449Y-65963497D01*
X157688212Y-65808842D01*
X157688212Y-65651158D01*
X157688212Y-65651155D01*
X157688211Y-65651153D01*
X157682179Y-65620827D01*
X157657449Y-65496503D01*
X157626502Y-65421789D01*
X157597109Y-65350827D01*
X157597102Y-65350814D01*
X157537852Y-65262140D01*
X157516974Y-65195462D01*
X157516954Y-65193249D01*
X157516954Y-64938344D01*
X157536639Y-64871305D01*
X157589443Y-64825550D01*
X157658601Y-64815606D01*
X157709844Y-64835241D01*
G37*
%TD.AperFunction*%
%TA.AperFunction,Conductor*%
G36*
X153109510Y-49473325D02*
G01*
X153151805Y-49501040D01*
X154113181Y-50462416D01*
X154146666Y-50523739D01*
X154149500Y-50550097D01*
X154149500Y-65240903D01*
X154129815Y-65307942D01*
X154077011Y-65353697D01*
X154007853Y-65363641D01*
X153944297Y-65334616D01*
X153937819Y-65328584D01*
X152933757Y-64324522D01*
X152900272Y-64263199D01*
X152903507Y-64198523D01*
X152917246Y-64156243D01*
X152950500Y-63946287D01*
X152950500Y-63733713D01*
X152917246Y-63523757D01*
X152851557Y-63321588D01*
X152755051Y-63132184D01*
X152755049Y-63132181D01*
X152755048Y-63132179D01*
X152630109Y-62960213D01*
X152479786Y-62809890D01*
X152307820Y-62684951D01*
X152307115Y-62684591D01*
X152299054Y-62680485D01*
X152248259Y-62632512D01*
X152231463Y-62564692D01*
X152253999Y-62498556D01*
X152299054Y-62459515D01*
X152307816Y-62455051D01*
X152357062Y-62419272D01*
X152479786Y-62330109D01*
X152479788Y-62330106D01*
X152479792Y-62330104D01*
X152630104Y-62179792D01*
X152630106Y-62179788D01*
X152630109Y-62179786D01*
X152755048Y-62007820D01*
X152755047Y-62007820D01*
X152755051Y-62007816D01*
X152851557Y-61818412D01*
X152917246Y-61616243D01*
X152950500Y-61406287D01*
X152950500Y-61193713D01*
X152917246Y-60983757D01*
X152851557Y-60781588D01*
X152755051Y-60592184D01*
X152755049Y-60592181D01*
X152755048Y-60592179D01*
X152630109Y-60420213D01*
X152479786Y-60269890D01*
X152307820Y-60144951D01*
X152307115Y-60144591D01*
X152299054Y-60140485D01*
X152248259Y-60092512D01*
X152231463Y-60024692D01*
X152253999Y-59958556D01*
X152299054Y-59919515D01*
X152307816Y-59915051D01*
X152329789Y-59899086D01*
X152479786Y-59790109D01*
X152479788Y-59790106D01*
X152479792Y-59790104D01*
X152630104Y-59639792D01*
X152630106Y-59639788D01*
X152630109Y-59639786D01*
X152755048Y-59467820D01*
X152755047Y-59467820D01*
X152755051Y-59467816D01*
X152851557Y-59278412D01*
X152917246Y-59076243D01*
X152950500Y-58866287D01*
X152950500Y-58653713D01*
X152917246Y-58443757D01*
X152851557Y-58241588D01*
X152755051Y-58052184D01*
X152755049Y-58052181D01*
X152755048Y-58052179D01*
X152630109Y-57880213D01*
X152479786Y-57729890D01*
X152307820Y-57604951D01*
X152307115Y-57604591D01*
X152299054Y-57600485D01*
X152248259Y-57552512D01*
X152231463Y-57484692D01*
X152253999Y-57418556D01*
X152299054Y-57379515D01*
X152307816Y-57375051D01*
X152406312Y-57303490D01*
X152479786Y-57250109D01*
X152479788Y-57250106D01*
X152479792Y-57250104D01*
X152630104Y-57099792D01*
X152630106Y-57099788D01*
X152630109Y-57099786D01*
X152755048Y-56927820D01*
X152755047Y-56927820D01*
X152755051Y-56927816D01*
X152851557Y-56738412D01*
X152917246Y-56536243D01*
X152950500Y-56326287D01*
X152950500Y-56113713D01*
X152917246Y-55903757D01*
X152851557Y-55701588D01*
X152755051Y-55512184D01*
X152755049Y-55512181D01*
X152755048Y-55512179D01*
X152630109Y-55340213D01*
X152479786Y-55189890D01*
X152307817Y-55064949D01*
X152298504Y-55060204D01*
X152247707Y-55012230D01*
X152230912Y-54944409D01*
X152253449Y-54878274D01*
X152298507Y-54839232D01*
X152307555Y-54834622D01*
X152361716Y-54795270D01*
X152361717Y-54795270D01*
X151729409Y-54162962D01*
X151792993Y-54145925D01*
X151907007Y-54080099D01*
X152000099Y-53987007D01*
X152065925Y-53872993D01*
X152082962Y-53809408D01*
X152715270Y-54441717D01*
X152715270Y-54441716D01*
X152754622Y-54387554D01*
X152851095Y-54198217D01*
X152916757Y-53996130D01*
X152916757Y-53996127D01*
X152950000Y-53786246D01*
X152950000Y-53573753D01*
X152916757Y-53363872D01*
X152916757Y-53363869D01*
X152851095Y-53161782D01*
X152754624Y-52972449D01*
X152715270Y-52918282D01*
X152715269Y-52918282D01*
X152082962Y-53550590D01*
X152065925Y-53487007D01*
X152000099Y-53372993D01*
X151907007Y-53279901D01*
X151792993Y-53214075D01*
X151729407Y-53197036D01*
X152361716Y-52564728D01*
X152307547Y-52525373D01*
X152307547Y-52525372D01*
X152298500Y-52520763D01*
X152247706Y-52472788D01*
X152230912Y-52404966D01*
X152253451Y-52338832D01*
X152298508Y-52299793D01*
X152307816Y-52295051D01*
X152436393Y-52201635D01*
X152479786Y-52170109D01*
X152479788Y-52170106D01*
X152479792Y-52170104D01*
X152630104Y-52019792D01*
X152630106Y-52019788D01*
X152630109Y-52019786D01*
X152755048Y-51847820D01*
X152755047Y-51847820D01*
X152755051Y-51847816D01*
X152851557Y-51658412D01*
X152917246Y-51456243D01*
X152950500Y-51246287D01*
X152950500Y-51033713D01*
X152917246Y-50823757D01*
X152851557Y-50621588D01*
X152755051Y-50432184D01*
X152755049Y-50432181D01*
X152755048Y-50432179D01*
X152630109Y-50260213D01*
X152516569Y-50146673D01*
X152483084Y-50085350D01*
X152488068Y-50015658D01*
X152529940Y-49959725D01*
X152560915Y-49942810D01*
X152692331Y-49893796D01*
X152807546Y-49807546D01*
X152893796Y-49692331D01*
X152944091Y-49557483D01*
X152944090Y-49557483D01*
X152946802Y-49550215D01*
X152948730Y-49550934D01*
X152978010Y-49499500D01*
X153039917Y-49467107D01*
X153109510Y-49473325D01*
G37*
%TD.AperFunction*%
%TA.AperFunction,Conductor*%
G36*
X168251773Y-51175386D02*
G01*
X168274720Y-51177027D01*
X168284800Y-51184573D01*
X168296929Y-51187947D01*
X168312238Y-51205114D01*
X168330653Y-51218899D01*
X168336165Y-51231942D01*
X168343433Y-51240092D01*
X168353859Y-51273811D01*
X168382753Y-51456239D01*
X168382754Y-51456244D01*
X168445538Y-51649476D01*
X168447533Y-51719317D01*
X168415288Y-51775474D01*
X168237469Y-51953293D01*
X168211790Y-51972998D01*
X168131287Y-52019478D01*
X168131281Y-52019482D01*
X168019481Y-52131282D01*
X168019475Y-52131290D01*
X167940426Y-52268209D01*
X167940423Y-52268216D01*
X167899500Y-52420943D01*
X167899500Y-55613444D01*
X167879815Y-55680483D01*
X167827011Y-55726238D01*
X167757853Y-55736182D01*
X167739575Y-55731202D01*
X167739324Y-55732031D01*
X167733500Y-55730264D01*
X167733497Y-55730263D01*
X167733492Y-55730262D01*
X167733489Y-55730261D01*
X167578845Y-55699500D01*
X167578842Y-55699500D01*
X167421158Y-55699500D01*
X167421155Y-55699500D01*
X167266510Y-55730261D01*
X167266498Y-55730264D01*
X167120827Y-55790602D01*
X167120814Y-55790609D01*
X166989125Y-55878602D01*
X166922447Y-55899480D01*
X166920234Y-55899500D01*
X166386555Y-55899500D01*
X166319516Y-55879815D01*
X166273761Y-55827011D01*
X166263817Y-55757853D01*
X166268840Y-55739588D01*
X166267969Y-55739324D01*
X166269731Y-55733509D01*
X166269737Y-55733497D01*
X166300500Y-55578842D01*
X166300500Y-55421158D01*
X166300500Y-55421155D01*
X166300499Y-55421153D01*
X166269739Y-55266511D01*
X166269736Y-55266501D01*
X166254726Y-55230264D01*
X166230939Y-55172835D01*
X166221500Y-55125383D01*
X166221500Y-53179096D01*
X166241185Y-53112057D01*
X166257814Y-53091420D01*
X168143707Y-51205526D01*
X168154755Y-51199493D01*
X168162864Y-51189862D01*
X168184838Y-51183067D01*
X168205028Y-51172043D01*
X168217587Y-51172941D01*
X168229615Y-51169222D01*
X168251773Y-51175386D01*
G37*
%TD.AperFunction*%
%TA.AperFunction,Conductor*%
G36*
X155387962Y-47770185D02*
G01*
X155433717Y-47822989D01*
X155443661Y-47892147D01*
X155414636Y-47955703D01*
X155408604Y-47962181D01*
X155403251Y-47967533D01*
X155403248Y-47967537D01*
X155293814Y-48131315D01*
X155293807Y-48131328D01*
X155218430Y-48313306D01*
X155218427Y-48313318D01*
X155180000Y-48506504D01*
X155180000Y-48655000D01*
X155880000Y-48655000D01*
X155880000Y-49155000D01*
X155180000Y-49155000D01*
X155180000Y-49303495D01*
X155218427Y-49496681D01*
X155218430Y-49496693D01*
X155243268Y-49556657D01*
X155250737Y-49626126D01*
X155219462Y-49688605D01*
X155159372Y-49724257D01*
X155089547Y-49721763D01*
X155041026Y-49691790D01*
X154618716Y-49269481D01*
X153527590Y-48178355D01*
X153527588Y-48178352D01*
X153408717Y-48059481D01*
X153408716Y-48059480D01*
X153321904Y-48009360D01*
X153321904Y-48009359D01*
X153321900Y-48009358D01*
X153274319Y-47981886D01*
X153226104Y-47931318D01*
X153212883Y-47862711D01*
X153238852Y-47797847D01*
X153295767Y-47757319D01*
X153336321Y-47750500D01*
X155320923Y-47750500D01*
X155387962Y-47770185D01*
G37*
%TD.AperFunction*%
%TD*%
M02*
