M48
; DRILL file {KiCad 9.0.5} date 2025-12-05T18:53:21-0600
; FORMAT={-:-/ absolute / metric / decimal}
; #@! TF.CreationDate,2025-12-05T18:53:21-06:00
; #@! TF.GenerationSoftware,Kicad,Pcbnew,9.0.5
; #@! TF.FileFunction,Plated,1,4,PTH
FMAT,2
METRIC
; #@! TA.AperFunction,Plated,PTH,ViaDrill
T1C0.300
; #@! TA.AperFunction,Plated,PTH,ComponentDrill
T2C0.600
; #@! TA.AperFunction,Plated,PTH,ComponentDrill
T3C1.000
%
G90
G05
T1
X153.4Y-90.2
X153.7Y-73.8
X154.0Y-51.0
X154.1Y-70.4
X154.3Y-72.8
X155.5Y-55.0
X155.5Y-59.0
X156.0Y-68.5
X156.5Y-56.0
X156.5Y-59.8
X156.5Y-79.0
X156.888Y-65.73
X156.9Y-67.1
X157.0Y-94.5
X158.0Y-66.5
X158.0Y-70.5
X158.0Y-73.0
X158.0Y-74.0
X158.0Y-76.0
X158.2Y-59.6
X158.2Y-64.2
X158.5Y-62.5
X158.5Y-69.0
X158.7Y-79.3
X159.5Y-74.0
X159.5Y-83.5
X159.5Y-85.5
X159.7Y-63.0
X160.1Y-64.8
X160.2Y-69.0
X160.5Y-71.5
X160.5Y-74.0
X160.5Y-78.5
X160.5Y-89.0
X160.512Y-66.704
X161.0Y-56.0
X161.298Y-68.98
X161.5Y-74.0
X161.5Y-76.5
X161.5Y-76.5
X161.5Y-89.0
X161.6Y-62.9
X162.0Y-64.3
X162.0Y-65.5
X162.098Y-69.003
X162.5Y-61.5
X162.5Y-84.5
X163.0Y-56.5
X163.0Y-69.5
X163.0Y-71.0
X163.0Y-73.0
X163.1Y-72.1
X163.7Y-57.8
X164.0Y-66.0
X164.9Y-66.5
X165.0Y-84.5
X165.5Y-55.5
X165.5Y-63.0
X165.5Y-65.5
X165.5Y-68.5
X165.8Y-67.6
X166.0Y-76.0
X166.5Y-62.0
X166.6Y-59.8
X166.9Y-55.5
X167.175Y-64.045
X167.3Y-65.4
X167.3Y-69.1
X167.4Y-57.7
X167.4Y-67.2
X167.4Y-72.4
X167.5Y-52.0
X167.5Y-56.5
X169.0Y-90.5
T3
X151.6Y-48.6
X151.6Y-51.14
X151.6Y-53.68
X151.6Y-56.22
X151.6Y-58.76
X151.6Y-61.3
X151.6Y-63.84
X151.6Y-66.38
X151.6Y-68.92
X151.6Y-71.46
X151.6Y-74.0
X151.6Y-76.54
X151.6Y-79.08
X151.6Y-81.62
X151.6Y-84.16
X151.6Y-86.7
X151.6Y-89.24
X151.6Y-91.78
X151.6Y-94.32
X151.6Y-96.86
X157.5Y-96.5
X160.04Y-96.5
X162.58Y-96.5
X169.7Y-48.6
X169.7Y-51.14
X169.7Y-53.68
X169.7Y-56.22
X169.7Y-58.76
X169.7Y-61.3
X169.7Y-63.84
X169.7Y-66.38
X169.7Y-68.92
X169.7Y-71.46
X169.7Y-74.0
X169.7Y-76.54
X169.7Y-79.08
X169.7Y-81.62
X169.7Y-84.16
X169.7Y-86.7
X169.7Y-89.24
X169.7Y-91.78
X169.7Y-94.32
X169.7Y-96.86
T2
G00X156.18Y-49.205
M15
G01X156.18Y-48.605
M16
G05
G00X156.18Y-53.635
M15
G01X156.18Y-52.535
M16
G05
G00X164.82Y-49.205
M15
G01X164.82Y-48.605
M16
G05
G00X164.82Y-53.635
M15
G01X164.82Y-52.535
M16
G05
M30
